{"glyphs":{"0":{"ha":688,"x_min":0,"x_max":0,"o":""},"1":{"ha":688,"x_min":0,"x_max":0,"o":""},"2":{"ha":688,"x_min":0,"x_max":0,"o":""},"3":{"ha":688,"x_min":0,"x_max":0,"o":""},"4":{"ha":688,"x_min":0,"x_max":0,"o":""},"5":{"ha":688,"x_min":0,"x_max":0,"o":""},"6":{"ha":688,"x_min":0,"x_max":0,"o":""},"7":{"ha":688,"x_min":0,"x_max":0,"o":""},"8":{"ha":688,"x_min":0,"x_max":0,"o":""},"9":{"ha":688,"x_min":0,"x_max":0,"o":""}," ":{"ha":345,"x_min":0,"x_max":0,"o":""},"!":{"ha":456,"x_min":0,"x_max":0,"o":""},"\"":{"ha":456,"x_min":0,"x_max":0,"o":""},"#":{"ha":906,"x_min":0,"x_max":0,"o":""},"$":{"ha":688,"x_min":0,"x_max":0,"o":""},"%":{"ha":1092,"x_min":0,"x_max":0,"o":""},"&":{"ha":1141,"x_min":0,"x_max":0,"o":""},"'":{"ha":235,"x_min":0,"x_max":0,"o":""},"(":{"ha":514,"x_min":0,"x_max":0,"o":""},")":{"ha":514,"x_min":0,"x_max":0,"o":""},"*":{"ha":694,"x_min":0,"x_max":0,"o":""},"+":{"ha":688,"x_min":0,"x_max":0,"o":""},",":{"ha":378,"x_min":0,"x_max":0,"o":""},"-":{"ha":454,"x_min":0,"x_max":0,"o":""},".":{"ha":378,"x_min":0,"x_max":0,"o":""},"/":{"ha":386,"x_min":0,"x_max":0,"o":""},":":{"ha":378,"x_min":0,"x_max":0,"o":""},";":{"ha":378,"x_min":0,"x_max":0,"o":""},"<":{"ha":688,"x_min":0,"x_max":0,"o":""},"=":{"ha":688,"x_min":0,"x_max":0,"o":""},">":{"ha":688,"x_min":0,"x_max":0,"o":""},"?":{"ha":507,"x_min":0,"x_max":0,"o":""},"@":{"ha":1369,"x_min":0,"x_max":0,"o":""},"A":{"ha":1596,"x_min":0,"x_max":1495,"o":"m 618 1573 l 627 1573 q 697 1530 653 1573 q 738 1571 712 1571 l 751 1571 q 792 1530 778 1571 l 795 1530 q 863 1573 836 1573 l 871 1573 q 911 1530 903 1573 l 911 1525 q 800 1394 911 1499 q 795 1383 798 1383 q 798 1324 798 1343 l 798 1166 l 800 1166 q 990 1326 957 1326 l 996 1326 q 1039 1289 1017 1326 q 1096 1245 1096 1289 q 1042 1015 1096 1234 q 1242 1139 1242 1126 q 1308 1302 1278 1302 q 1326 1308 1308 1307 l 1332 1308 q 1373 1259 1364 1308 l 1373 1256 q 1362 1199 1373 1244 l 1389 1202 l 1392 1202 q 1430 1158 1422 1202 l 1430 1150 q 1411 1118 1430 1137 l 1411 1115 q 1495 1055 1495 1101 q 1443 1006 1495 1015 l 1289 1042 l 1093 930 l 1093 925 q 1335 846 1335 873 q 1340 825 1340 836 l 1340 822 q 1324 787 1340 800 q 1337 751 1337 766 l 1337 746 q 1199 678 1337 703 q 1093 648 1193 673 l 1093 646 q 1294 532 1240 554 q 1443 564 1429 564 l 1446 564 q 1492 524 1492 555 q 1411 461 1492 475 l 1411 458 q 1430 420 1430 440 l 1430 412 q 1383 372 1430 379 l 1381 372 l 1362 374 l 1362 372 q 1373 307 1373 329 q 1329 266 1373 274 l 1318 266 q 1248 431 1270 266 q 1044 556 1164 504 l 1039 556 l 1096 334 q 1034 279 1096 287 q 996 250 1021 250 l 990 250 q 798 412 954 250 l 795 412 l 795 206 q 882 103 795 175 q 911 52 911 66 l 911 46 q 871 0 911 9 l 865 0 q 795 46 838 0 q 751 3 782 3 l 743 3 q 700 43 711 3 l 700 46 q 629 0 656 0 l 624 0 q 581 43 581 6 l 581 49 q 692 182 581 75 q 700 206 700 192 l 700 410 q 694 415 700 415 q 505 247 535 247 l 496 247 q 458 285 458 258 l 437 285 q 396 326 396 296 l 396 328 q 453 556 396 342 l 450 556 q 241 429 267 467 q 201 279 220 299 q 165 266 180 266 l 163 266 q 119 312 125 266 l 119 315 l 130 377 q 109 372 120 372 l 100 372 q 62 415 70 372 l 62 426 q 79 458 62 438 q 0 518 0 477 l 0 526 q 43 564 0 557 l 49 564 l 201 532 q 399 643 269 562 l 399 646 q 195 700 298 675 q 152 749 152 720 l 152 754 q 168 789 152 772 q 157 819 157 804 l 157 836 q 266 890 157 868 q 401 928 274 895 l 401 933 q 195 1042 260 1015 q 46 1006 64 1006 q 3 1047 3 1017 l 3 1061 q 84 1115 3 1098 q 65 1147 65 1136 l 65 1166 q 100 1202 74 1202 l 111 1202 q 133 1196 123 1202 l 133 1202 q 122 1259 122 1246 l 122 1264 q 160 1308 130 1308 l 168 1308 q 225 1229 211 1308 q 279 1115 244 1115 q 453 1017 416 1036 l 453 1020 q 396 1253 396 1244 q 437 1291 396 1281 l 456 1291 q 499 1324 473 1324 l 502 1324 q 665 1191 535 1324 l 694 1164 l 697 1164 l 697 1375 q 627 1451 697 1391 q 581 1527 581 1502 l 581 1535 q 618 1573 591 1573 m 618 1530 q 727 1408 618 1508 q 732 1392 732 1399 l 732 1120 q 722 1101 732 1106 l 705 1101 l 515 1280 l 496 1286 q 494 1278 496 1278 q 697 1069 494 1267 q 732 1017 732 1036 l 732 849 q 711 827 732 827 q 578 898 695 827 q 526 968 549 898 q 450 1251 461 1225 l 445 1253 l 439 1253 q 434 1248 434 1253 q 499 985 499 1001 q 477 963 493 963 q 231 1099 425 986 q 179 1259 210 1114 l 168 1270 l 165 1270 q 160 1264 160 1269 l 160 1261 l 176 1175 q 155 1150 172 1150 q 106 1164 113 1164 l 103 1164 l 103 1153 q 138 1109 138 1122 l 138 1107 q 90 1077 138 1086 q 41 1050 47 1077 q 49 1044 41 1044 q 201 1080 193 1080 q 453 944 271 1055 q 464 922 460 935 q 358 879 464 899 q 195 827 195 833 l 195 819 q 203 814 195 814 l 532 895 q 684 808 592 870 q 697 787 697 800 l 697 779 q 540 684 697 765 q 518 678 530 678 l 201 760 l 195 760 q 190 754 190 759 l 190 746 q 361 697 216 730 q 461 656 461 667 l 461 648 q 401 602 461 629 q 198 494 231 494 l 46 526 l 43 526 q 38 521 38 526 l 38 518 q 122 486 38 507 q 138 469 138 473 l 138 456 l 100 423 l 100 415 q 106 410 101 410 q 152 423 145 423 q 176 399 176 420 q 157 312 157 328 l 157 309 q 163 304 158 304 l 168 304 q 206 445 183 304 q 326 534 248 496 q 477 610 448 600 q 496 589 494 610 l 496 581 q 434 331 496 570 l 434 328 q 439 323 435 323 l 445 323 q 502 540 464 348 q 570 675 544 675 q 711 746 676 746 q 735 722 735 743 l 735 559 q 556 366 735 538 q 496 293 496 309 l 496 290 q 502 285 497 285 q 694 467 513 285 q 713 475 707 475 q 735 445 732 475 l 735 187 q 646 81 735 168 q 618 41 618 53 l 624 38 l 627 38 q 684 84 640 38 q 711 100 696 96 q 741 41 733 100 l 749 41 q 762 92 757 41 q 781 100 772 100 l 784 100 q 854 41 800 100 l 868 38 q 873 43 873 38 q 776 155 873 59 q 760 187 760 175 l 760 450 q 781 475 764 475 q 865 399 797 475 q 987 288 969 295 l 993 288 q 998 293 998 288 l 998 298 q 784 515 936 365 q 760 562 760 539 l 760 722 q 784 746 763 746 q 936 665 798 743 q 1012 412 961 635 q 1047 320 1035 320 q 1058 334 1058 323 q 996 581 996 565 l 996 589 q 1017 610 997 610 q 1289 420 1289 488 q 1321 304 1309 304 l 1329 304 q 1335 309 1335 304 l 1335 312 q 1316 404 1335 320 q 1340 423 1324 423 q 1383 410 1343 423 l 1386 410 q 1392 415 1392 410 l 1392 423 q 1354 458 1354 450 l 1354 464 q 1440 507 1354 490 l 1451 518 l 1451 526 l 1446 526 l 1289 494 q 1034 637 1266 494 l 1028 648 q 1118 692 1028 677 q 1299 746 1242 727 l 1299 754 q 1291 760 1299 760 q 966 678 1006 686 q 795 787 795 758 q 871 844 795 806 q 960 892 947 892 l 966 892 q 1291 814 977 892 l 1297 814 q 1302 819 1302 814 q 1245 846 1302 840 q 1080 890 1202 863 q 1034 917 1038 905 l 1034 925 q 1096 974 1034 943 q 1286 1080 1272 1080 l 1289 1080 q 1446 1044 1299 1080 q 1457 1053 1457 1048 l 1457 1055 q 1370 1088 1457 1067 q 1354 1112 1357 1097 q 1389 1150 1354 1125 q 1392 1161 1392 1155 l 1386 1164 l 1383 1164 l 1340 1147 q 1318 1175 1324 1147 l 1335 1259 l 1335 1261 q 1326 1270 1335 1265 q 1278 1123 1311 1270 q 1128 1023 1253 1084 q 1012 963 1039 963 q 996 985 996 968 q 1058 1248 1058 1239 l 1053 1251 l 1042 1251 q 958 944 982 1005 q 841 849 942 896 q 781 827 798 827 q 760 849 760 827 l 760 1017 q 836 1109 760 1036 q 998 1278 998 1273 l 998 1283 l 990 1289 q 789 1101 977 1289 l 773 1101 q 760 1153 760 1101 l 760 1392 q 860 1506 760 1415 q 873 1533 873 1524 l 868 1535 l 865 1535 q 792 1473 850 1535 l 773 1473 q 751 1530 763 1473 l 746 1533 l 743 1533 q 727 1478 734 1533 l 713 1470 q 643 1527 698 1470 q 624 1535 633 1535 q 618 1530 618 1535 m 795 876 q 800 871 795 871 q 917 949 917 926 q 990 1210 945 1000 q 795 1006 800 1026 l 795 876 m 505 1204 l 505 1202 q 575 944 562 979 q 651 901 582 937 q 694 873 651 897 l 697 879 l 697 993 q 667 1044 697 1026 l 505 1204 m 258 784 l 521 716 q 646 784 564 737 l 646 787 q 534 854 626 804 l 529 854 q 258 787 509 854 l 258 784 m 849 789 l 849 787 q 971 716 880 760 q 1234 784 1228 784 l 1234 789 l 966 854 q 849 789 962 854 m 502 369 l 505 369 q 700 572 700 557 l 700 697 q 694 703 700 703 q 564 602 564 646 q 502 369 543 555 m 795 697 l 795 583 q 841 513 795 546 q 985 369 842 508 l 985 372 q 909 637 927 606 l 800 697 l 795 697 z "},"B":{"ha":1675,"x_min":0,"x_max":1573,"o":"m 779 1573 l 787 1573 q 836 1519 826 1573 l 836 1413 q 841 1408 836 1408 q 906 1451 876 1451 l 909 1451 q 952 1405 946 1451 q 841 1267 952 1372 q 836 1256 839 1256 q 838 1210 838 1224 l 838 1082 l 841 1082 q 871 1093 855 1093 l 876 1093 q 952 1036 952 1075 l 955 1036 q 1090 1177 1090 1166 l 1090 1310 q 1131 1359 1101 1359 l 1142 1359 q 1185 1318 1185 1347 l 1185 1270 l 1188 1270 q 1305 1362 1280 1362 l 1313 1362 q 1356 1313 1348 1362 q 1259 1194 1356 1287 l 1264 1191 l 1305 1191 q 1354 1145 1354 1183 l 1354 1142 q 1313 1096 1344 1096 l 1175 1096 q 1118 1055 1155 1096 q 1017 952 1112 1053 q 1090 887 1074 952 l 1090 873 q 1066 841 1090 852 q 1072 836 1067 836 l 1242 836 q 1291 873 1264 836 q 1402 952 1369 952 l 1408 952 q 1449 911 1449 947 l 1449 901 q 1405 838 1449 880 l 1405 836 l 1525 836 q 1573 792 1573 826 l 1573 787 q 1519 738 1573 747 l 1408 738 l 1408 735 q 1451 667 1451 692 l 1451 665 q 1405 621 1451 627 l 1402 621 q 1267 732 1371 621 q 1256 738 1256 734 l 1237 735 l 1082 735 l 1082 732 q 1093 703 1093 718 l 1093 697 q 1031 621 1070 621 l 1031 618 q 1177 483 1160 483 l 1310 483 q 1359 439 1359 469 l 1359 437 q 1313 388 1352 388 l 1270 388 l 1270 382 q 1362 260 1362 298 q 1313 217 1350 217 l 1310 217 q 1194 312 1284 217 l 1191 307 l 1191 269 q 1142 220 1175 220 q 1096 258 1096 229 l 1096 396 q 1055 453 1096 416 q 955 553 1055 456 l 952 553 l 952 545 q 879 483 952 502 l 873 483 q 841 502 841 488 q 836 496 836 501 l 836 326 q 909 244 836 310 q 952 168 952 192 l 952 163 q 914 125 941 125 l 903 125 q 838 168 874 125 l 836 168 l 836 54 q 787 0 826 0 l 784 0 q 738 52 745 0 l 738 168 l 735 168 q 670 125 694 125 l 662 125 q 621 165 621 128 l 621 171 q 735 312 621 210 l 735 494 q 705 480 715 480 l 697 480 q 618 543 618 500 l 616 543 q 483 399 483 410 l 483 263 q 434 214 467 214 l 431 214 q 388 255 388 227 l 388 301 q 382 307 388 307 q 266 212 294 212 l 258 212 q 217 255 229 212 l 217 263 q 309 380 217 288 l 304 382 l 266 382 q 220 426 220 397 l 220 437 q 258 477 231 477 l 396 477 q 464 532 419 477 q 553 618 553 614 l 553 621 l 540 621 q 483 694 502 621 l 483 700 q 499 735 483 718 l 499 738 l 328 738 q 274 694 305 738 q 171 621 201 621 l 165 621 q 125 662 125 625 l 125 670 q 168 735 125 699 l 163 738 l 57 738 q 0 789 0 746 q 52 836 0 829 l 165 836 l 165 838 q 122 906 122 884 l 122 914 q 165 952 122 945 l 174 952 q 307 841 199 952 q 317 836 317 839 q 358 838 345 838 l 491 838 l 491 841 q 480 871 480 857 l 480 882 q 532 952 503 952 l 543 952 l 543 955 q 393 1090 412 1090 l 260 1090 q 214 1134 214 1105 l 214 1139 q 258 1185 221 1185 l 304 1185 l 304 1188 q 212 1308 212 1282 l 212 1313 q 252 1356 212 1346 l 255 1356 q 380 1261 288 1356 l 382 1267 l 382 1305 q 423 1354 393 1354 l 431 1354 q 477 1316 477 1346 l 477 1175 q 521 1118 477 1152 q 618 1020 521 1114 l 621 1020 l 621 1031 q 689 1090 621 1074 l 697 1090 q 732 1066 726 1090 q 738 1072 738 1066 l 738 1251 q 667 1326 738 1266 q 621 1402 621 1378 l 621 1408 q 665 1451 627 1451 l 670 1451 q 732 1408 690 1451 l 738 1408 l 738 1527 q 779 1573 748 1573 m 773 1511 l 773 1370 q 751 1348 772 1348 q 670 1413 741 1348 l 662 1413 l 659 1408 l 659 1405 q 770 1280 659 1384 l 773 1264 l 773 996 q 751 974 773 974 q 700 1053 712 974 l 692 1053 q 659 1031 675 1053 l 659 1023 q 681 982 681 1000 l 681 960 q 659 939 681 939 l 656 939 q 589 996 644 939 q 442 1156 442 1134 l 442 1294 q 434 1316 442 1314 l 429 1316 q 418 1291 418 1312 l 418 1229 q 393 1202 413 1202 q 293 1294 378 1202 q 252 1318 262 1318 q 250 1310 250 1313 q 363 1183 254 1293 q 366 1172 363 1177 q 342 1150 359 1150 l 274 1150 q 252 1142 254 1150 l 252 1139 q 279 1126 258 1126 l 407 1126 q 537 1015 427 1126 q 629 909 629 929 q 613 887 629 898 l 591 887 q 545 914 580 887 l 534 914 q 518 873 518 879 l 518 868 q 594 836 594 857 q 600 822 600 836 q 540 800 600 800 l 309 800 q 179 911 286 800 l 165 914 q 160 909 160 913 l 160 903 q 225 819 225 833 q 203 800 225 803 l 79 800 q 38 789 38 800 l 38 787 q 84 773 38 775 l 203 773 q 225 751 225 773 l 225 749 q 163 675 225 732 l 163 659 l 174 659 q 298 773 187 662 l 578 773 q 600 749 600 773 q 526 705 583 705 q 521 703 526 703 l 521 700 q 545 659 521 673 q 589 681 579 681 l 613 681 q 635 659 635 681 q 578 591 635 640 q 418 442 435 442 l 274 442 q 258 434 258 441 l 258 431 q 285 418 264 418 l 345 418 q 372 391 372 414 q 288 304 372 382 q 255 255 255 268 l 263 250 q 391 363 274 250 l 401 363 q 423 336 423 363 l 423 271 q 431 252 423 262 q 448 290 446 252 l 448 410 q 613 591 448 434 q 665 629 646 629 q 686 605 682 629 l 686 594 q 656 545 686 585 l 656 540 q 700 518 688 518 q 719 581 706 522 q 749 600 740 600 q 770 562 770 600 q 773 499 773 549 l 773 307 q 686 214 773 290 q 659 168 659 180 l 659 163 l 673 163 q 754 225 734 225 q 773 203 770 225 l 773 73 q 784 38 775 38 l 787 38 q 800 81 798 38 l 800 203 q 822 225 800 225 l 825 225 q 898 163 841 225 l 909 163 q 914 171 914 163 q 819 279 911 189 q 800 309 800 296 l 800 578 q 822 600 800 600 q 871 521 860 600 l 876 521 q 914 548 914 531 q 892 591 892 581 l 892 613 q 914 635 892 635 q 990 570 933 635 q 1131 418 1131 437 l 1131 274 q 1139 258 1133 258 l 1142 258 q 1156 288 1156 267 l 1156 347 q 1183 372 1156 368 q 1294 266 1190 372 q 1313 255 1297 266 q 1324 266 1324 258 q 1210 391 1324 277 l 1207 401 q 1237 423 1207 420 l 1297 423 q 1321 434 1318 423 q 1291 448 1321 444 l 1164 448 q 1034 562 1143 448 q 944 665 944 645 q 966 686 944 686 l 977 686 q 1025 659 994 686 l 1036 659 q 1055 697 1036 669 l 1055 703 q 996 719 1054 708 q 974 754 974 734 q 1047 773 974 773 l 1264 773 q 1381 673 1286 773 l 1400 659 l 1408 659 q 1413 665 1413 659 l 1413 670 q 1348 754 1348 739 q 1370 773 1348 770 l 1492 773 q 1535 787 1535 775 l 1535 789 q 1500 800 1535 798 l 1370 800 q 1348 822 1348 800 l 1348 825 q 1408 895 1348 842 l 1411 909 l 1411 914 l 1405 914 q 1272 800 1383 914 l 996 800 q 974 822 974 800 q 1053 873 974 863 l 1053 879 q 1031 914 1042 914 q 982 892 985 892 l 960 892 q 939 914 939 892 l 939 917 q 1023 1012 939 932 q 1153 1131 1135 1131 l 1294 1131 q 1316 1147 1316 1131 q 1283 1156 1306 1156 l 1226 1156 q 1202 1180 1202 1160 q 1289 1275 1202 1195 q 1318 1318 1318 1312 q 1308 1324 1312 1324 q 1183 1210 1297 1324 q 1172 1207 1177 1210 q 1150 1232 1154 1207 l 1150 1297 q 1139 1321 1150 1318 l 1137 1321 q 1126 1297 1126 1318 l 1126 1169 q 1077 1107 1126 1145 q 920 947 1077 1099 l 906 944 q 887 968 887 952 l 887 979 q 914 1028 887 996 l 914 1039 q 873 1055 878 1055 l 871 1055 q 854 998 865 1055 q 822 974 838 974 q 800 1028 800 974 l 800 1264 q 887 1367 800 1284 q 914 1408 914 1396 q 909 1413 914 1413 q 830 1351 897 1413 q 819 1348 824 1351 q 800 1370 803 1348 l 800 1484 q 787 1535 800 1535 l 784 1535 q 773 1511 773 1532 m 730 939 q 770 898 770 922 l 770 871 q 749 849 769 849 q 711 892 711 863 l 711 917 q 730 939 713 939 m 838 933 q 860 909 856 933 l 860 903 q 822 857 846 857 q 803 879 806 857 l 803 895 q 838 933 803 918 m 898 865 l 914 865 q 939 841 939 862 q 892 803 918 803 l 871 803 q 849 822 849 805 q 898 865 849 855 m 665 860 l 667 860 q 716 819 704 860 q 703 803 713 808 l 678 803 q 640 838 654 803 q 665 860 640 856 m 678 770 l 713 770 q 727 749 727 764 q 684 711 707 711 l 656 711 q 635 730 635 713 q 678 770 653 770 m 879 770 l 892 770 q 930 743 911 770 l 930 727 q 909 713 924 713 l 906 713 q 857 754 857 723 q 879 770 863 770 m 825 724 q 865 673 865 708 l 865 662 q 844 635 865 642 q 803 678 803 653 l 803 703 q 825 724 804 724 m 751 716 q 770 694 768 716 l 770 681 q 743 643 770 662 l 727 643 q 713 665 713 650 l 713 667 q 751 716 713 705 z "},"C":{"ha":1485,"x_min":0,"x_max":1383,"o":"m 697 1581 q 827 1465 736 1581 q 833 1443 833 1455 l 833 1440 q 746 1326 833 1407 l 743 1310 l 743 1297 l 746 1291 q 773 1299 760 1299 l 787 1299 q 830 1256 830 1293 l 830 1251 q 746 1139 830 1219 l 743 1120 l 743 1104 l 749 1104 q 779 1115 763 1115 l 784 1115 q 830 1069 830 1107 l 830 1061 q 746 955 830 1036 l 743 941 l 743 873 q 822 958 822 901 q 887 1047 842 1047 l 895 1047 q 933 1004 926 1047 l 933 985 q 982 1044 982 1006 q 1042 1139 1004 1139 l 1050 1139 q 1096 1093 1096 1132 l 1096 1074 l 1099 1074 q 1150 1161 1150 1099 q 1213 1240 1170 1240 l 1215 1240 q 1373 1191 1373 1213 q 1383 1164 1380 1191 l 1383 1158 q 1348 1015 1383 1128 q 1302 987 1328 987 q 1183 1012 1293 987 q 1145 990 1145 996 q 1183 944 1183 977 l 1183 939 q 1142 895 1175 895 l 1137 895 q 1023 920 1127 895 q 985 898 1011 920 q 1023 852 1023 883 l 1023 846 q 982 803 1016 803 l 974 803 q 857 825 867 825 q 798 792 854 825 l 798 789 q 868 751 850 751 q 977 773 958 773 l 979 773 q 1023 730 1023 768 l 1023 727 q 985 678 1023 699 q 1028 659 1020 659 q 1134 681 1123 681 l 1139 681 q 1183 637 1183 675 l 1183 629 q 1147 586 1183 608 q 1191 564 1181 564 q 1299 589 1286 589 l 1308 589 q 1383 426 1360 589 l 1383 407 q 1215 336 1383 362 q 1142 458 1159 336 q 1096 499 1122 499 l 1096 483 q 1055 437 1088 437 l 1044 437 q 993 505 1005 437 q 944 589 977 589 q 936 594 944 591 l 936 575 q 890 529 928 529 l 887 529 q 819 651 837 529 q 746 703 819 667 l 743 697 l 743 643 q 792 581 743 621 q 830 518 830 543 l 830 515 q 784 469 823 469 l 779 469 q 749 480 763 469 l 743 480 l 743 453 q 817 369 743 440 q 830 331 830 344 l 830 328 q 784 282 823 282 l 781 282 q 746 296 765 282 l 743 290 l 743 266 q 817 182 743 250 q 833 144 833 161 l 833 136 q 727 11 833 101 q 694 0 709 0 l 692 0 q 556 117 650 0 q 551 138 551 127 l 551 146 q 640 263 551 179 l 640 288 q 635 293 640 293 q 608 282 635 286 l 602 282 q 556 331 564 282 l 556 339 q 637 445 556 371 l 637 475 l 610 467 l 602 467 q 556 515 564 467 l 556 526 q 637 635 556 555 q 640 646 640 640 l 640 705 q 635 711 640 711 q 562 640 562 673 q 499 534 540 534 l 488 534 q 450 578 458 534 l 450 600 l 448 600 q 399 534 399 578 q 334 442 379 442 l 326 442 q 288 486 295 442 l 288 505 q 233 420 233 486 q 168 345 213 345 l 165 345 q 5 407 5 372 q 0 426 1 407 l 0 429 q 76 597 22 597 l 198 570 q 239 594 226 582 q 203 635 203 610 l 203 646 q 244 686 207 686 l 250 686 l 358 665 q 399 686 382 670 q 363 727 363 702 l 363 741 q 407 779 370 779 q 521 757 419 779 l 586 792 l 586 795 q 515 830 540 830 q 410 808 421 808 l 407 808 q 363 846 363 816 l 363 857 q 399 906 363 884 q 355 925 370 925 q 244 901 262 901 q 201 941 201 911 l 201 952 q 236 1001 201 979 q 195 1017 206 1017 q 81 993 99 993 q 11 1107 28 993 q 0 1175 3 1138 q 171 1245 0 1225 l 176 1245 q 239 1123 224 1245 q 290 1080 250 1096 l 290 1107 q 328 1145 301 1145 l 339 1145 q 391 1077 378 1145 q 434 996 406 996 q 450 987 434 992 l 450 1006 q 494 1053 457 1053 l 499 1053 q 564 933 546 1053 q 637 884 564 920 l 640 890 l 640 941 q 600 993 640 962 q 553 1066 553 1039 l 553 1074 q 594 1115 565 1115 l 605 1115 q 637 1104 618 1115 l 640 1109 l 640 1128 q 597 1183 640 1151 q 553 1253 553 1226 l 553 1261 q 600 1302 553 1293 l 602 1302 q 635 1289 618 1302 l 637 1289 l 637 1324 q 562 1411 637 1328 q 553 1438 553 1425 l 553 1449 q 673 1581 553 1497 l 697 1581 m 591 1446 l 591 1440 q 670 1345 591 1427 l 675 1326 l 675 1272 q 654 1232 675 1232 q 602 1264 640 1236 l 597 1264 l 591 1256 q 673 1161 591 1240 l 675 1145 l 675 1069 q 654 1047 674 1047 l 605 1077 l 597 1077 q 591 1072 591 1076 l 591 1069 q 673 974 591 1053 l 675 958 l 675 854 q 654 833 674 833 q 529 925 529 890 q 499 1015 515 991 l 494 1015 q 488 1009 488 1014 l 488 1004 q 494 974 494 977 l 494 960 q 472 939 494 939 l 469 939 q 358 1055 358 973 q 339 1107 345 1107 l 334 1107 q 328 1101 328 1106 l 328 1099 q 334 1055 334 1059 q 312 1031 330 1031 q 193 1172 193 1063 q 174 1207 182 1207 l 165 1207 q 38 1169 38 1186 q 79 1031 60 1031 l 203 1055 q 296 993 296 1022 l 296 985 q 244 960 294 973 l 239 952 l 239 944 q 247 939 239 939 q 363 963 352 963 q 456 898 456 929 l 456 890 q 404 865 456 880 l 401 860 l 401 852 q 407 846 402 846 l 518 868 l 521 868 q 635 806 568 862 q 637 795 637 801 l 637 787 q 529 719 637 774 l 518 719 l 407 741 q 401 735 401 740 l 401 730 l 453 700 q 456 689 456 695 l 456 681 q 358 627 393 627 l 247 648 l 241 648 l 241 637 q 296 602 296 608 l 296 589 q 198 532 238 539 l 193 532 q 79 559 185 532 q 38 426 55 544 l 38 423 q 168 382 38 407 l 171 382 q 209 488 187 382 q 304 556 247 534 l 309 556 q 334 532 334 553 q 326 486 326 498 q 331 480 326 480 l 336 480 q 374 591 345 480 q 469 648 439 648 q 494 624 494 645 q 488 589 488 600 l 488 578 q 494 572 489 572 l 496 572 q 537 686 505 576 q 648 754 583 732 l 656 754 q 675 730 675 746 l 675 632 q 627 570 675 610 q 594 521 594 534 l 594 513 q 602 505 594 509 q 646 529 610 505 q 654 532 648 529 q 675 486 675 532 l 675 439 q 597 350 675 425 l 594 336 l 594 328 q 602 320 594 324 l 610 320 q 656 345 639 345 q 675 320 675 336 l 675 258 q 621 193 675 234 q 589 144 589 157 l 589 136 q 694 38 669 38 q 795 133 716 39 l 795 146 q 716 231 795 152 q 705 266 705 245 q 732 350 705 350 q 779 320 740 350 l 787 320 q 792 326 792 320 l 792 328 q 716 418 792 344 q 705 456 705 430 l 705 464 q 735 534 705 534 q 776 507 747 532 l 787 507 q 792 513 792 507 l 792 515 q 713 605 792 532 q 705 646 705 629 l 705 681 q 735 749 705 749 q 849 670 849 699 q 879 572 860 644 l 887 567 l 892 567 q 898 575 898 567 q 892 621 892 612 l 892 629 q 911 646 899 641 q 1004 586 1004 610 q 1042 475 1013 586 l 1053 475 q 1058 480 1058 475 l 1058 483 q 1053 526 1053 522 l 1053 529 q 1077 551 1053 551 q 1180 453 1180 513 q 1215 374 1197 374 l 1218 374 q 1345 415 1345 398 l 1348 415 q 1310 551 1348 454 l 1302 551 l 1185 526 q 1090 583 1160 526 l 1090 600 q 1145 629 1091 609 l 1145 637 q 1139 643 1145 643 l 1137 643 l 1025 621 l 1020 621 q 928 686 928 656 q 979 719 928 709 l 985 727 l 985 730 q 979 735 985 735 l 860 713 q 749 776 836 715 l 746 789 q 854 863 746 816 l 860 863 q 977 841 870 863 l 979 841 q 985 846 985 841 l 985 852 q 930 879 981 859 q 925 895 930 884 q 1020 958 937 928 l 1023 958 l 1139 933 q 1145 939 1145 933 l 1145 949 q 1088 979 1088 968 l 1088 987 q 1185 1050 1088 1018 l 1188 1050 q 1305 1025 1293 1025 q 1345 1161 1322 1025 l 1345 1164 q 1221 1202 1345 1178 l 1213 1202 q 1172 1090 1198 1202 q 1069 1025 1118 1025 q 1050 1050 1050 1034 l 1058 1088 l 1058 1096 q 1053 1101 1058 1101 l 1044 1101 q 1009 998 1036 1099 q 917 933 1009 981 l 906 933 q 890 955 890 939 q 895 1001 895 991 l 895 1004 q 887 1009 895 1009 q 846 898 871 1009 q 732 827 777 834 q 705 898 705 827 l 705 944 q 784 1050 705 977 q 792 1069 792 1060 q 784 1077 792 1073 l 776 1077 q 730 1050 742 1050 q 708 1074 712 1050 l 708 1139 q 773 1221 708 1159 q 792 1253 792 1243 l 792 1256 q 787 1261 792 1261 l 779 1261 q 735 1234 770 1261 l 732 1234 q 708 1259 708 1240 l 708 1329 q 789 1424 708 1350 l 795 1443 l 795 1446 q 689 1544 716 1544 l 681 1544 q 591 1446 591 1471 m 694 1497 q 746 1457 714 1497 l 749 1443 q 692 1386 749 1416 l 689 1386 q 637 1438 663 1386 l 637 1440 q 694 1497 637 1474 m 678 1440 q 692 1427 678 1437 l 705 1443 l 705 1446 q 694 1457 705 1450 q 678 1440 690 1457 m 149 1175 q 182 1107 168 1175 l 182 1104 q 114 1063 182 1076 l 109 1063 q 71 1134 81 1063 l 71 1137 q 149 1175 71 1171 m 1240 1169 q 1313 1126 1313 1169 q 1278 1058 1301 1058 l 1275 1058 q 1204 1093 1204 1069 l 1204 1099 q 1240 1169 1211 1169 m 111 1131 l 111 1128 q 117 1104 111 1122 l 122 1104 l 141 1109 l 141 1112 q 133 1137 141 1126 q 111 1131 116 1131 m 1251 1131 q 1242 1104 1242 1109 q 1270 1101 1242 1101 q 1275 1126 1275 1122 q 1251 1131 1255 1131 m 109 524 q 182 488 182 515 l 182 483 q 144 412 171 412 q 71 450 71 423 q 106 524 81 524 l 109 524 m 1278 518 q 1316 450 1305 518 l 1316 448 q 1251 410 1316 419 q 1237 407 1246 407 q 1204 477 1204 427 l 1204 480 q 1278 518 1213 518 m 117 483 q 111 461 111 473 l 111 458 q 136 453 115 458 q 141 477 141 471 l 141 480 l 117 483 m 1242 475 q 1253 448 1246 448 q 1275 453 1271 453 l 1275 456 q 1264 480 1275 477 q 1242 475 1244 475 m 700 195 q 749 138 749 171 q 686 84 719 84 q 637 146 637 112 q 700 195 665 195 m 678 141 q 689 127 684 129 l 692 127 q 708 144 696 127 l 694 155 l 678 141 z "},"D":{"ha":1683,"x_min":0,"x_max":1581,"o":"m 781 1581 l 792 1581 q 920 1473 838 1581 q 928 1446 928 1459 l 928 1438 q 846 1337 928 1412 q 844 1326 844 1333 l 844 1294 l 846 1294 q 876 1305 861 1305 l 882 1305 q 925 1264 925 1297 l 925 1256 q 844 1147 925 1224 l 841 1131 l 841 1115 l 844 1109 q 871 1120 863 1120 l 879 1120 q 917 1107 890 1120 q 977 1055 962 1107 l 977 1053 l 979 1053 q 1006 1096 1006 1075 l 1006 1166 q 1055 1232 1006 1232 l 1063 1232 q 1107 1185 1095 1232 l 1109 1185 q 1137 1229 1137 1204 l 1137 1310 q 1194 1370 1147 1370 q 1310 1367 1286 1367 q 1367 1297 1367 1367 l 1367 1207 q 1316 1137 1367 1146 l 1313 1137 q 1232 1139 1301 1137 q 1185 1112 1203 1139 l 1185 1107 q 1229 1063 1229 1100 l 1229 1058 q 1172 1006 1229 1015 l 1090 1006 q 1055 982 1078 1006 l 1055 979 q 1099 930 1099 965 q 1123 887 1099 923 l 1123 873 q 1109 844 1123 866 l 1115 841 l 1131 841 q 1218 911 1144 841 q 1256 928 1239 928 l 1261 928 q 1305 887 1305 920 l 1305 876 q 1294 846 1305 861 l 1294 841 l 1310 841 q 1367 884 1333 841 q 1440 928 1411 928 l 1449 928 q 1581 811 1495 928 l 1581 789 q 1462 654 1581 740 l 1449 651 l 1438 651 q 1332 738 1411 651 l 1318 741 l 1297 741 q 1291 735 1291 740 q 1305 705 1301 735 l 1305 703 q 1261 654 1295 654 l 1256 654 q 1145 738 1225 654 l 1126 741 l 1112 741 q 1107 735 1107 740 q 1120 705 1120 726 l 1120 700 q 1101 665 1120 688 l 1101 648 q 1058 602 1101 616 q 1055 600 1055 602 q 1093 572 1076 572 l 1180 572 q 1232 524 1232 563 l 1232 521 q 1183 472 1221 472 q 1229 442 1204 442 l 1313 442 q 1364 391 1364 434 q 1367 374 1367 391 l 1367 288 q 1299 212 1367 212 l 1270 212 q 1221 209 1246 212 q 1137 255 1156 209 l 1137 309 q 1139 353 1137 325 q 1109 396 1132 376 l 1107 396 q 1063 350 1092 350 l 1055 350 q 1006 431 1006 350 l 1006 483 q 979 526 1006 506 l 977 526 q 933 483 964 483 q 882 461 918 483 l 871 461 q 841 475 861 461 l 838 469 l 838 448 q 903 369 838 431 q 922 328 922 347 l 922 320 q 876 279 922 287 l 871 279 q 841 290 855 279 l 838 285 l 838 263 q 909 179 838 248 q 925 138 925 155 l 925 136 q 814 5 925 90 l 795 0 l 784 0 q 656 117 711 26 l 654 133 l 654 144 q 738 247 654 171 q 743 277 743 258 l 743 290 q 738 296 743 296 q 705 277 721 277 l 700 277 q 656 317 656 283 l 656 326 q 738 431 656 355 q 743 461 743 442 l 743 475 q 738 480 743 480 q 705 461 738 470 l 700 461 q 656 483 683 461 q 602 532 602 491 l 600 532 q 570 488 570 506 l 570 401 q 529 355 559 355 l 518 355 q 472 399 472 364 l 469 399 q 439 358 439 375 l 439 263 q 298 212 439 212 l 288 212 q 214 266 223 212 l 214 388 q 258 439 226 439 l 350 439 q 401 475 375 439 q 353 518 360 475 l 353 524 q 393 570 362 570 l 480 570 q 529 602 505 570 l 529 605 q 483 643 483 611 l 483 665 q 461 700 461 686 l 461 705 q 475 741 461 720 l 469 743 l 448 743 q 363 673 431 743 q 328 656 337 656 l 323 656 q 279 697 279 663 l 279 713 q 290 741 279 722 l 285 743 l 260 743 q 182 673 242 743 q 138 654 155 654 l 133 654 q 3 768 89 654 l 0 784 l 0 795 q 109 920 0 838 q 130 925 119 925 l 138 925 q 247 841 165 925 l 260 838 l 288 838 q 293 844 293 838 q 277 876 277 854 l 277 884 q 320 922 277 915 l 323 922 q 418 849 353 922 q 437 841 428 841 l 475 841 q 461 876 461 861 l 461 884 q 483 928 461 891 q 526 977 486 977 l 526 982 q 483 1009 506 1009 l 407 1009 q 355 1050 355 1019 l 355 1066 q 399 1107 355 1098 l 399 1109 q 353 1139 376 1139 l 271 1139 q 214 1188 214 1152 l 214 1324 q 312 1367 214 1367 l 320 1367 q 323 1364 323 1367 l 328 1367 l 355 1367 q 439 1318 439 1367 l 439 1229 q 469 1180 439 1204 q 483 1210 473 1180 q 518 1226 499 1226 l 526 1226 q 570 1188 570 1219 l 570 1099 q 602 1050 570 1074 l 605 1050 q 662 1101 605 1101 q 700 1123 677 1123 l 705 1123 q 738 1109 715 1123 l 741 1115 l 741 1120 q 694 1191 741 1157 q 654 1256 654 1230 l 654 1261 q 692 1305 661 1305 l 708 1305 q 738 1291 718 1305 l 741 1297 l 741 1305 q 686 1381 741 1344 q 651 1440 651 1415 l 651 1451 q 765 1579 675 1521 l 781 1581 m 689 1443 q 757 1367 689 1430 q 776 1326 776 1345 l 776 1264 q 754 1237 776 1244 q 705 1267 743 1237 l 697 1267 q 692 1261 692 1266 l 692 1259 q 765 1172 692 1243 q 776 1142 776 1158 l 776 1082 q 749 1055 772 1055 q 700 1085 707 1085 q 643 1058 669 1058 q 624 993 640 993 l 608 993 q 534 1080 534 1053 l 534 1172 q 526 1188 534 1186 l 518 1188 q 505 1131 512 1188 l 494 1123 l 477 1123 q 404 1213 404 1181 l 404 1302 q 369 1329 404 1329 l 296 1329 q 250 1308 250 1329 l 250 1207 q 293 1175 250 1175 l 369 1175 q 456 1101 398 1175 l 456 1085 q 396 1069 456 1072 l 393 1063 l 393 1055 q 429 1044 393 1046 l 499 1044 q 586 971 528 1044 l 586 955 q 524 939 586 942 q 499 882 524 903 l 499 873 q 529 827 529 838 l 529 817 q 491 803 529 805 l 431 803 q 331 882 406 803 q 320 884 326 884 q 315 876 315 884 q 347 822 347 835 q 326 803 347 806 l 244 803 q 144 884 231 803 l 130 887 q 38 798 83 861 l 38 789 q 130 692 53 747 l 136 692 q 214 762 153 692 q 255 781 236 781 q 345 765 345 781 l 345 749 q 317 705 317 717 l 317 700 q 326 694 317 694 q 380 741 332 694 q 445 781 417 781 q 529 762 529 781 l 532 757 q 499 708 529 743 l 499 703 q 521 665 521 683 l 521 648 q 526 643 522 643 l 548 643 q 586 616 586 643 l 586 613 q 515 540 586 593 q 499 534 507 534 l 412 534 q 391 526 393 534 l 391 521 q 445 505 391 515 q 456 486 456 497 l 456 483 q 385 410 456 463 q 369 404 376 404 l 274 404 q 250 374 250 404 l 250 288 q 274 252 250 252 q 298 250 284 250 l 304 250 q 404 274 404 250 l 404 374 q 477 456 404 395 l 494 456 q 513 393 507 456 l 529 393 q 534 418 534 411 l 534 499 q 613 589 534 536 q 643 524 643 589 q 700 499 686 524 l 703 499 q 757 532 739 532 q 779 505 779 522 l 779 434 q 700 336 779 413 l 694 328 l 694 320 q 700 315 695 315 l 703 315 q 757 347 742 347 q 779 320 779 340 l 779 255 q 700 155 779 228 q 692 136 692 144 q 781 41 692 107 q 792 38 786 38 l 795 38 q 887 138 887 112 q 825 212 887 154 q 803 247 803 233 l 803 326 q 825 347 804 347 q 871 317 835 345 l 879 317 q 884 323 884 317 l 884 331 q 814 407 873 348 q 803 437 803 423 l 803 507 q 825 532 807 532 q 873 499 835 532 l 879 499 q 936 524 898 524 q 955 581 945 581 q 963 583 958 581 q 1039 515 994 573 q 1044 467 1044 488 l 1044 407 l 1050 388 l 1061 388 q 1077 445 1068 388 l 1093 453 q 1161 393 1114 453 q 1177 347 1177 370 q 1172 301 1172 311 l 1172 282 q 1223 247 1172 247 l 1237 247 q 1326 263 1326 247 q 1332 355 1329 273 q 1299 407 1332 407 l 1213 407 q 1128 480 1177 407 l 1128 486 q 1183 510 1128 510 l 1194 521 l 1194 524 q 1158 537 1190 537 l 1077 537 q 1001 605 1056 537 l 1001 621 q 1061 643 1001 635 l 1063 648 l 1063 665 q 1082 705 1063 679 q 1055 754 1055 739 q 1080 776 1055 772 l 1145 776 q 1234 705 1164 776 l 1253 692 l 1259 692 q 1267 700 1263 692 q 1240 743 1267 707 q 1237 751 1240 746 q 1289 779 1237 779 l 1289 776 l 1294 779 l 1321 779 q 1411 711 1354 779 q 1446 689 1433 689 q 1541 781 1499 722 q 1544 792 1544 786 l 1544 800 q 1446 890 1471 890 l 1440 890 q 1351 814 1425 890 q 1332 806 1341 806 l 1259 806 q 1237 827 1237 807 q 1267 873 1239 838 l 1267 884 q 1261 890 1267 890 l 1253 890 q 1158 808 1225 869 q 1147 806 1154 806 l 1077 806 q 1055 827 1055 806 l 1055 830 q 1085 876 1055 840 q 1058 939 1058 908 q 1006 947 1044 944 q 998 966 998 957 l 998 968 q 1069 1042 998 989 l 1139 1042 q 1191 1055 1191 1042 l 1191 1063 q 1137 1077 1191 1070 l 1128 1088 l 1128 1104 q 1234 1177 1179 1177 l 1242 1177 q 1318 1175 1278 1175 q 1332 1229 1332 1192 q 1329 1313 1329 1287 q 1261 1332 1329 1332 l 1196 1332 q 1172 1289 1172 1332 l 1172 1207 q 1104 1128 1170 1183 l 1088 1128 q 1066 1191 1076 1128 l 1061 1194 l 1055 1194 q 1042 1142 1042 1194 l 1042 1074 q 974 998 1042 1053 l 966 998 q 939 1044 943 998 q 914 1066 939 1066 q 873 1082 909 1066 q 827 1055 838 1055 q 806 1077 806 1055 l 806 1147 q 860 1218 806 1171 q 887 1259 887 1246 l 887 1261 q 882 1267 887 1267 l 873 1267 q 827 1237 841 1240 q 806 1278 806 1237 l 806 1335 q 884 1430 806 1358 l 890 1438 l 890 1443 q 803 1541 890 1466 l 789 1544 l 779 1544 q 689 1443 689 1473 m 795 1500 q 846 1446 846 1470 q 784 1389 822 1389 q 732 1446 732 1418 q 795 1500 755 1500 m 773 1443 q 789 1430 774 1443 q 803 1443 793 1430 l 803 1446 q 789 1459 803 1449 q 773 1443 774 1449 m 301 1302 l 358 1302 q 374 1275 374 1293 q 355 1204 374 1204 l 301 1204 q 277 1234 277 1204 l 277 1272 q 301 1302 277 1302 m 1229 1299 l 1278 1299 q 1299 1278 1299 1299 l 1299 1229 q 1278 1207 1299 1207 l 1229 1207 q 1202 1264 1202 1207 q 1229 1299 1205 1299 m 315 1261 l 315 1245 q 320 1240 315 1240 l 331 1240 q 336 1245 336 1240 l 336 1261 q 331 1267 336 1267 l 320 1267 q 315 1261 315 1266 m 1240 1259 l 1240 1245 l 1253 1242 l 1259 1242 q 1264 1248 1264 1242 l 1264 1251 l 1261 1264 l 1245 1264 q 1240 1259 1240 1263 m 681 1053 l 689 1053 q 765 982 707 1053 q 773 960 773 968 l 773 887 q 760 860 773 866 l 743 860 q 667 952 667 918 l 667 1023 q 681 1053 671 1053 m 882 1050 l 898 1050 q 911 1023 911 1044 l 911 963 q 836 865 911 922 l 819 865 q 808 884 808 870 l 808 966 q 882 1050 808 989 m 705 990 l 705 949 q 735 917 706 943 q 738 941 735 941 q 708 990 738 966 l 705 990 m 871 990 q 844 949 844 964 l 844 930 q 849 925 844 925 q 876 987 876 948 l 871 990 m 543 911 l 635 911 q 722 833 650 911 l 722 817 q 703 806 718 806 l 613 806 q 524 884 589 806 l 524 901 q 543 911 528 911 m 963 911 l 1023 911 q 1050 898 1044 911 l 1050 882 q 960 808 991 808 l 884 808 q 863 827 863 811 q 963 911 908 911 m 586 876 l 586 873 q 629 841 612 841 l 654 841 q 659 846 659 841 q 613 876 632 876 l 586 876 m 922 846 l 922 844 l 944 844 q 990 873 969 844 l 985 876 l 979 876 q 922 846 941 876 m 136 849 q 195 795 163 849 l 195 792 q 138 730 195 763 l 130 730 q 76 795 76 761 q 136 849 108 849 m 1449 846 q 1500 784 1500 819 q 1443 732 1469 732 q 1389 798 1389 756 q 1449 846 1417 846 m 117 789 q 136 773 127 773 q 155 792 140 773 l 136 808 q 117 789 132 808 m 1430 792 l 1430 789 q 1443 776 1430 786 l 1446 776 q 1459 792 1456 781 l 1443 806 q 1430 792 1440 806 m 635 776 l 694 776 q 724 751 724 776 q 627 667 660 667 l 545 667 q 526 678 531 667 l 526 694 q 635 776 581 776 m 903 773 l 958 773 q 1050 697 990 773 l 1050 681 q 1031 670 1046 670 l 947 670 q 865 743 926 670 l 865 760 q 903 773 865 771 m 583 705 l 589 703 l 610 703 q 662 738 636 703 l 656 741 q 583 705 606 741 m 925 735 q 963 705 948 705 l 985 705 q 990 711 990 705 l 960 735 l 925 735 m 746 722 l 762 722 q 776 697 770 722 l 776 618 q 697 524 776 593 l 681 524 q 667 545 667 530 l 667 632 q 746 722 667 656 m 817 716 l 833 716 q 911 613 911 662 l 911 553 q 898 526 911 532 l 882 526 q 806 613 806 589 l 806 697 q 817 716 806 712 m 735 662 q 703 616 703 630 l 703 589 q 708 583 703 583 q 741 637 741 614 l 741 656 q 735 662 741 662 m 841 656 l 841 632 q 873 586 841 610 q 876 594 876 591 q 846 656 876 639 l 841 656 m 301 377 l 363 377 q 377 355 377 370 l 377 304 q 342 277 377 280 l 309 277 q 279 301 279 277 l 279 355 q 301 377 279 377 m 1229 374 l 1286 374 q 1299 353 1299 368 l 1299 307 q 1267 279 1299 282 l 1237 279 q 1207 304 1207 279 l 1207 353 q 1229 374 1207 374 m 315 336 l 315 315 l 326 312 l 339 315 l 339 336 q 334 342 339 342 l 320 342 q 315 336 315 341 m 1242 334 l 1242 317 l 1253 315 q 1264 323 1264 319 l 1264 326 l 1261 339 l 1248 339 q 1242 334 1242 338 m 789 195 q 849 138 818 195 l 849 136 q 792 76 849 107 l 789 76 q 730 130 764 76 l 730 138 q 787 195 730 165 l 789 195 m 787 155 l 770 136 q 792 117 780 121 l 806 133 l 806 138 q 787 155 799 150 z "},"E":{"ha":1681,"x_min":0,"x_max":1579,"o":"m 781 1579 l 795 1579 q 871 1440 838 1579 q 928 1256 928 1286 q 846 1147 928 1224 q 890 1028 868 1074 q 1004 1090 1001 1078 q 1006 1112 1006 1101 l 1006 1185 q 1104 1267 1006 1228 q 1310 1362 1280 1362 l 1316 1362 q 1362 1316 1362 1354 l 1362 1310 q 1264 1104 1362 1292 q 1185 1006 1217 1006 l 1104 1006 q 1055 947 1074 1006 q 1025 890 1053 947 q 1145 846 1047 879 l 1226 920 q 1251 928 1246 928 l 1253 928 q 1554 836 1283 928 q 1579 792 1579 816 l 1579 787 q 1478 722 1579 736 q 1261 651 1274 651 l 1253 651 q 1145 732 1225 651 q 1025 689 1026 694 q 1093 572 1076 572 l 1183 572 q 1270 467 1225 572 q 1362 269 1362 294 l 1362 266 q 1313 217 1353 217 l 1310 217 q 1025 355 1261 224 q 1006 393 1006 375 l 1006 475 q 930 532 1006 507 q 887 548 903 548 q 846 429 857 474 q 928 320 928 357 q 827 16 928 299 q 789 0 806 0 l 787 0 q 716 109 739 0 q 651 323 651 294 q 730 429 651 354 l 732 434 l 692 551 q 572 480 572 513 l 572 393 q 448 301 572 354 q 266 217 296 217 l 263 217 q 217 260 217 226 l 217 269 q 345 543 220 300 q 388 572 372 572 l 475 572 q 513 613 501 572 q 553 692 531 640 l 434 732 q 350 659 354 659 q 323 651 336 651 l 317 651 q 16 751 278 651 q 0 784 0 772 l 0 792 q 87 854 0 839 q 317 928 246 911 l 320 928 q 426 849 351 928 l 431 846 q 553 890 486 863 q 486 1006 498 1006 l 391 1006 q 312 1104 353 1006 q 217 1310 236 1242 l 217 1321 q 258 1362 229 1362 l 260 1362 q 431 1289 292 1362 q 572 1185 572 1234 l 572 1104 q 605 1069 572 1080 q 692 1031 675 1031 l 732 1145 q 651 1253 651 1232 l 651 1261 q 749 1563 694 1435 q 781 1579 769 1579 m 689 1256 q 762 1169 705 1232 q 770 1147 770 1158 q 703 985 724 985 l 697 985 q 537 1082 537 1048 l 537 1164 q 505 1213 537 1198 q 263 1324 278 1324 l 260 1324 q 255 1318 255 1323 l 255 1313 q 382 1050 255 1290 q 410 1042 397 1042 l 496 1042 q 578 922 527 1042 q 594 882 594 900 q 513 836 594 855 q 431 808 486 821 q 342 879 405 808 q 320 890 326 890 q 38 795 38 806 l 38 787 q 255 705 38 778 q 323 689 303 689 q 404 760 338 689 q 429 770 418 770 q 591 708 591 728 q 594 694 594 703 q 524 553 589 668 q 488 537 507 537 l 407 537 q 342 456 374 537 q 255 263 255 278 q 266 255 255 255 q 532 388 311 265 q 537 420 537 407 l 537 496 q 700 594 537 541 l 703 594 q 770 431 724 594 l 770 429 q 692 331 770 413 q 689 320 689 326 q 784 38 770 38 l 792 38 q 890 323 802 38 q 814 412 886 336 q 808 431 808 420 q 879 594 852 594 l 882 594 q 1042 499 1042 532 l 1042 410 q 1099 358 1042 380 q 1316 255 1276 260 q 1324 263 1320 255 q 1191 532 1323 294 q 1161 537 1180 537 l 1085 537 q 1012 632 1048 537 q 985 694 998 650 l 985 700 q 1072 746 985 727 q 1150 770 1130 770 q 1242 694 1163 770 q 1253 689 1246 694 l 1256 689 l 1511 768 q 1541 792 1541 772 l 1541 795 q 1337 865 1541 806 q 1253 890 1274 890 q 1169 814 1244 890 q 1147 808 1155 808 q 996 860 1131 808 q 985 882 985 871 q 1053 1025 985 901 q 1085 1042 1073 1042 l 1166 1042 q 1215 1093 1193 1042 q 1324 1316 1324 1299 l 1324 1321 l 1310 1324 q 1050 1196 1230 1296 q 1042 1169 1042 1183 l 1042 1090 q 917 1001 1042 1047 q 876 985 907 991 q 808 1147 854 985 l 808 1150 q 876 1232 808 1171 q 890 1259 890 1249 q 803 1527 890 1277 q 792 1541 796 1541 l 784 1541 q 708 1332 767 1526 q 689 1256 689 1269 m 781 1440 l 795 1440 q 860 1275 820 1421 l 860 1270 q 792 1194 860 1238 l 787 1194 q 719 1261 761 1194 l 719 1270 q 781 1440 768 1440 m 757 1272 q 787 1237 762 1255 l 789 1237 q 822 1275 822 1263 q 792 1367 819 1289 q 757 1272 787 1366 m 345 1256 q 510 1158 510 1187 l 510 1090 q 488 1069 510 1069 l 415 1069 q 363 1145 401 1069 q 323 1240 323 1225 q 345 1256 328 1256 m 1237 1256 q 1256 1234 1256 1246 q 1158 1069 1183 1069 l 1090 1069 q 1069 1090 1069 1069 l 1069 1158 q 1156 1218 1069 1181 q 1237 1256 1223 1256 m 380 1196 q 437 1104 422 1104 l 469 1104 q 475 1109 475 1104 l 475 1137 q 385 1196 475 1158 q 380 1199 385 1199 l 380 1196 m 1104 1109 q 1109 1104 1105 1104 l 1137 1104 q 1183 1169 1156 1104 q 1196 1196 1186 1169 l 1194 1196 q 1104 1145 1104 1152 l 1104 1109 m 781 1066 l 795 1066 q 833 982 809 1066 l 833 977 q 789 944 833 950 q 746 979 746 949 q 781 1066 768 1066 m 787 993 l 787 982 l 789 982 l 795 985 q 792 993 792 990 l 787 993 m 610 993 q 694 933 694 963 l 694 930 q 648 884 687 884 l 646 884 q 586 977 611 884 q 610 993 586 989 m 974 993 q 993 971 993 983 q 930 884 962 884 l 928 884 q 884 928 884 891 l 884 930 q 974 993 884 970 m 643 933 q 646 925 646 928 l 654 925 l 654 933 l 643 933 m 922 928 q 928 922 923 922 l 936 936 l 930 936 q 922 928 926 936 m 746 925 q 770 898 770 916 l 770 882 q 751 860 768 860 q 719 901 719 870 q 746 925 719 922 m 836 925 q 860 892 860 925 q 827 860 860 875 q 806 890 808 860 q 836 925 806 925 m 312 860 q 385 795 357 842 l 385 789 q 315 719 385 762 l 309 719 q 138 781 138 766 l 138 795 q 309 860 138 812 l 312 860 m 684 860 q 719 827 707 860 q 697 808 719 811 l 689 808 q 654 836 654 812 q 684 860 654 860 m 895 860 l 901 860 q 925 833 922 860 q 898 808 916 808 l 882 808 q 860 827 860 811 q 895 860 872 860 m 1272 860 q 1440 798 1440 810 l 1440 784 q 1272 719 1440 766 l 1270 719 q 1194 789 1231 719 l 1194 792 q 1270 860 1212 835 l 1272 860 m 600 833 l 602 833 q 635 792 629 833 l 635 787 q 600 746 629 746 q 513 781 513 768 l 513 798 q 600 833 513 816 m 979 833 q 1066 798 1066 810 l 1066 784 q 979 746 1066 770 l 977 746 q 944 787 949 746 l 944 795 q 979 833 950 833 m 214 792 l 214 787 l 307 757 q 342 787 327 769 l 342 789 q 307 822 325 810 l 214 792 m 1237 789 q 1272 757 1259 757 q 1367 787 1286 760 q 1272 819 1367 794 l 1270 819 q 1237 789 1254 810 m 581 792 l 581 789 l 594 787 l 597 787 l 597 795 l 594 795 l 581 792 m 982 792 l 982 787 l 993 787 q 987 792 993 792 l 982 792 m 681 770 l 705 770 q 719 749 719 764 q 684 719 706 719 l 678 719 q 654 746 656 719 q 681 770 663 770 m 884 770 l 898 770 q 925 741 920 770 q 898 719 918 719 q 863 749 876 719 q 884 770 865 770 m 751 716 q 770 694 768 716 l 770 686 q 743 654 770 654 q 719 678 719 657 l 719 684 q 751 716 719 706 m 827 716 q 860 684 860 706 q 836 654 858 654 q 808 681 808 660 l 808 694 q 827 716 810 716 m 648 694 q 694 654 694 688 l 694 648 q 605 586 694 616 q 586 608 589 586 q 648 694 611 694 m 928 694 l 930 694 q 993 605 963 694 q 971 586 993 588 q 884 651 884 616 q 928 694 890 694 m 643 643 q 654 648 650 648 l 654 656 l 651 656 q 643 643 645 656 m 922 654 q 928 648 923 648 l 930 648 l 930 654 l 922 654 m 784 635 l 792 635 q 833 597 833 631 q 798 513 809 513 l 789 513 q 746 600 760 513 l 746 602 q 784 635 746 630 m 784 597 l 784 589 q 789 583 785 583 l 792 597 l 784 597 m 496 510 q 510 488 510 503 l 510 423 q 412 355 510 395 q 342 323 363 323 q 320 345 320 324 q 415 510 391 510 l 496 510 m 1090 510 l 1161 510 q 1213 431 1181 510 q 1256 342 1256 352 q 1234 323 1256 326 q 1069 412 1069 399 l 1069 488 q 1090 510 1069 510 m 380 380 l 382 380 q 475 439 475 424 l 475 461 l 472 475 l 437 475 q 399 420 418 475 q 380 380 380 391 m 1104 469 l 1104 439 q 1145 410 1104 422 q 1194 388 1179 388 q 1145 475 1153 475 l 1109 475 q 1104 469 1104 474 m 789 385 q 860 317 809 385 l 860 309 q 798 138 811 138 l 789 138 q 738 239 765 138 q 719 309 719 285 l 719 312 q 781 382 730 353 q 789 385 787 385 m 757 304 q 787 209 757 294 l 789 209 q 819 307 819 298 l 819 309 q 787 342 795 342 q 757 304 757 319 z "},"F":{"ha":1501,"x_min":0,"x_max":1400,"o":"m 692 1584 l 703 1584 q 800 1506 770 1584 l 800 1481 q 746 1394 800 1441 l 746 1383 q 754 1375 746 1379 l 795 1375 q 841 1329 841 1364 q 795 1280 833 1280 l 760 1280 q 751 1272 755 1280 l 751 1245 l 754 1245 q 795 1264 776 1264 l 803 1264 q 844 1223 844 1253 l 844 1218 q 814 1164 844 1196 l 814 1161 q 841 1120 841 1151 l 841 1112 q 773 1069 841 1074 l 749 1069 l 749 1034 l 751 1034 q 792 1055 779 1055 l 798 1055 q 868 1023 808 1055 q 884 985 884 1004 q 879 955 884 966 l 884 955 l 914 974 q 887 1036 887 1019 l 887 1047 q 930 1085 887 1078 q 960 1077 939 1085 q 1012 1137 979 1137 l 1020 1137 q 1066 1090 1066 1129 q 1061 1058 1066 1077 q 1096 1074 1067 1058 q 1069 1145 1069 1135 l 1069 1147 q 1109 1188 1074 1188 l 1118 1188 q 1183 1128 1151 1188 q 1202 1175 1200 1128 q 1289 1240 1240 1240 l 1302 1240 q 1400 1153 1375 1240 l 1400 1137 q 1310 1039 1400 1063 l 1302 1039 q 1248 1050 1290 1039 q 1232 1039 1232 1044 q 1259 977 1259 987 l 1259 971 q 1215 928 1253 928 l 1210 928 q 1142 987 1175 928 q 1112 968 1112 972 q 1166 922 1166 953 l 1166 917 q 1118 871 1166 878 l 1112 871 q 1077 876 1101 871 l 1077 868 q 1036 822 1077 831 l 1028 822 q 966 884 998 822 q 933 865 951 884 q 982 819 982 852 l 982 768 q 930 722 982 738 l 930 719 q 963 700 954 700 q 1017 762 980 743 l 1034 762 q 1077 716 1070 762 l 1077 708 l 1080 708 q 1118 713 1109 713 l 1120 713 q 1164 670 1164 707 l 1164 662 q 1112 613 1164 631 l 1112 610 q 1145 594 1140 594 q 1210 656 1174 656 l 1218 656 q 1259 608 1259 649 l 1232 543 l 1251 532 q 1297 543 1280 543 l 1310 543 q 1394 469 1367 543 q 1397 448 1397 459 l 1397 439 q 1302 345 1383 345 l 1286 345 q 1207 396 1240 345 q 1191 453 1197 439 l 1185 456 l 1183 456 l 1150 410 q 1115 393 1133 393 l 1109 393 q 1069 431 1069 399 l 1069 448 q 1090 507 1069 460 l 1061 526 l 1061 524 q 1063 488 1063 500 q 1023 448 1053 448 l 1015 448 q 963 507 979 448 l 958 507 q 939 499 947 499 l 928 499 q 887 540 887 504 l 887 551 q 914 613 887 568 q 876 632 887 632 q 882 600 882 613 q 800 529 882 557 l 792 529 q 751 551 779 529 l 749 551 l 749 518 l 762 515 l 792 515 q 841 469 841 508 l 841 461 q 814 423 841 441 q 844 372 844 387 l 844 366 q 798 320 836 320 l 795 320 q 757 336 778 320 l 754 336 l 754 309 q 760 304 755 304 l 800 304 q 841 258 833 304 l 841 252 q 800 209 829 209 l 751 209 q 746 203 746 208 l 746 198 q 784 152 746 188 q 800 98 800 124 l 800 90 q 713 0 800 28 l 686 0 q 600 79 628 0 l 600 111 q 646 187 600 143 l 648 198 q 646 209 646 203 l 594 209 q 553 250 553 220 l 553 266 q 591 304 564 304 l 635 304 q 643 336 641 304 l 637 339 q 600 320 621 320 l 594 320 q 551 363 551 327 l 551 369 q 581 420 551 393 q 553 464 553 441 l 553 475 q 602 515 553 507 l 637 515 q 643 521 643 515 l 643 545 q 637 551 643 551 q 600 532 622 532 l 594 532 q 518 589 518 553 l 518 602 l 521 629 l 518 629 q 488 608 491 615 q 515 545 515 555 l 515 543 q 469 496 509 496 l 461 496 q 437 502 444 502 q 385 445 424 445 l 377 445 q 336 483 336 451 l 336 486 q 339 526 336 499 q 307 505 330 523 q 334 431 334 449 q 288 391 334 401 l 282 391 q 217 456 246 391 l 214 456 q 187 396 199 456 q 109 347 155 347 l 92 347 q 3 418 28 347 q 0 439 0 429 l 0 458 q 81 545 0 517 l 103 545 q 152 532 111 545 q 168 543 168 538 l 168 548 q 144 600 144 580 l 144 616 q 182 654 155 654 l 190 654 q 255 594 221 654 l 258 594 q 285 610 285 606 l 285 613 q 236 659 236 628 l 236 670 q 274 711 243 711 q 326 705 293 711 l 326 716 q 363 760 333 760 l 372 760 q 434 697 409 760 l 437 697 q 469 716 451 697 q 418 768 418 730 q 415 827 415 815 q 467 868 438 868 q 437 884 451 884 q 372 825 403 825 l 366 825 q 323 865 323 831 l 323 879 q 285 873 302 873 l 279 873 q 236 914 236 878 l 236 925 q 288 974 236 955 l 288 977 q 252 990 257 990 l 250 990 q 193 930 223 930 l 179 930 q 141 974 149 930 l 141 977 q 168 1042 141 989 q 149 1050 156 1050 q 100 1039 121 1039 l 92 1039 q 0 1131 0 1053 l 0 1145 q 79 1237 0 1211 l 111 1237 q 193 1164 169 1237 q 217 1128 193 1141 q 285 1191 254 1191 l 290 1191 q 331 1150 331 1187 q 304 1077 331 1126 q 339 1058 334 1058 l 339 1061 q 336 1085 336 1076 l 336 1096 q 374 1139 344 1139 l 380 1139 q 437 1077 420 1139 l 439 1077 q 464 1088 454 1088 l 475 1088 q 513 1044 505 1088 l 513 1039 q 486 971 513 1027 q 518 952 502 963 l 521 952 l 518 985 l 518 996 q 594 1055 518 1027 l 597 1055 q 646 1031 617 1055 l 648 1036 l 648 1063 q 643 1069 648 1069 l 621 1069 q 553 1112 553 1074 l 553 1123 q 581 1161 553 1152 l 581 1164 q 551 1213 551 1196 l 551 1226 q 594 1264 551 1257 l 600 1264 q 646 1245 613 1264 l 646 1248 q 637 1280 644 1280 l 597 1280 q 553 1321 553 1293 l 553 1337 q 591 1375 564 1375 l 640 1375 q 648 1392 648 1378 q 613 1432 648 1397 q 600 1484 600 1460 l 600 1492 q 692 1584 614 1584 m 637 1495 l 637 1481 q 678 1419 637 1453 q 684 1402 684 1410 l 684 1375 q 654 1340 684 1340 l 608 1340 q 591 1332 591 1339 l 591 1326 q 616 1316 595 1316 l 659 1316 q 681 1297 681 1314 q 684 1199 684 1209 q 665 1183 677 1183 q 602 1226 653 1183 l 594 1226 q 589 1221 589 1225 q 632 1161 589 1208 l 632 1145 q 591 1126 632 1135 l 591 1112 q 616 1107 609 1107 l 656 1107 q 684 1082 684 1103 l 684 993 q 665 971 681 971 q 600 1017 652 971 l 594 1017 q 556 990 576 1010 l 556 985 q 564 925 564 934 q 543 901 560 901 q 445 971 445 939 l 475 1042 l 475 1044 q 469 1050 475 1050 q 431 1025 439 1026 q 404 1058 404 1036 q 382 1101 389 1101 l 380 1101 q 374 1096 374 1101 l 374 1088 l 382 1023 q 361 1006 377 1006 q 263 1077 263 1044 l 293 1145 l 293 1153 l 285 1153 q 239 1093 273 1145 l 220 1088 q 155 1161 155 1109 q 106 1199 141 1199 l 92 1199 q 35 1142 35 1185 q 90 1077 43 1077 l 98 1077 q 152 1088 110 1077 l 155 1088 q 209 1044 209 1074 q 179 974 209 1040 q 184 968 180 968 l 190 968 q 228 1023 200 975 q 252 1034 240 1034 q 345 974 319 1009 l 345 958 q 279 930 345 946 l 274 922 l 274 911 l 285 911 q 339 920 336 920 l 345 920 q 366 898 366 920 q 361 871 361 876 l 361 868 q 366 863 361 863 q 410 917 384 863 q 431 928 425 928 q 526 863 526 892 l 526 854 q 458 825 526 844 l 453 817 l 453 784 q 496 749 453 749 q 529 727 524 739 l 529 719 q 434 654 529 695 q 388 708 410 654 q 366 722 378 722 q 363 713 363 716 q 369 684 369 688 q 345 665 361 665 q 277 673 292 673 l 274 667 l 274 662 q 342 632 279 653 q 347 616 347 623 l 347 608 q 250 551 313 574 l 247 551 q 195 613 235 551 l 190 616 l 187 616 q 182 610 182 615 l 182 602 q 209 548 182 598 l 209 540 q 155 494 209 511 l 152 494 l 98 507 l 92 507 q 35 448 48 507 q 90 385 44 385 l 114 385 q 165 461 152 385 q 217 494 190 494 l 231 494 q 274 431 243 494 l 288 429 q 296 437 292 429 q 266 513 266 496 q 355 575 266 535 l 361 575 q 385 551 385 572 q 374 488 374 507 l 374 483 l 385 483 q 410 545 396 483 q 423 556 411 545 l 439 556 l 464 534 l 472 534 q 477 540 477 534 q 448 618 448 605 q 543 681 468 655 l 548 681 q 567 656 567 673 q 556 600 556 612 l 556 594 q 597 570 556 583 q 651 610 604 570 q 659 613 654 610 q 678 591 675 613 l 678 502 q 656 480 678 480 l 624 480 q 591 475 610 480 l 591 464 q 632 445 593 460 q 635 434 632 439 q 589 372 635 424 l 589 363 q 594 358 589 358 q 654 401 605 358 l 670 401 q 681 385 681 396 q 678 285 678 306 q 656 269 673 269 l 608 269 q 591 260 591 267 l 591 252 q 613 244 593 244 l 656 244 q 684 212 681 244 l 684 182 q 640 122 684 173 q 635 100 640 117 q 692 38 646 38 l 708 38 q 762 90 744 38 l 762 100 q 713 171 762 127 q 708 193 708 181 q 738 244 708 244 l 781 244 q 803 260 803 244 q 781 269 802 269 l 741 269 q 716 315 716 269 q 711 385 716 323 q 732 401 716 401 l 735 401 q 792 358 745 401 l 798 358 q 806 369 806 358 l 762 426 l 762 431 q 803 461 762 454 l 803 475 q 770 480 784 480 l 732 480 q 711 496 716 480 q 713 515 711 505 q 711 583 711 556 l 711 591 q 730 613 713 613 q 795 567 745 613 q 844 597 815 570 l 833 662 q 854 684 833 684 q 955 613 955 648 q 925 548 925 552 l 925 537 l 936 537 q 966 556 955 556 l 977 556 q 1006 494 988 556 q 1015 486 1013 486 l 1020 486 q 1025 491 1025 486 l 1015 556 q 1036 578 1015 578 q 1137 510 1137 536 q 1107 442 1107 454 l 1107 431 l 1115 431 q 1161 494 1127 439 q 1183 496 1176 496 q 1237 426 1237 482 q 1291 382 1237 393 l 1305 382 q 1359 437 1359 393 l 1359 450 q 1305 505 1348 505 l 1294 505 q 1251 494 1291 505 l 1248 494 q 1191 543 1191 513 q 1221 616 1191 548 l 1215 618 l 1207 618 q 1164 556 1196 610 l 1147 551 q 1053 616 1053 593 l 1053 618 q 1107 651 1053 641 q 1126 665 1124 658 l 1126 670 q 1120 675 1126 675 l 1055 665 q 1034 689 1034 665 q 1039 716 1039 711 l 1039 719 q 1034 724 1039 724 q 982 662 1015 724 q 968 656 973 656 q 871 722 871 697 l 871 724 q 936 762 871 745 q 947 787 947 769 l 947 803 q 901 836 944 836 q 873 854 879 843 l 873 863 q 963 925 873 887 l 971 925 q 1025 863 983 925 l 1031 860 l 1034 860 q 1039 865 1039 860 q 1034 895 1039 869 l 1034 898 q 1055 920 1034 920 q 1115 909 1105 909 l 1120 909 q 1128 917 1124 909 l 1128 922 q 1053 968 1053 942 q 1150 1031 1053 988 l 1153 1031 q 1199 971 1166 1029 l 1207 966 l 1215 966 q 1221 971 1221 966 q 1191 1050 1191 1037 q 1251 1088 1216 1088 l 1299 1077 l 1302 1077 q 1362 1134 1362 1090 l 1362 1145 q 1305 1202 1348 1202 l 1294 1202 q 1234 1134 1242 1202 q 1177 1085 1234 1106 q 1126 1147 1158 1085 l 1120 1150 l 1107 1150 l 1107 1147 q 1137 1069 1137 1082 q 1044 1006 1137 1046 q 1036 1004 1039 1004 q 1017 1028 1017 1012 l 1028 1093 l 1020 1099 l 1015 1099 q 985 1031 1005 1094 l 977 1025 l 960 1025 l 933 1047 l 930 1047 q 925 1042 925 1046 l 925 1039 q 955 966 955 976 q 860 901 955 945 l 852 901 q 836 922 836 906 q 846 990 846 983 l 795 1017 q 741 974 791 1017 l 724 974 q 711 1012 713 974 l 711 1080 q 798 1109 711 1109 q 803 1112 798 1112 l 803 1123 q 770 1134 803 1130 q 762 1153 762 1144 l 762 1156 q 806 1215 762 1168 l 806 1221 q 800 1226 806 1226 l 792 1226 q 732 1183 742 1183 l 727 1183 q 711 1202 711 1189 q 732 1316 711 1316 l 779 1316 q 803 1326 800 1316 l 803 1329 q 776 1340 803 1337 l 738 1340 q 708 1394 708 1340 q 749 1446 708 1422 q 762 1487 762 1476 l 762 1492 q 705 1546 762 1533 l 689 1546 q 637 1495 637 1537 m 700 1522 l 703 1522 q 735 1489 735 1515 q 697 1451 735 1451 l 694 1451 q 665 1481 665 1456 l 665 1487 q 700 1522 667 1522 m 1299 1175 l 1302 1175 q 1335 1142 1335 1166 l 1335 1137 q 1297 1104 1335 1109 l 1294 1104 q 1264 1139 1269 1104 q 1299 1175 1267 1175 m 98 1172 l 103 1172 q 133 1142 133 1167 l 133 1134 q 98 1101 133 1105 l 95 1101 q 65 1131 65 1107 l 65 1145 q 98 1172 65 1169 m 792 971 q 811 949 808 971 q 787 925 806 925 q 770 939 776 929 l 770 947 q 792 971 774 971 m 662 892 q 681 868 681 884 l 681 857 q 659 836 680 836 q 629 865 629 845 q 662 892 629 888 m 735 892 l 741 892 q 770 865 770 887 q 735 830 770 844 q 713 860 716 830 l 713 871 q 735 892 713 892 m 613 819 q 651 789 651 814 q 613 762 651 769 q 589 795 592 762 q 613 819 592 819 m 787 819 q 808 795 804 819 l 808 789 q 784 765 805 765 l 781 765 q 754 789 754 770 q 787 819 754 812 m 518 811 q 540 798 533 811 l 540 784 q 521 773 536 773 l 510 773 q 496 789 500 779 q 518 811 498 811 m 732 751 q 770 716 770 743 q 741 692 758 692 l 738 692 q 713 708 723 692 l 713 730 q 732 751 715 751 m 665 746 q 681 724 681 741 l 681 716 q 659 694 681 694 l 654 694 q 632 716 632 694 l 632 719 q 665 746 632 743 m 781 654 l 798 654 q 808 635 808 650 q 798 616 808 621 l 789 616 q 770 635 770 616 q 781 654 770 650 m 95 480 l 98 480 q 136 442 136 475 q 100 410 136 419 q 65 442 65 414 l 65 450 q 95 480 70 480 m 1291 477 l 1302 477 q 1332 448 1332 473 l 1332 439 q 1297 410 1332 414 l 1294 410 q 1264 442 1267 410 l 1264 450 q 1291 477 1270 477 m 694 133 l 700 133 q 735 103 735 128 l 735 95 q 697 62 735 68 l 694 62 q 665 95 672 62 l 665 103 q 694 133 669 133 z "},"G":{"ha":1564,"x_min":0,"x_max":1462,"o":"m 719 1576 l 732 1576 q 773 1554 753 1576 q 814 1573 795 1573 l 825 1573 q 865 1530 859 1573 q 784 1424 865 1500 q 781 1416 784 1416 l 784 1389 l 784 1343 l 868 1462 q 909 1484 884 1484 l 917 1484 q 960 1440 960 1472 l 960 1432 q 854 1261 960 1404 q 784 1142 784 1156 l 784 1104 q 817 1115 802 1115 l 822 1115 q 868 1069 868 1107 q 784 958 868 1037 l 781 944 l 781 920 q 819 898 781 909 q 857 952 857 911 q 922 1053 880 1053 l 930 1053 q 977 1004 969 1053 l 977 990 l 979 990 q 1044 1061 1019 1006 q 1177 1310 1152 1305 l 1196 1316 l 1207 1316 q 1245 1272 1238 1316 q 1175 1104 1245 1238 l 1177 1104 q 1259 1175 1259 1147 q 1326 1280 1277 1280 l 1335 1280 q 1373 1237 1365 1280 l 1373 1223 l 1370 1210 q 1421 1161 1421 1200 q 1416 1134 1421 1156 q 1462 1085 1462 1119 l 1462 1080 q 1416 1036 1462 1042 l 1413 1036 l 1308 1058 q 1232 1020 1303 1058 l 1232 1015 q 1416 985 1416 1009 q 1427 958 1423 985 l 1427 949 q 1381 909 1427 916 q 1072 925 1310 909 q 1031 901 1044 915 q 1066 857 1066 879 l 1066 849 q 1017 803 1066 810 l 1012 803 l 901 825 q 865 795 865 812 l 865 776 q 906 751 883 751 q 1017 773 1002 773 q 1066 727 1066 766 l 1066 724 q 1031 675 1066 697 l 1031 673 q 1082 651 1069 651 q 1386 670 1112 651 q 1430 624 1420 670 l 1430 621 q 1345 572 1430 572 l 1232 562 q 1305 518 1257 539 l 1308 518 l 1413 540 l 1419 540 q 1462 496 1462 534 l 1462 491 q 1419 445 1462 457 l 1416 445 l 1416 442 q 1421 420 1421 423 l 1421 412 q 1373 369 1421 375 l 1375 342 q 1332 293 1366 293 l 1326 293 q 1264 391 1280 293 q 1226 442 1251 442 q 1177 469 1226 444 l 1177 467 q 1248 307 1238 339 q 1204 263 1237 263 l 1188 263 q 1123 353 1160 263 q 1031 543 1078 438 q 977 586 1007 578 l 977 572 q 933 521 977 532 l 925 521 q 857 637 872 521 q 817 678 857 663 q 781 654 783 662 l 781 632 q 852 548 781 616 q 865 510 865 523 l 865 507 q 825 461 865 471 l 817 461 q 784 475 801 461 l 781 469 l 781 445 q 887 274 781 420 q 958 141 958 165 l 958 138 q 914 95 952 95 l 909 95 q 811 203 867 95 q 784 239 787 239 l 784 187 q 781 163 784 178 q 854 79 781 157 q 865 49 865 64 l 865 43 q 822 0 860 0 l 817 0 q 770 22 795 0 q 735 0 749 0 l 727 0 q 694 22 694 8 q 654 0 688 22 l 640 0 q 600 41 600 5 l 600 49 q 681 157 600 81 l 681 241 q 616 144 677 241 q 553 92 576 92 l 543 92 q 505 136 512 92 l 505 141 q 681 426 505 172 l 684 445 l 684 472 q 678 477 684 477 q 651 464 678 471 l 640 464 q 600 505 600 467 l 600 515 q 681 618 600 540 q 684 643 684 633 l 684 646 q 646 678 684 661 q 597 613 597 659 q 537 524 575 524 l 532 524 q 488 564 488 530 l 488 591 q 326 326 437 591 q 266 260 296 260 l 260 260 q 217 301 217 267 l 217 312 q 288 475 217 335 q 195 377 195 439 q 138 293 176 293 l 127 293 q 87 334 87 304 l 87 342 l 90 369 q 46 412 46 374 l 46 415 l 49 442 q 0 491 0 454 l 0 496 q 38 537 6 537 l 46 537 q 157 515 60 537 q 236 556 162 515 l 236 562 q 52 583 52 570 q 35 616 35 594 l 35 624 q 81 667 35 661 l 388 651 q 434 675 422 661 l 434 678 q 401 719 401 688 l 401 727 q 442 768 406 768 l 450 768 l 559 746 q 594 765 561 746 l 591 798 l 591 811 q 551 825 562 825 q 448 803 462 803 l 439 803 q 399 846 407 803 l 399 854 q 434 898 399 886 q 382 922 406 922 l 87 906 q 35 947 35 915 l 35 966 q 201 1012 35 1012 q 236 1015 214 1015 q 152 1058 214 1034 q 43 1034 58 1034 q 0 1077 0 1040 l 0 1085 q 49 1131 0 1122 l 46 1150 l 46 1161 q 90 1202 46 1202 l 87 1234 l 87 1240 q 125 1278 98 1278 l 138 1278 q 195 1188 179 1278 q 247 1126 195 1143 q 288 1104 273 1104 q 214 1267 214 1245 l 214 1272 q 255 1313 219 1313 l 263 1313 q 331 1234 301 1313 q 437 1020 410 1067 q 488 985 469 989 l 488 1004 q 526 1047 496 1047 l 534 1047 q 591 958 582 1047 q 640 895 610 895 q 643 892 640 892 q 681 928 681 915 q 621 1012 681 963 q 594 1061 594 1045 l 594 1072 q 637 1115 600 1115 l 648 1115 q 678 1104 653 1115 l 681 1109 l 681 1112 q 629 1215 681 1156 q 499 1435 499 1409 l 499 1440 q 543 1484 505 1484 l 559 1484 q 675 1337 588 1484 q 681 1343 681 1337 l 681 1392 q 629 1470 681 1430 q 597 1527 597 1503 l 597 1535 q 640 1573 597 1566 l 646 1573 q 686 1554 665 1573 q 719 1576 705 1576 m 692 1506 q 648 1535 682 1506 l 640 1535 q 635 1530 635 1535 q 703 1449 635 1514 q 716 1416 716 1432 l 716 1297 q 700 1267 716 1276 l 692 1267 q 621 1356 672 1267 q 551 1449 564 1438 q 537 1440 537 1445 l 537 1438 q 713 1158 537 1421 l 716 1139 l 716 1074 q 689 1047 711 1047 q 648 1077 684 1047 l 637 1077 q 632 1072 632 1076 l 632 1069 q 700 987 632 1052 q 716 944 716 960 l 716 920 q 646 854 716 883 q 570 909 604 854 q 540 1006 557 943 l 534 1009 l 532 1009 q 526 1004 526 1008 q 532 952 526 998 q 510 933 523 933 q 388 1028 420 963 q 266 1275 317 1188 l 252 1275 l 252 1267 q 345 1069 252 1261 l 345 1063 q 320 1044 336 1044 q 187 1115 304 1044 q 155 1194 169 1128 q 136 1240 155 1217 l 130 1240 q 125 1232 125 1240 q 130 1183 130 1195 q 106 1164 122 1164 l 84 1164 l 84 1150 l 95 1134 l 95 1118 q 38 1088 95 1107 l 38 1077 q 46 1072 38 1072 l 157 1096 q 307 1001 307 1034 l 307 993 q 149 974 307 974 q 71 958 79 966 q 90 944 75 944 l 393 960 q 494 903 431 953 l 494 887 q 439 860 494 876 l 437 854 l 437 846 q 442 841 437 841 l 445 841 l 556 863 q 632 814 632 844 q 629 787 629 790 q 635 765 635 777 q 556 708 635 731 l 448 730 l 439 730 l 439 719 l 488 692 q 494 678 494 692 l 494 670 q 404 616 494 659 q 385 613 393 613 l 76 629 l 73 624 l 73 616 q 241 600 73 606 q 309 578 309 592 l 309 564 q 165 477 268 526 l 157 477 l 46 499 l 43 499 q 38 494 38 498 l 38 491 q 92 461 39 486 l 95 448 l 95 445 l 84 415 l 84 412 q 90 407 85 407 q 111 410 104 410 q 133 382 130 410 q 125 339 125 354 l 125 336 q 130 331 125 331 l 136 331 q 171 437 147 331 q 323 532 200 484 l 326 532 q 345 510 342 532 l 345 505 q 298 410 345 498 q 255 307 255 328 l 255 304 q 260 298 256 298 l 263 298 q 369 510 272 298 q 456 621 412 593 l 507 640 q 529 610 526 640 q 524 575 529 591 q 532 562 527 562 l 534 562 q 575 675 544 562 q 648 716 619 716 q 719 665 719 689 l 719 616 q 640 521 719 597 l 637 507 l 637 502 l 643 502 q 686 532 653 502 l 694 532 q 719 507 719 528 l 719 426 q 562 179 719 412 q 543 138 543 149 l 543 136 q 548 130 543 130 l 551 130 q 621 222 587 161 q 697 315 675 315 l 705 315 q 719 250 719 315 l 719 152 q 640 60 719 136 l 637 46 l 637 38 l 646 38 q 697 71 686 71 q 727 38 712 69 l 730 38 l 760 68 l 770 68 q 800 46 784 68 q 819 38 810 38 l 822 38 q 827 43 827 38 l 827 52 q 746 149 746 137 l 746 274 q 760 315 746 315 l 768 315 q 822 252 785 315 q 906 133 891 144 l 914 133 q 920 138 920 133 l 920 141 q 749 412 920 158 l 746 429 l 746 510 q 768 532 747 532 q 817 499 787 524 l 822 499 q 827 505 827 499 l 827 507 q 749 602 827 521 l 746 616 l 746 665 q 814 716 746 693 l 817 716 q 898 637 869 716 q 922 559 907 559 l 930 559 q 939 575 939 562 l 939 578 q 933 616 939 587 q 958 635 941 635 q 1055 572 1028 614 q 1137 404 1075 540 q 1196 298 1188 304 q 1207 309 1207 301 q 1120 507 1128 480 l 1120 510 q 1145 529 1128 529 q 1291 431 1291 460 q 1326 331 1316 331 l 1329 331 q 1337 339 1333 331 q 1332 382 1332 378 l 1332 385 q 1383 410 1332 410 l 1383 412 q 1367 450 1367 447 q 1424 488 1367 467 l 1424 496 q 1419 502 1424 502 l 1416 502 l 1308 480 q 1161 562 1267 485 q 1158 572 1158 566 l 1158 581 q 1299 605 1158 598 q 1392 621 1392 610 l 1392 624 q 1383 632 1392 628 q 1072 613 1113 613 q 974 675 987 646 l 974 681 q 1028 719 974 700 l 1028 727 q 1020 735 1028 731 l 901 713 q 830 760 865 713 l 830 819 q 901 863 868 863 l 903 863 l 1015 841 l 1020 841 q 1028 849 1024 841 l 1028 854 q 977 882 1028 857 l 974 895 l 974 898 q 1061 960 974 922 q 1072 963 1062 960 l 1370 944 q 1389 952 1389 947 l 1389 958 q 1191 979 1389 972 q 1158 996 1158 986 l 1158 1004 q 1267 1080 1158 1027 q 1308 1096 1289 1096 l 1416 1074 l 1419 1074 q 1424 1080 1424 1074 l 1424 1085 q 1373 1112 1423 1091 l 1370 1126 l 1370 1137 q 1383 1164 1383 1154 l 1375 1169 l 1359 1169 q 1329 1194 1329 1169 q 1335 1232 1335 1223 l 1335 1237 q 1326 1242 1335 1242 q 1302 1194 1314 1242 q 1261 1115 1286 1115 q 1139 1047 1183 1054 q 1118 1069 1118 1047 q 1199 1240 1122 1083 q 1207 1270 1207 1261 l 1207 1272 q 1202 1278 1207 1278 l 1199 1278 q 1080 1044 1173 1264 q 990 952 1047 978 q 955 939 959 939 q 933 971 933 939 q 939 1009 939 1000 l 930 1015 l 925 1015 q 884 903 909 1015 q 817 860 848 860 q 746 901 746 882 l 746 960 q 822 1053 746 975 q 830 1072 830 1063 q 825 1077 830 1077 l 814 1077 q 768 1047 780 1049 q 746 1088 746 1047 l 746 1145 q 852 1321 746 1173 q 922 1435 915 1411 l 922 1438 q 914 1446 922 1442 l 906 1446 q 792 1283 880 1423 q 768 1267 781 1267 l 760 1267 q 746 1305 748 1267 l 746 1424 q 806 1500 746 1444 q 827 1533 827 1521 l 822 1535 l 819 1535 q 773 1506 811 1535 l 762 1506 q 735 1538 748 1510 l 724 1538 q 692 1506 703 1506 m 727 838 l 738 838 q 781 795 781 826 l 781 784 q 738 735 781 748 l 724 735 q 678 779 678 744 l 678 789 q 727 838 686 838 m 716 784 l 716 781 q 724 773 716 777 l 727 773 q 743 781 741 773 l 743 792 q 735 800 743 796 l 732 800 q 716 784 716 800 z "},"H":{"ha":1672,"x_min":0,"x_max":1571,"o":"m 594 1576 l 600 1576 q 738 1465 632 1576 l 741 1465 l 741 1503 q 781 1573 741 1573 l 792 1573 q 841 1481 841 1573 l 841 1470 l 844 1470 q 977 1573 942 1573 l 985 1573 q 1025 1530 1017 1573 l 1025 1527 q 849 1332 1025 1497 q 838 1308 838 1316 l 838 1267 l 841 1267 q 876 1283 867 1283 l 890 1283 q 928 1240 920 1283 l 928 1237 q 844 1128 928 1208 l 838 1120 l 838 1063 q 996 966 890 1017 q 1061 1047 1061 987 q 1126 1139 1083 1139 l 1128 1139 q 1175 1096 1175 1131 l 1175 1082 l 1172 1063 q 1223 1112 1223 1082 q 1264 1242 1246 1159 q 1316 1367 1288 1367 l 1337 1367 q 1378 1318 1378 1367 l 1343 1166 l 1345 1166 q 1419 1202 1396 1202 l 1432 1202 q 1473 1158 1466 1202 l 1473 1153 q 1394 1082 1473 1122 l 1394 1077 q 1557 1023 1557 1044 q 1568 996 1565 1023 l 1568 993 q 1527 947 1558 947 l 1522 947 q 1267 1006 1512 947 l 1223 985 q 1261 960 1255 967 q 1267 936 1267 943 l 1267 925 q 1218 884 1258 884 l 1101 909 q 1039 863 1039 888 l 1039 811 q 1036 705 1039 772 q 1104 662 1040 687 l 1109 662 q 1221 686 1206 686 l 1226 686 q 1270 648 1263 686 l 1270 640 q 1226 591 1270 606 q 1275 564 1227 584 q 1527 627 1512 627 q 1571 581 1563 627 l 1571 578 q 1451 510 1571 530 q 1400 491 1400 494 q 1476 415 1476 456 q 1432 369 1466 369 l 1430 369 q 1345 404 1413 369 l 1345 401 q 1381 252 1381 267 q 1340 206 1370 206 l 1329 206 q 1272 298 1285 206 q 1188 502 1231 502 q 1175 507 1179 507 l 1175 505 l 1177 488 l 1177 480 q 1131 434 1170 434 l 1123 434 q 1061 562 1078 434 q 982 613 1040 597 q 838 526 838 542 l 838 472 q 884 412 838 450 q 930 336 930 361 q 884 293 930 299 l 879 293 q 841 309 862 293 l 838 304 l 838 277 q 882 220 838 254 q 1028 49 1028 77 l 1028 46 q 982 0 1021 0 l 977 0 q 841 111 949 0 l 838 106 l 838 46 q 789 3 825 3 q 743 43 753 3 l 743 111 l 741 111 q 600 0 634 0 l 597 0 q 556 46 566 0 l 556 52 q 741 260 556 85 l 743 277 l 743 312 l 738 312 q 697 293 716 293 l 694 293 q 654 334 654 298 l 654 342 q 741 456 654 374 l 743 472 l 743 510 q 665 570 743 530 q 586 616 633 593 q 507 548 507 582 q 442 431 485 431 l 434 431 q 393 472 393 436 l 393 507 q 331 426 331 478 q 260 209 279 209 q 239 201 247 201 l 233 201 q 187 244 187 210 l 187 247 q 228 407 187 265 l 225 407 q 144 369 165 369 l 138 369 q 95 407 95 376 l 95 420 q 174 491 95 451 l 174 494 q 5 556 5 529 q 0 572 0 565 l 0 586 q 41 624 9 624 l 43 624 q 293 564 57 624 q 342 586 300 564 l 342 591 q 301 632 301 606 l 301 651 q 342 686 301 681 l 345 686 q 464 659 359 686 q 534 708 534 694 l 534 879 q 472 920 534 905 q 361 895 374 895 l 353 895 q 312 939 320 895 l 312 949 q 353 990 319 983 l 353 993 q 307 1017 353 1001 q 57 958 72 958 l 52 958 q 14 996 14 958 l 14 1015 q 136 1074 14 1051 q 182 1088 147 1082 l 182 1093 q 109 1161 109 1127 l 109 1175 q 152 1213 109 1205 l 157 1213 q 239 1180 174 1213 l 239 1183 q 203 1332 203 1302 l 203 1340 q 239 1375 212 1375 l 258 1375 q 326 1223 296 1375 l 361 1107 q 407 1077 383 1090 l 407 1104 q 445 1147 414 1147 l 453 1147 q 521 1025 502 1147 q 589 974 521 1006 q 741 1066 715 1040 l 743 1082 l 743 1093 q 697 1164 743 1130 q 651 1237 651 1213 l 651 1242 q 692 1283 656 1283 l 700 1283 q 741 1264 719 1283 l 743 1270 l 743 1289 q 689 1373 743 1328 q 553 1527 553 1499 l 553 1533 q 594 1576 562 1576 m 591 1530 q 757 1356 591 1522 q 779 1310 779 1331 l 779 1240 q 751 1210 773 1210 q 703 1245 737 1210 l 689 1245 l 689 1234 q 768 1145 707 1211 q 779 1115 779 1131 l 779 1061 q 608 941 779 1027 q 591 936 599 936 l 586 936 q 480 1042 480 972 q 453 1109 463 1109 l 450 1109 q 445 1104 445 1109 l 445 1101 q 450 1050 450 1055 q 429 1025 446 1025 q 317 1123 317 1069 l 255 1337 l 241 1337 l 241 1335 q 282 1156 241 1316 l 282 1145 q 260 1123 281 1123 q 157 1175 168 1175 l 152 1175 q 146 1169 146 1174 q 222 1112 146 1149 q 244 1085 244 1099 l 244 1077 q 81 1023 244 1061 q 49 1004 49 1012 q 52 996 52 998 l 54 996 q 307 1055 64 996 l 312 1055 q 412 987 412 1017 l 412 979 q 355 952 412 968 l 350 944 l 350 939 q 355 933 351 933 l 358 933 l 477 958 q 572 882 572 933 l 572 732 q 553 670 572 670 q 461 621 486 621 l 347 648 l 339 648 l 339 637 q 393 613 340 631 q 401 591 401 600 q 298 526 401 567 l 293 526 l 46 586 l 43 586 q 38 581 38 585 l 38 575 q 198 526 38 562 q 231 496 231 514 l 231 494 q 163 442 231 475 q 133 418 133 422 l 133 412 q 138 407 134 407 q 231 453 154 407 q 250 456 241 456 q 269 431 269 448 l 269 420 l 225 250 l 225 247 q 233 239 225 243 l 236 239 q 304 475 247 239 q 399 551 320 518 q 410 553 404 553 l 412 553 q 437 529 437 550 l 429 480 q 431 469 431 475 l 439 469 q 477 583 452 469 q 589 654 506 629 q 773 545 654 629 q 779 529 779 536 l 779 450 q 703 361 779 435 q 692 339 692 349 l 692 331 l 700 331 q 760 366 741 366 q 779 342 779 358 l 779 260 q 727 195 779 238 q 594 46 594 62 q 597 38 597 41 q 746 171 616 38 l 757 171 q 779 144 779 171 l 779 62 q 787 41 779 43 l 789 41 q 803 62 803 47 l 803 146 q 825 171 803 171 l 827 171 q 925 79 842 171 q 985 38 972 38 l 990 46 q 808 239 990 61 q 800 293 800 259 q 827 363 800 363 l 830 363 q 876 331 840 363 l 887 331 q 892 339 892 331 q 808 437 892 347 q 800 486 800 450 l 800 526 q 920 621 800 571 q 985 651 965 651 q 1077 602 1034 644 q 1115 486 1098 585 q 1126 472 1123 472 l 1137 472 l 1139 486 q 1131 540 1131 519 q 1153 556 1131 551 q 1245 505 1245 524 q 1297 361 1272 469 q 1329 244 1314 269 l 1340 244 l 1343 258 q 1299 437 1299 425 q 1318 458 1299 450 q 1416 412 1327 458 q 1432 407 1425 407 l 1438 415 l 1438 418 q 1340 483 1421 440 l 1337 496 l 1337 499 q 1419 537 1337 526 q 1533 578 1533 569 l 1533 583 q 1525 589 1533 589 q 1270 526 1282 526 q 1169 594 1169 568 l 1169 597 q 1229 632 1169 618 l 1232 637 l 1232 643 q 1226 648 1232 648 l 1223 648 l 1104 624 q 1006 681 1024 649 q 998 703 1002 681 q 1001 773 1001 748 l 1001 846 q 1042 922 1001 908 q 1104 947 1080 947 l 1223 922 q 1229 928 1229 922 l 1229 936 q 1172 960 1225 941 q 1166 977 1166 969 l 1166 979 q 1267 1044 1166 1006 l 1275 1044 q 1525 985 1511 985 l 1527 985 l 1530 998 q 1362 1047 1530 1008 q 1335 1080 1335 1059 q 1419 1139 1335 1094 l 1435 1156 l 1435 1158 q 1430 1164 1435 1164 l 1421 1164 q 1335 1118 1390 1152 q 1321 1115 1330 1115 l 1318 1115 q 1297 1139 1297 1115 q 1340 1326 1340 1314 l 1329 1332 q 1278 1142 1316 1305 q 1213 1039 1246 1053 q 1153 1017 1169 1017 l 1150 1017 q 1128 1042 1128 1017 q 1137 1088 1137 1075 l 1137 1093 q 1128 1101 1137 1097 l 1126 1101 q 1082 979 1114 1101 q 990 928 1028 928 q 806 1039 883 977 q 800 1063 800 1057 l 800 1118 q 863 1202 800 1148 q 890 1234 890 1232 l 890 1240 q 884 1245 890 1245 q 836 1213 878 1245 q 819 1210 831 1210 q 803 1232 803 1215 l 803 1324 q 952 1487 803 1343 q 987 1533 987 1522 l 982 1535 l 979 1535 q 833 1405 957 1535 l 817 1405 q 803 1443 805 1405 l 803 1497 q 792 1535 803 1535 l 787 1535 q 779 1519 779 1533 l 779 1459 q 760 1402 779 1402 l 754 1402 q 621 1525 743 1402 q 597 1538 607 1538 q 591 1530 591 1538 m 789 998 q 968 882 968 915 l 968 705 q 909 654 968 683 q 779 586 804 586 q 608 692 690 631 l 605 697 l 605 882 q 781 998 605 916 l 789 998 m 640 863 l 640 716 q 781 627 663 694 l 787 627 q 933 719 933 705 l 933 860 q 895 898 933 884 q 787 960 883 910 q 640 863 640 890 z "},"I":{"ha":1491,"x_min":0,"x_max":1389,"o":"m 692 1573 l 700 1573 q 784 1489 784 1563 l 784 1478 l 798 1478 q 838 1438 838 1474 l 838 1435 q 795 1373 838 1417 l 795 1370 q 838 1326 838 1370 q 795 1264 838 1308 l 795 1261 l 803 1261 q 838 1223 833 1261 l 838 1218 q 798 1158 838 1199 l 798 1156 q 838 1115 838 1151 q 795 1050 838 1090 l 795 1047 q 871 1006 823 1047 q 914 1080 886 1080 l 928 1080 q 960 1061 960 1076 l 966 1061 q 1017 1134 975 1134 l 1025 1134 q 1055 1118 1038 1134 l 1058 1118 q 1085 1180 1058 1145 q 1109 1188 1095 1188 l 1120 1188 q 1147 1169 1147 1183 q 1169 1221 1152 1170 q 1207 1242 1186 1242 l 1213 1242 q 1248 1213 1238 1242 q 1289 1223 1281 1223 l 1305 1223 q 1389 1139 1389 1212 l 1389 1128 q 1340 1053 1389 1092 q 1351 1028 1351 1038 l 1351 1025 q 1305 982 1351 989 q 1251 990 1269 990 q 1256 974 1256 981 l 1256 968 q 1221 928 1251 928 l 1218 928 q 1158 936 1172 936 q 1164 920 1164 927 l 1164 917 q 1126 873 1156 873 l 1123 873 q 1066 884 1111 873 l 1069 865 l 1069 860 q 1025 819 1069 831 l 971 830 q 977 811 977 819 q 974 789 977 804 q 977 757 977 770 q 974 743 974 753 q 1031 754 1019 754 l 1036 754 q 1072 716 1060 754 l 1072 711 q 1063 689 1072 703 l 1066 689 q 1123 700 1111 700 l 1131 700 q 1164 662 1159 700 l 1164 659 q 1156 635 1164 645 l 1161 635 q 1218 646 1206 646 q 1259 608 1259 635 q 1251 581 1259 595 l 1253 581 q 1308 591 1295 591 l 1310 591 q 1351 556 1351 586 l 1351 548 q 1337 521 1351 536 l 1337 515 q 1389 448 1389 490 l 1389 434 q 1302 350 1389 362 l 1283 350 q 1245 361 1276 350 q 1202 331 1235 331 q 1150 407 1171 331 q 1118 385 1131 385 l 1109 385 q 1058 458 1072 385 l 1055 458 q 1015 439 1038 439 q 963 510 985 439 l 960 510 q 930 494 943 494 l 925 494 q 879 534 892 494 q 871 570 871 565 q 800 526 859 558 l 800 524 q 838 456 838 482 q 800 418 827 418 l 800 415 q 838 347 838 376 q 798 312 829 312 l 798 309 q 838 250 838 269 l 838 241 q 798 203 838 212 l 798 201 q 838 136 838 158 l 838 133 q 800 95 827 95 l 784 95 l 784 87 q 697 0 771 0 l 692 0 q 605 98 616 0 l 600 95 l 586 95 q 551 136 556 95 l 551 138 q 591 201 551 161 l 591 203 q 551 241 551 207 l 551 244 q 591 309 551 269 l 591 312 l 583 312 q 551 345 551 319 l 551 353 q 589 415 551 376 l 589 418 q 551 453 551 424 l 551 461 q 591 524 551 484 l 591 526 q 515 570 570 526 q 464 494 497 494 l 456 494 q 429 513 429 499 l 423 513 q 366 439 406 439 l 363 439 q 328 464 347 439 q 269 385 319 385 q 241 407 251 385 l 236 407 q 187 331 222 331 l 179 331 q 138 363 160 331 q 95 347 110 347 l 79 347 q 3 434 16 347 l 3 450 q 52 521 3 488 q 38 548 38 536 l 38 553 q 71 591 43 591 l 76 591 l 138 581 l 138 583 q 133 605 133 593 l 133 616 q 163 646 138 646 l 171 646 l 233 635 q 225 656 225 648 l 225 662 q 258 700 231 700 l 263 700 q 323 692 309 692 q 317 708 317 701 l 317 716 q 353 754 326 754 l 358 754 q 418 746 404 746 q 412 762 412 755 q 415 789 412 775 q 412 817 412 804 q 418 833 412 821 l 415 833 q 361 822 377 822 l 358 822 q 320 854 320 825 l 320 868 l 323 887 q 269 876 285 876 l 266 876 q 225 911 225 882 l 225 917 q 231 939 225 928 l 228 939 q 171 928 183 928 q 133 963 133 937 l 133 979 l 136 993 q 79 982 91 982 l 76 982 q 41 1017 41 985 l 41 1034 q 49 1053 41 1042 l 49 1058 q 0 1128 22 1058 l 0 1142 q 84 1223 0 1213 l 100 1223 q 141 1210 116 1223 q 176 1242 141 1233 l 187 1242 q 236 1166 222 1242 q 271 1188 250 1188 l 274 1188 q 328 1118 313 1188 l 331 1118 q 363 1137 351 1137 l 369 1137 q 423 1055 410 1137 l 426 1055 q 461 1082 431 1082 l 467 1082 q 515 1009 498 1082 l 518 1009 q 591 1047 518 1023 l 591 1050 q 551 1112 551 1095 l 551 1118 q 589 1156 556 1156 l 589 1158 q 551 1218 551 1202 l 551 1229 q 589 1264 551 1258 l 589 1267 q 551 1326 551 1309 l 551 1335 q 586 1370 553 1370 l 594 1370 l 594 1373 q 551 1438 551 1414 l 551 1440 q 589 1478 555 1478 l 600 1478 l 605 1476 l 608 1481 l 608 1492 q 692 1573 608 1563 m 643 1489 q 681 1430 643 1461 q 686 1413 686 1421 l 686 1405 q 667 1383 684 1383 q 594 1440 655 1383 q 589 1438 589 1440 q 673 1348 589 1432 q 686 1310 686 1324 l 686 1299 q 665 1275 682 1275 q 594 1332 656 1275 q 589 1329 589 1332 q 684 1226 590 1317 l 686 1210 l 686 1191 q 665 1169 686 1169 q 597 1223 655 1169 q 589 1226 591 1226 l 589 1223 q 681 1120 589 1209 q 686 1104 686 1112 l 686 1082 q 667 1061 684 1061 q 594 1118 655 1061 l 589 1118 l 589 1115 q 681 1015 589 1105 q 686 998 686 1006 l 686 974 q 667 952 684 952 q 597 1006 656 952 q 589 1009 591 1009 q 553 993 558 993 l 553 990 l 570 906 q 545 884 570 888 q 494 947 508 884 l 467 1042 l 461 1042 q 475 958 475 971 q 453 939 466 939 q 377 1088 400 939 l 366 1099 l 366 1093 q 382 1015 382 1025 q 358 993 382 997 q 309 1047 323 993 q 274 1147 286 1147 l 274 1142 l 290 1063 q 269 1047 285 1047 l 263 1047 q 201 1158 220 1047 q 182 1204 189 1204 l 179 1204 l 179 1202 q 195 1123 195 1134 q 171 1101 195 1105 q 127 1169 143 1101 q 90 1188 127 1180 q 35 1139 35 1178 q 81 1085 50 1085 l 87 1085 q 133 1099 124 1099 l 136 1099 q 165 1072 157 1099 q 81 1031 165 1050 l 79 1025 l 79 1020 l 81 1020 q 217 1050 207 1050 l 222 1050 q 258 1025 243 1050 l 258 1009 q 174 977 258 996 l 171 971 l 171 966 l 174 966 q 309 996 299 996 l 317 996 q 353 963 341 996 q 269 922 353 942 q 263 920 269 920 l 263 914 l 266 914 l 399 941 l 404 941 q 445 911 445 933 l 445 903 q 358 868 445 892 l 358 860 l 496 890 q 537 857 537 880 l 537 849 q 453 814 537 838 q 450 811 453 811 l 453 787 q 450 765 450 768 q 532 735 462 758 q 537 719 537 726 l 537 716 q 494 686 530 686 l 355 716 l 355 713 q 429 686 358 707 q 442 665 442 677 l 442 662 q 399 632 437 632 l 263 662 q 334 635 271 652 q 350 618 350 622 l 350 602 q 304 578 350 589 l 171 608 l 171 605 q 244 578 171 594 q 258 564 258 567 l 258 556 q 212 524 258 534 l 76 553 q 149 524 80 543 q 163 510 163 513 l 163 494 q 133 477 154 477 l 127 477 q 81 486 92 486 q 38 439 45 486 q 79 385 47 385 l 92 385 q 138 439 130 385 q 171 475 146 475 q 193 445 190 475 q 179 377 193 427 l 179 374 q 184 369 180 369 q 222 499 194 394 q 266 529 249 529 q 288 502 288 522 l 288 494 q 274 426 274 437 l 279 426 q 358 581 309 581 q 382 556 382 577 q 366 477 366 491 q 415 613 377 486 q 456 635 431 635 q 475 610 475 627 l 461 540 l 461 534 l 464 534 q 529 686 506 686 l 543 689 l 545 689 q 570 665 570 686 l 553 594 l 553 589 q 591 564 555 583 q 665 621 654 621 q 686 597 682 621 l 686 586 q 594 472 686 553 q 589 456 589 463 l 591 456 q 656 510 602 461 l 673 510 q 686 488 686 503 l 686 480 q 597 369 686 447 l 589 355 l 589 350 l 594 350 q 665 407 651 407 q 686 382 682 407 l 686 372 q 597 260 686 338 l 589 247 l 589 241 l 594 241 q 665 298 651 298 q 686 274 682 298 l 686 263 q 594 149 686 230 q 589 133 589 140 l 594 133 q 656 187 650 187 l 673 187 q 686 160 686 181 q 651 117 686 144 q 643 90 643 95 q 686 38 654 38 l 703 38 q 746 84 736 38 l 746 90 q 708 144 746 116 q 703 160 703 153 l 703 168 q 724 190 704 190 q 789 136 736 190 q 798 133 795 133 q 800 136 798 136 q 708 239 800 145 q 703 255 703 248 l 703 277 q 724 298 704 298 q 789 244 736 298 q 798 241 795 241 l 800 247 l 711 345 q 703 372 703 359 l 703 382 q 724 407 707 407 q 789 353 736 407 q 798 350 795 350 q 800 353 798 353 q 703 464 800 361 l 703 491 q 722 513 705 513 q 789 458 736 513 q 798 456 795 456 l 800 461 q 708 564 800 470 q 703 581 703 573 l 703 600 q 724 621 704 621 q 792 564 735 621 q 836 594 836 589 l 819 673 q 841 689 825 689 l 846 689 q 906 578 887 689 q 925 532 917 532 q 930 537 930 532 q 914 613 914 602 q 939 635 914 635 q 998 518 981 635 q 1015 480 1000 517 l 1023 480 l 1023 483 q 1006 562 1006 551 q 1031 583 1006 579 q 1099 442 1078 583 q 1112 423 1109 423 l 1115 429 l 1101 505 l 1101 507 q 1123 529 1101 529 q 1183 423 1168 529 q 1207 372 1199 373 l 1210 372 l 1210 374 l 1194 453 q 1215 475 1200 475 q 1251 415 1251 475 q 1286 388 1268 388 l 1305 388 q 1351 429 1351 397 l 1351 442 q 1310 486 1343 486 l 1305 486 q 1251 477 1254 477 q 1223 502 1234 477 q 1297 543 1223 527 q 1310 548 1297 548 l 1310 553 l 1308 553 q 1169 524 1185 524 q 1131 556 1131 534 l 1131 564 q 1218 602 1139 580 l 1218 608 l 1215 608 q 1080 578 1090 578 q 1039 602 1059 578 l 1039 618 q 1126 659 1039 629 l 1126 662 l 1120 662 q 985 632 995 632 q 947 656 968 632 l 947 673 q 1031 711 955 688 l 1031 716 l 1028 716 q 892 686 903 686 q 849 719 863 686 q 939 765 849 740 l 936 789 q 939 811 936 792 q 863 836 918 821 q 849 857 850 849 q 892 887 861 887 q 1025 857 905 887 l 1031 865 q 952 895 962 888 l 947 903 l 947 920 q 990 941 961 941 l 1123 911 l 1126 917 q 1053 941 1126 924 q 1039 963 1039 950 l 1039 966 q 1085 996 1039 990 l 1218 966 l 1218 971 q 1139 998 1218 979 q 1128 1017 1128 1014 q 1169 1050 1139 1050 l 1172 1050 l 1310 1020 l 1313 1025 q 1234 1053 1308 1030 q 1223 1074 1223 1065 q 1251 1096 1231 1096 l 1256 1096 q 1302 1085 1299 1085 l 1308 1085 q 1351 1128 1351 1097 l 1351 1142 q 1310 1185 1343 1185 l 1294 1185 q 1251 1147 1258 1185 q 1213 1099 1251 1099 q 1194 1126 1194 1105 l 1210 1204 l 1207 1204 q 1161 1072 1198 1199 q 1126 1047 1142 1047 l 1123 1047 q 1101 1069 1101 1047 l 1115 1147 l 1115 1150 l 1112 1150 q 1074 1034 1100 1142 q 1031 993 1056 993 l 1028 993 q 1006 1015 1006 993 q 1023 1096 1023 1082 l 1017 1096 q 987 990 1010 1090 q 936 939 968 939 q 914 963 914 939 l 930 1042 l 920 1042 q 849 884 887 884 l 841 884 q 819 906 819 884 q 836 987 836 973 q 795 1009 804 1009 l 732 955 l 716 955 q 703 977 703 962 l 703 990 q 798 1107 703 1022 l 800 1112 l 800 1118 q 738 1066 787 1118 l 732 1063 l 716 1063 q 703 1085 703 1070 l 703 1101 q 800 1218 703 1124 l 800 1223 l 792 1223 q 719 1169 741 1169 q 703 1191 703 1175 l 703 1215 q 787 1310 703 1233 q 800 1329 800 1326 l 795 1332 l 732 1278 l 716 1278 q 703 1299 703 1284 l 703 1313 q 798 1432 703 1343 l 800 1438 l 795 1440 l 732 1386 l 716 1386 q 703 1413 703 1392 q 743 1468 703 1426 l 746 1487 l 746 1492 q 705 1535 738 1535 l 686 1535 q 643 1489 654 1535 m 694 1522 q 730 1492 730 1517 l 730 1484 q 697 1451 723 1451 l 692 1451 q 662 1481 662 1456 l 662 1495 q 694 1522 662 1519 m 84 1172 l 92 1172 q 125 1139 125 1164 l 125 1134 q 87 1101 125 1106 l 84 1101 q 54 1131 62 1101 l 54 1142 q 84 1172 54 1164 m 1305 1172 q 1335 1139 1327 1172 l 1335 1131 q 1299 1101 1335 1106 l 1297 1101 q 1267 1131 1274 1101 l 1267 1137 q 1305 1172 1267 1172 m 591 985 q 646 920 646 954 l 646 906 q 624 884 644 884 q 572 966 572 909 q 591 985 572 980 m 798 985 q 817 963 813 985 q 762 884 795 884 q 743 906 746 884 l 743 914 q 798 985 743 962 m 686 947 l 700 947 q 746 868 711 943 q 825 876 795 876 q 841 857 841 869 q 795 787 841 849 l 795 781 q 841 711 841 719 q 819 692 841 694 q 746 700 801 692 q 703 621 713 627 l 689 621 q 640 700 681 625 q 567 692 591 692 q 548 711 553 692 q 594 781 551 724 l 594 787 q 548 857 548 849 q 570 876 548 873 q 643 871 573 876 q 684 944 677 942 q 686 947 684 947 m 692 884 q 648 833 672 833 l 627 833 l 608 836 l 608 833 q 635 784 635 798 q 608 735 635 772 q 610 732 610 735 q 656 738 625 738 q 692 684 672 738 l 697 684 q 738 738 713 738 q 779 732 762 738 l 781 738 q 754 784 754 767 q 781 833 754 800 q 779 836 779 833 q 730 830 762 830 q 697 884 717 830 l 692 884 m 521 817 l 526 817 q 575 795 575 807 l 575 781 q 529 760 575 768 l 524 760 q 472 779 472 764 l 472 792 q 521 817 472 806 m 860 817 l 865 817 q 917 795 917 807 l 917 781 q 868 760 899 760 l 863 760 q 814 779 825 760 l 814 787 q 860 817 823 817 m 627 689 q 646 667 643 689 q 591 589 625 589 q 572 613 572 589 q 627 689 572 666 m 762 686 q 817 616 798 686 l 817 610 q 798 589 814 589 q 743 667 743 614 q 762 686 747 686 m 90 472 l 92 472 q 125 434 119 472 q 87 401 125 406 l 84 401 q 54 431 54 407 l 54 439 q 90 472 54 468 m 1297 472 l 1302 472 q 1335 439 1335 465 l 1335 434 q 1302 401 1328 401 l 1297 401 q 1264 434 1264 408 l 1264 439 q 1297 472 1271 472 m 692 122 l 700 122 q 730 92 730 117 l 730 84 q 694 52 730 56 l 692 52 q 659 84 659 58 l 659 87 q 692 122 663 122 z "},"J":{"ha":1553,"x_min":0,"x_max":1451,"o":"m 708 1606 l 732 1606 q 871 1516 817 1606 q 887 1454 887 1487 l 887 1443 q 781 1302 887 1404 q 779 1297 781 1297 q 781 1251 781 1265 l 781 1156 l 784 1156 q 884 1259 883 1251 l 884 1291 q 960 1386 884 1356 q 982 1392 970 1392 l 1001 1392 q 1107 1302 1077 1392 l 1107 1272 q 1055 1185 1107 1227 q 1015 1077 1032 1185 q 1006 1036 1010 1077 q 1142 1115 1141 1112 q 1172 1232 1156 1148 q 1270 1289 1198 1289 l 1302 1289 q 1446 1169 1406 1289 l 1449 1137 l 1449 1126 q 1337 977 1426 977 q 1199 1009 1312 977 q 1069 936 1072 936 l 1069 930 q 1202 895 1193 895 q 1272 922 1240 922 l 1289 922 q 1392 817 1373 922 l 1392 803 q 1286 700 1392 716 l 1275 700 q 1204 727 1241 700 q 1066 694 1192 727 l 1066 689 l 1204 613 q 1335 643 1318 643 q 1451 502 1419 643 l 1451 486 q 1326 336 1451 382 q 1291 331 1314 331 l 1267 331 q 1172 399 1194 331 q 1107 532 1146 532 q 1004 586 1010 586 q 1053 439 1035 439 q 1118 363 1095 439 q 1120 345 1120 360 l 1120 334 q 1028 228 1120 257 l 1006 228 q 903 298 939 228 q 879 366 895 366 q 789 450 804 450 l 789 312 q 873 214 789 296 q 895 165 895 186 l 895 155 q 776 5 895 52 q 741 0 764 0 l 724 0 q 570 122 618 0 q 567 146 567 137 l 567 168 q 670 296 567 212 l 673 301 l 673 453 l 670 453 q 564 342 579 375 l 567 328 l 567 312 q 480 214 567 243 l 450 214 q 350 317 367 214 l 350 347 q 404 429 350 387 l 442 575 q 301 486 301 502 q 250 347 275 347 q 160 320 222 320 l 146 320 q 0 458 34 320 l 0 494 q 68 621 0 569 q 111 635 91 635 q 247 602 119 635 q 385 681 345 654 q 244 716 257 716 q 171 692 208 692 l 163 692 q 60 781 90 692 l 60 811 q 146 914 60 883 l 171 914 q 247 887 203 914 q 385 925 350 917 l 385 928 q 252 1006 369 941 q 122 977 138 977 l 114 977 q 8 1107 47 977 l 8 1142 q 111 1280 8 1228 q 157 1289 144 1289 l 176 1289 q 274 1251 274 1276 q 304 1128 288 1234 q 423 1044 340 1074 q 453 1028 423 1042 l 453 1031 q 407 1172 419 1172 q 342 1267 342 1217 l 342 1289 q 429 1389 342 1360 l 456 1389 q 562 1289 562 1377 q 559 1259 562 1277 q 656 1156 568 1234 l 662 1156 l 662 1299 q 591 1378 662 1315 q 562 1440 562 1420 l 562 1462 q 675 1603 562 1556 l 708 1606 m 597 1451 q 692 1332 597 1421 q 700 1310 700 1316 l 700 1164 q 686 1093 700 1093 l 670 1093 q 521 1253 521 1222 q 524 1297 524 1281 q 456 1351 524 1341 l 442 1351 q 377 1280 391 1351 q 426 1204 377 1236 q 475 1093 452 1204 q 499 996 499 1023 q 477 977 490 977 q 285 1088 360 1021 q 250 1221 263 1110 q 174 1251 233 1251 l 160 1251 q 49 1158 80 1251 l 43 1131 q 117 1015 68 1015 l 119 1015 l 258 1044 q 453 930 316 1019 l 453 914 q 293 863 453 901 q 244 849 293 859 q 174 876 186 876 l 160 876 q 95 803 109 876 q 160 730 111 730 l 171 730 q 236 754 197 730 l 247 754 q 445 689 445 711 l 445 675 q 250 564 405 638 l 106 597 q 46 537 79 597 q 35 483 35 493 q 114 363 35 401 q 138 358 132 358 l 165 358 q 244 401 228 358 q 290 529 265 529 q 469 629 363 581 q 488 608 488 621 q 423 391 440 391 q 385 334 385 372 q 448 252 385 262 l 467 252 q 529 307 529 268 l 529 345 q 684 513 529 389 l 700 513 l 675 570 l 673 570 l 521 420 l 505 420 q 494 439 494 425 l 545 643 l 543 643 q 467 635 494 635 q 450 654 450 642 q 499 727 453 667 l 499 732 q 298 792 309 780 l 298 808 q 423 849 298 822 q 499 873 499 869 q 450 949 450 942 q 472 968 450 966 q 556 960 500 968 l 556 963 q 510 1145 510 1135 q 521 1158 515 1157 l 537 1158 l 670 1028 l 673 1028 q 719 1115 707 1115 l 732 1115 q 746 1104 734 1115 l 743 1137 l 743 1305 q 836 1413 743 1324 q 849 1446 849 1438 l 849 1454 q 719 1571 849 1549 q 602 1484 636 1571 q 597 1451 599 1456 m 722 1525 l 727 1525 q 803 1459 803 1508 l 803 1457 q 732 1381 803 1430 q 719 1378 728 1378 q 646 1457 646 1429 l 646 1462 q 722 1525 646 1513 m 684 1462 q 722 1421 684 1455 l 727 1421 q 765 1459 765 1457 q 722 1487 751 1487 l 716 1487 q 684 1462 695 1487 m 920 1283 q 922 1256 922 1269 q 773 1093 922 1228 l 757 1093 l 749 1099 l 749 1096 l 776 1034 l 779 1034 l 922 1175 l 939 1175 q 949 1156 949 1171 l 901 963 l 903 963 q 985 968 977 968 q 998 958 997 963 l 998 947 q 958 882 998 937 l 958 876 q 1137 822 1137 831 l 1137 806 q 941 746 1137 789 l 941 743 q 998 656 998 667 l 998 651 l 996 637 l 1161 545 q 1215 391 1184 509 q 1280 366 1234 366 q 1411 464 1373 366 q 1413 486 1413 475 l 1413 494 q 1354 602 1413 553 l 1340 605 l 1337 605 l 1199 575 q 1009 681 1188 575 l 1004 689 l 1004 705 q 1204 768 1004 722 q 1251 743 1211 768 q 1272 738 1261 738 l 1283 738 q 1354 800 1354 747 l 1354 819 q 1283 887 1354 872 q 1213 857 1255 887 q 1199 854 1208 854 q 1004 917 1015 905 l 1004 928 q 1069 977 1004 946 q 1196 1047 1178 1045 q 1343 1015 1320 1015 q 1411 1120 1388 1015 l 1411 1139 q 1326 1248 1411 1215 l 1289 1253 q 1207 1218 1219 1253 q 1150 1074 1181 1074 q 979 979 985 979 q 960 1001 963 979 q 1034 1218 996 1218 q 1069 1278 1055 1218 l 1069 1289 q 996 1356 1053 1356 q 920 1283 920 1341 m 993 1308 q 1023 1283 1023 1308 l 1023 1275 q 998 1251 1019 1251 l 993 1251 q 966 1278 966 1254 l 966 1283 q 993 1308 966 1304 m 450 1305 l 467 1305 q 483 1278 483 1295 q 453 1248 479 1248 q 426 1275 426 1254 l 426 1280 q 450 1305 429 1305 m 165 1207 l 182 1207 q 225 1139 218 1207 q 231 1109 231 1128 l 231 1107 q 130 1061 231 1076 q 90 1128 90 1074 l 90 1134 q 165 1207 90 1186 m 1272 1207 l 1297 1207 q 1367 1145 1345 1207 l 1367 1126 q 1324 1061 1356 1061 l 1321 1061 q 1229 1107 1229 1078 l 1229 1109 q 1272 1207 1240 1207 m 1267 1118 q 1318 1099 1272 1112 q 1329 1131 1329 1115 q 1289 1172 1329 1163 q 1267 1118 1278 1172 m 127 1131 l 127 1126 q 138 1099 131 1099 q 193 1118 183 1110 q 179 1169 179 1168 l 168 1169 q 127 1131 127 1158 m 781 985 l 765 985 q 727 1053 755 985 l 724 1053 q 684 979 694 979 l 667 979 l 570 1074 l 567 1074 q 600 941 600 947 q 575 922 591 922 l 567 922 q 510 928 553 922 l 510 925 q 548 860 548 875 q 437 817 548 837 q 391 803 435 813 l 391 800 q 548 751 543 761 q 551 741 548 745 q 510 678 547 727 q 513 675 513 678 q 570 681 531 681 q 589 659 589 672 q 551 502 551 509 l 670 618 l 686 618 q 724 551 696 618 l 727 551 q 770 627 760 627 l 779 627 q 879 534 793 627 q 898 518 897 518 l 898 521 q 863 662 863 652 q 887 681 871 681 q 941 675 895 681 l 941 678 q 890 757 890 749 q 968 789 890 781 l 1047 811 l 1047 814 q 909 860 909 846 q 906 868 909 863 q 941 925 910 882 l 941 928 q 873 922 895 922 q 857 944 857 928 q 895 1093 857 949 l 892 1093 l 781 985 m 732 963 q 776 884 743 958 q 854 892 832 892 q 868 882 867 887 l 868 871 q 825 803 868 863 l 825 800 q 868 732 868 741 l 868 722 q 849 711 864 711 q 776 719 838 711 q 732 640 743 646 l 719 640 q 678 716 707 644 q 675 719 675 716 q 597 711 617 711 q 581 730 581 718 q 627 800 581 736 l 627 803 q 581 873 581 867 q 602 892 581 890 q 675 884 613 892 q 716 963 709 956 l 732 963 m 724 898 q 684 846 706 846 q 643 849 677 846 l 643 846 q 670 800 670 812 q 643 757 670 793 l 643 754 q 689 757 675 757 q 724 705 704 757 l 727 705 q 768 757 745 757 q 808 754 802 754 l 808 757 q 781 803 781 790 q 808 846 786 819 l 808 849 q 762 846 771 846 q 727 898 746 846 l 724 898 m 1278 838 l 1294 838 q 1310 814 1310 829 q 1283 781 1308 781 l 1280 781 q 1253 808 1253 785 l 1253 814 q 1278 838 1257 838 m 168 830 l 176 830 q 201 806 201 827 q 165 773 201 773 q 144 800 144 781 l 144 806 q 168 830 147 830 m 906 640 q 955 450 955 459 q 944 437 949 438 l 928 437 l 784 578 q 741 494 780 578 l 732 488 l 727 488 l 708 491 q 711 450 711 464 l 711 296 q 618 198 711 279 q 602 160 608 182 q 703 41 602 75 q 724 38 713 38 l 741 38 q 854 133 821 38 q 857 146 857 138 l 857 163 q 760 279 857 185 q 754 296 754 288 l 754 491 q 765 510 754 506 l 781 510 q 936 339 936 385 q 974 274 936 290 q 1004 266 995 266 l 1017 266 q 1082 331 1082 281 l 1082 347 q 1017 415 1082 395 q 958 621 992 453 l 960 635 q 906 640 921 640 m 1326 559 q 1370 488 1357 559 q 1291 412 1370 433 l 1275 412 q 1226 505 1240 412 l 1226 513 q 1326 559 1226 544 m 125 548 q 220 505 220 536 l 220 496 q 163 401 207 401 l 155 401 q 81 480 92 401 l 81 486 q 125 548 81 548 m 1264 505 q 1283 450 1275 450 l 1289 450 q 1332 488 1332 464 l 1332 491 q 1316 521 1326 521 l 1264 505 m 125 510 q 119 488 119 500 l 119 475 q 149 439 126 439 l 165 439 q 179 496 179 477 q 125 510 170 502 m 1006 366 l 1023 366 q 1039 339 1039 357 q 1006 309 1039 313 q 982 334 982 313 l 982 336 q 1006 366 982 366 m 456 353 l 464 353 q 488 328 488 349 l 488 326 q 458 296 484 296 q 431 328 435 296 q 456 353 435 353 m 735 225 q 811 146 811 178 q 732 81 789 81 q 651 146 679 81 l 651 155 q 719 222 651 170 l 735 225 m 727 184 q 692 149 692 151 l 692 146 q 730 119 712 119 l 738 119 q 770 152 760 119 q 727 184 734 184 z "},"K":{"ha":1463,"x_min":0,"x_max":1362,"o":"m 670 1603 l 684 1603 q 830 1478 727 1603 q 841 1449 841 1468 l 841 1443 q 741 1310 841 1407 l 741 1283 l 743 1283 q 776 1294 762 1294 l 784 1294 q 819 1283 794 1294 q 985 1408 949 1407 l 993 1408 q 1050 1351 1050 1395 q 1015 1145 1050 1337 q 1042 1080 1042 1128 q 1088 1153 1088 1099 q 1158 1259 1104 1259 l 1164 1259 q 1351 1196 1351 1223 q 1362 1161 1362 1179 q 1280 968 1327 968 l 1264 968 q 1139 996 1249 968 q 1104 977 1128 996 l 1104 974 q 1139 914 1132 974 l 1324 846 q 1345 803 1345 825 l 1345 795 q 1232 713 1345 741 q 1142 673 1149 682 q 1101 627 1142 653 q 1139 608 1131 608 q 1272 637 1264 637 q 1345 513 1322 637 q 1362 442 1362 464 q 1264 369 1362 386 q 1164 345 1196 345 l 1161 345 q 1085 480 1099 345 q 1047 521 1067 515 l 1042 524 l 1042 505 q 1015 456 1042 482 q 1050 250 1050 274 q 998 198 1040 198 l 987 198 q 819 320 946 198 q 787 312 793 312 l 773 312 q 741 323 760 312 l 738 317 l 738 307 q 811 220 738 290 q 841 160 841 182 l 841 157 q 708 5 841 106 q 686 0 698 0 l 673 0 q 567 87 632 0 q 521 149 521 119 l 521 165 q 621 293 521 203 l 621 323 l 616 323 q 586 312 602 312 l 575 312 q 543 320 568 312 l 540 320 q 396 203 404 203 q 374 198 386 198 l 361 198 q 315 252 315 198 q 347 456 315 279 q 323 499 323 473 l 323 521 l 320 526 q 271 442 271 507 q 203 345 248 345 l 198 345 q 0 429 0 377 l 0 445 q 76 635 31 635 l 90 637 l 225 608 q 258 627 258 622 q 220 675 220 646 q 43 743 123 716 q 14 808 14 764 q 109 873 14 849 q 220 911 212 911 l 220 928 q 258 979 220 958 q 220 996 228 996 q 98 968 111 968 l 81 968 q 11 1104 32 968 q 0 1169 0 1133 l 0 1172 q 92 1234 0 1221 q 198 1259 167 1259 l 201 1259 q 277 1126 256 1259 q 323 1080 277 1098 l 323 1112 q 347 1147 323 1129 q 312 1359 328 1251 q 366 1408 312 1394 l 374 1408 q 532 1289 411 1408 q 545 1283 543 1283 q 578 1294 564 1294 l 581 1294 q 618 1278 597 1294 l 624 1278 l 624 1297 q 583 1348 624 1318 q 521 1440 521 1406 l 521 1454 q 648 1598 521 1492 q 670 1603 659 1603 m 556 1449 q 656 1329 556 1422 l 659 1313 l 659 1242 q 637 1221 658 1221 q 583 1256 627 1223 l 581 1256 q 540 1240 543 1240 q 391 1364 530 1240 l 372 1370 l 363 1370 q 350 1356 360 1370 q 385 1137 385 1149 q 358 1101 385 1133 q 366 1050 366 1062 q 345 1031 357 1031 q 241 1118 241 1062 q 203 1221 218 1221 l 198 1221 q 38 1175 38 1188 l 38 1164 q 87 1004 64 1004 q 225 1034 218 1034 q 320 982 258 1027 l 320 966 q 260 936 320 958 l 258 930 l 258 911 q 171 857 258 876 q 52 806 52 817 l 52 803 q 133 754 52 766 q 247 705 170 736 q 263 665 254 698 q 320 637 320 650 l 320 624 q 225 570 283 587 l 220 570 l 90 600 q 46 483 68 600 q 38 442 38 463 l 38 431 q 176 385 38 418 q 201 382 186 382 q 244 505 223 382 q 326 570 263 547 q 345 575 336 575 q 363 548 363 568 q 358 510 363 539 q 380 477 358 494 q 385 461 385 469 q 353 250 353 270 l 355 236 l 369 236 q 456 301 392 236 q 545 363 529 363 q 578 350 570 350 l 589 350 l 629 380 l 646 380 q 659 342 657 380 l 659 288 q 572 193 659 272 q 556 157 559 171 q 629 73 556 145 q 678 38 650 38 l 684 38 q 798 141 706 38 l 803 160 q 708 274 803 178 q 703 290 703 283 l 703 361 q 716 382 703 376 l 724 382 q 770 350 733 382 l 784 350 q 822 363 786 350 q 930 271 830 363 q 987 236 974 236 l 1001 236 q 1012 255 1012 241 l 977 467 q 1004 502 977 473 q 996 556 996 553 q 1017 575 996 573 q 1115 499 1115 538 q 1142 396 1122 479 q 1164 382 1153 382 q 1321 429 1204 382 l 1324 448 q 1272 600 1288 600 q 1134 570 1145 570 q 1042 621 1112 570 l 1042 637 q 1101 673 1044 646 q 1177 730 1101 715 q 1299 781 1291 774 q 1308 798 1308 784 l 1308 800 q 1251 833 1308 821 q 1101 901 1101 882 q 1082 944 1101 944 q 1042 966 1042 954 l 1042 974 q 1107 1023 1042 992 q 1139 1034 1117 1034 q 1270 1004 1146 1034 q 1324 1166 1293 1004 q 1251 1199 1324 1187 q 1161 1221 1182 1221 q 1131 1169 1137 1221 q 1090 1069 1112 1069 q 1017 1028 1074 1048 q 998 1050 1001 1028 q 1004 1099 1004 1097 q 977 1142 977 1129 q 1012 1354 1012 1343 q 996 1370 1010 1363 q 827 1242 966 1370 l 817 1240 q 781 1256 788 1256 l 779 1256 q 735 1223 762 1256 q 724 1221 730 1221 l 716 1221 q 703 1256 703 1225 l 703 1316 q 779 1405 703 1331 q 803 1446 803 1431 q 722 1538 803 1461 q 681 1565 699 1565 l 675 1565 q 559 1454 646 1563 q 556 1449 559 1449 m 670 1500 l 681 1500 q 738 1449 699 1500 l 738 1443 q 689 1389 738 1426 q 681 1386 686 1389 q 624 1438 665 1386 l 624 1443 q 670 1500 624 1458 m 670 1446 l 670 1440 q 678 1432 670 1436 l 684 1432 q 692 1449 692 1435 l 681 1457 q 670 1446 677 1457 m 426 1253 l 437 1253 q 510 1194 472 1242 q 529 1104 529 1147 q 510 1088 522 1088 q 415 1229 415 1125 l 415 1240 q 426 1253 420 1252 m 925 1253 l 936 1253 q 947 1237 947 1248 q 852 1088 947 1134 q 833 1107 833 1093 q 868 1210 845 1210 q 925 1253 910 1253 m 456 1194 q 483 1150 456 1171 l 486 1150 q 458 1194 486 1173 l 456 1194 m 879 1156 l 882 1156 q 901 1188 899 1171 q 879 1156 879 1177 m 581 1183 l 597 1183 q 656 1104 656 1138 l 656 990 q 646 971 656 976 l 637 971 q 570 1169 593 971 q 581 1183 575 1181 m 765 1183 l 781 1183 q 792 1164 792 1179 q 754 1004 772 1034 q 722 968 742 968 q 705 982 711 972 l 705 1115 q 765 1183 705 1131 m 168 1166 q 201 1090 188 1166 q 125 1058 201 1071 q 92 1134 105 1058 q 168 1166 92 1155 m 1199 1166 q 1270 1131 1270 1155 q 1234 1058 1259 1058 l 1232 1058 q 1161 1096 1161 1068 q 1196 1166 1169 1166 l 1199 1166 m 133 1118 l 141 1099 l 160 1107 l 152 1126 q 133 1118 141 1123 m 1204 1126 l 1202 1107 l 1202 1104 q 1223 1099 1219 1099 q 1229 1120 1229 1113 q 1204 1126 1211 1126 m 423 1074 l 439 1074 q 597 914 597 957 q 575 895 597 897 q 415 1028 415 958 l 412 1061 q 423 1074 418 1073 m 922 1074 l 939 1074 q 949 1055 949 1070 q 814 909 949 958 q 784 895 808 901 q 765 917 768 895 q 922 1074 765 960 m 464 1004 l 464 1001 q 499 977 489 977 q 467 1004 499 981 l 464 1004 m 857 974 l 860 974 q 895 1004 882 985 l 892 1004 q 857 974 860 981 m 963 930 q 1042 901 1042 912 l 1042 887 q 882 827 1042 873 l 844 827 q 825 838 829 827 l 825 846 q 876 887 825 864 q 963 930 941 930 m 401 928 q 534 857 427 928 q 537 846 537 852 l 537 838 q 518 827 533 827 l 477 827 q 320 887 320 873 l 320 901 q 401 928 320 915 m 1082 841 q 1177 803 1177 817 l 1177 789 q 1082 751 1177 775 q 993 789 993 774 l 993 803 q 1082 841 993 817 m 274 838 l 279 838 q 372 795 372 819 q 277 751 372 774 l 274 751 q 184 789 184 776 l 184 803 q 274 838 184 817 m 1063 798 q 1085 789 1065 789 q 1101 798 1101 792 q 1082 803 1090 803 l 1063 798 m 260 798 l 260 792 q 277 789 275 789 q 293 798 293 792 l 274 800 l 260 798 m 505 776 l 518 776 q 537 765 533 776 l 537 757 q 464 705 537 738 q 401 673 418 673 q 339 697 339 686 l 339 711 q 505 776 339 725 m 844 776 l 857 776 q 1020 711 1020 724 l 1020 697 q 955 673 1020 684 q 827 746 909 692 q 825 757 825 751 l 825 765 q 844 776 829 776 m 578 708 q 597 686 593 708 q 439 529 597 650 l 423 529 q 412 545 412 534 q 502 673 412 640 q 578 708 569 708 m 784 708 q 933 610 933 641 q 949 543 943 602 q 939 529 944 530 l 922 529 q 762 692 762 648 q 784 708 768 708 m 716 635 l 724 635 q 792 439 768 635 q 781 420 792 425 l 765 420 q 705 496 705 471 l 705 616 q 716 635 705 631 m 464 602 l 464 600 q 502 629 471 601 l 499 629 q 464 602 485 623 m 637 632 l 646 632 q 656 613 656 628 l 656 496 q 594 420 656 474 l 581 420 q 570 439 570 425 q 637 632 593 632 m 868 621 q 892 602 884 605 l 892 605 l 871 621 l 868 621 m 127 545 q 201 515 201 531 l 201 510 q 163 437 190 437 q 92 469 92 448 l 92 472 q 127 545 105 545 m 1237 545 q 1270 469 1257 545 q 1194 437 1270 450 q 1161 513 1174 437 q 1237 545 1161 532 m 852 515 q 947 363 947 475 q 928 347 940 347 q 833 488 833 384 l 833 499 q 852 515 840 515 m 507 513 l 518 513 q 529 496 529 507 q 434 347 529 389 q 415 366 415 353 q 448 472 423 463 q 507 513 493 513 m 1202 496 l 1210 477 q 1226 483 1221 483 l 1226 488 q 1221 505 1226 496 l 1202 496 m 138 502 l 136 488 l 136 486 q 152 477 136 481 l 160 496 q 144 502 151 502 l 138 502 m 743 502 l 743 496 l 746 496 l 746 502 l 743 502 m 458 412 l 461 412 q 483 453 483 429 q 458 412 458 435 m 876 453 l 876 450 q 903 407 876 424 l 903 410 q 876 453 903 433 m 681 217 q 738 165 697 217 l 738 160 q 686 103 738 143 q 678 100 684 103 q 624 165 624 130 q 681 217 659 217 m 678 174 q 667 160 667 161 l 667 157 q 678 146 667 153 l 681 146 q 692 165 692 151 l 678 174 z "},"L":{"ha":1675,"x_min":0,"x_max":1573,"o":"m 784 1573 l 792 1573 q 873 1514 848 1573 l 876 1497 l 876 1478 l 890 1478 q 930 1438 930 1474 l 930 1435 q 887 1373 930 1417 l 887 1370 q 930 1326 930 1370 q 887 1264 930 1308 l 887 1261 l 895 1261 q 930 1223 926 1261 l 930 1218 q 890 1158 930 1199 l 890 1156 q 930 1131 911 1156 l 947 1131 q 977 1120 962 1131 l 979 1126 l 979 1166 q 1017 1210 987 1210 l 1025 1210 q 1053 1196 1037 1210 l 1055 1202 l 1055 1242 q 1093 1286 1063 1286 l 1099 1286 q 1128 1275 1114 1286 l 1131 1280 l 1131 1318 q 1169 1362 1139 1362 l 1177 1362 q 1210 1340 1210 1354 l 1213 1340 q 1272 1370 1248 1370 l 1291 1370 q 1367 1302 1343 1370 q 1370 1283 1370 1299 l 1370 1280 q 1340 1215 1370 1244 l 1340 1213 q 1359 1183 1359 1198 l 1359 1175 q 1316 1131 1354 1131 l 1272 1131 l 1272 1128 q 1283 1099 1283 1112 l 1283 1093 q 1240 1055 1283 1063 l 1196 1055 l 1196 1053 q 1207 1023 1207 1036 l 1207 1017 q 1166 979 1207 985 l 1126 979 q 1120 974 1120 979 q 1131 947 1128 974 l 1131 936 l 1128 930 q 1156 895 1156 916 l 1158 895 q 1221 930 1200 930 l 1223 930 q 1264 895 1264 925 l 1267 895 q 1329 930 1309 930 l 1332 930 q 1370 890 1370 930 l 1373 890 q 1438 930 1413 930 l 1443 930 q 1478 890 1473 930 l 1478 882 l 1476 876 q 1573 806 1548 876 l 1573 776 q 1495 697 1554 697 l 1478 697 l 1478 684 q 1438 643 1474 643 l 1432 643 q 1373 684 1413 643 l 1370 684 q 1335 643 1364 643 l 1329 643 q 1264 684 1305 643 l 1261 684 q 1218 643 1261 643 q 1158 686 1202 643 l 1156 686 q 1131 648 1156 658 l 1131 624 q 1120 594 1131 619 l 1166 594 q 1210 553 1210 582 l 1210 551 q 1196 521 1210 541 l 1196 518 l 1240 518 q 1286 480 1286 511 l 1286 472 q 1275 448 1286 462 l 1275 442 l 1316 442 q 1362 396 1362 429 q 1340 361 1362 382 l 1340 358 q 1370 296 1370 322 l 1370 290 q 1280 203 1370 218 l 1278 203 q 1210 233 1244 203 q 1180 214 1196 214 l 1166 214 q 1131 250 1131 223 l 1131 298 q 1126 304 1131 304 q 1101 290 1126 296 l 1096 290 q 1055 331 1055 295 l 1055 374 q 1050 380 1055 380 q 1025 366 1050 372 l 1020 366 q 979 401 979 372 l 979 458 l 977 458 q 947 442 959 442 l 925 442 q 892 418 925 428 l 892 415 q 930 355 930 373 l 930 353 q 890 312 925 312 l 890 309 q 930 250 930 269 l 930 241 q 890 203 930 212 l 890 201 q 930 136 930 158 l 930 133 q 892 95 920 95 l 876 95 l 876 79 q 789 0 858 0 l 784 0 q 697 98 708 0 l 692 95 l 681 95 q 643 130 643 101 l 643 138 q 684 201 643 161 l 684 203 q 643 241 643 207 l 643 244 q 684 309 643 269 l 684 312 l 675 312 q 643 345 643 319 l 643 353 q 681 415 643 376 l 681 418 q 643 445 656 418 l 629 442 l 627 442 q 597 453 611 442 l 594 453 l 594 410 q 553 366 581 366 l 551 366 q 521 377 537 366 l 518 372 l 518 334 q 477 290 505 290 l 475 290 q 445 301 459 290 l 442 296 l 442 258 q 401 214 429 214 l 399 214 q 361 233 379 214 q 301 203 330 204 l 282 203 q 206 274 231 203 l 206 309 q 233 361 206 332 q 212 396 212 382 l 212 404 q 250 442 222 442 l 296 442 q 301 448 301 442 q 288 472 293 448 l 288 480 q 326 518 298 518 l 374 518 l 374 524 q 366 543 366 534 l 366 553 q 404 594 370 594 l 456 594 l 456 597 q 442 624 442 614 l 442 643 q 418 681 418 667 l 415 681 q 350 643 372 643 l 347 643 q 312 686 316 643 l 309 686 q 247 643 267 643 l 239 643 q 203 686 208 643 l 201 686 q 136 643 160 643 l 133 643 q 95 681 95 654 l 95 697 l 81 697 q 0 781 11 697 l 0 798 q 98 876 15 876 l 95 882 l 95 892 q 130 930 101 930 l 141 930 q 201 887 158 930 l 203 887 l 203 898 q 236 930 210 930 l 244 930 q 309 887 269 930 l 312 887 l 312 895 q 347 930 315 930 l 355 930 q 415 890 374 930 l 418 890 q 445 930 418 918 l 442 936 l 442 952 q 453 977 442 962 l 448 979 l 407 979 q 366 1015 366 985 l 366 1023 q 377 1053 366 1038 l 372 1055 l 334 1055 q 290 1093 290 1063 l 290 1099 q 301 1128 290 1114 l 296 1131 l 258 1131 q 214 1169 214 1139 l 214 1177 q 233 1215 214 1196 q 203 1278 203 1238 l 203 1291 q 277 1370 203 1345 l 298 1370 q 358 1340 326 1370 l 361 1340 q 399 1362 380 1362 q 442 1324 442 1354 l 442 1275 l 445 1275 q 475 1286 461 1286 q 518 1242 518 1280 l 518 1204 q 524 1199 519 1199 q 545 1207 526 1207 l 553 1207 q 594 1172 594 1202 l 594 1123 q 600 1118 595 1118 q 624 1131 600 1126 l 637 1131 l 643 1128 q 681 1156 656 1156 l 681 1158 q 643 1218 643 1200 l 643 1229 q 681 1264 643 1258 l 681 1267 q 643 1326 643 1309 l 643 1335 q 678 1370 646 1370 l 686 1370 l 686 1373 q 643 1438 643 1414 l 643 1440 q 678 1478 649 1478 l 692 1478 l 697 1476 l 700 1481 l 700 1497 q 784 1573 715 1573 m 735 1487 q 768 1435 735 1463 q 779 1413 774 1435 l 779 1405 q 760 1383 776 1383 q 686 1440 747 1383 q 681 1438 681 1440 q 765 1348 681 1432 q 779 1310 779 1324 l 779 1299 q 757 1275 774 1275 q 686 1332 748 1275 q 681 1329 681 1332 q 776 1226 682 1317 l 779 1210 l 779 1191 q 757 1169 779 1169 q 686 1226 748 1169 l 681 1226 q 773 1120 681 1208 q 779 1104 779 1112 l 779 1082 q 760 1061 776 1061 q 686 1118 747 1061 l 681 1118 q 765 1023 681 1100 q 776 1001 776 1013 l 776 977 q 754 955 774 955 q 708 1020 726 955 q 678 1006 678 1013 q 694 974 694 985 l 694 944 q 673 922 693 922 q 637 963 637 941 l 637 979 q 640 1004 637 989 q 635 1020 635 1013 l 635 1074 l 632 1093 l 629 1093 q 621 1072 621 1092 l 621 1017 q 600 996 621 996 l 597 996 q 559 1044 559 1009 l 559 1156 l 556 1169 l 551 1169 q 545 1164 545 1168 l 545 1093 q 524 1072 545 1072 l 521 1072 q 483 1120 483 1085 l 483 1226 q 475 1248 483 1246 q 469 1232 469 1239 l 469 1169 q 448 1147 469 1147 l 445 1147 q 407 1188 407 1162 l 407 1302 q 399 1324 407 1322 l 393 1316 l 393 1251 q 366 1223 390 1223 q 342 1253 342 1232 l 342 1270 q 293 1332 342 1332 l 288 1332 q 239 1283 239 1320 q 296 1229 239 1237 q 326 1232 311 1232 q 350 1202 350 1223 q 326 1180 343 1180 l 258 1180 q 252 1175 252 1179 q 274 1166 254 1166 l 385 1166 q 426 1123 419 1166 q 410 1104 421 1111 l 342 1104 l 328 1101 l 328 1099 q 350 1090 330 1090 l 461 1090 q 502 1053 502 1080 q 477 1028 498 1028 l 418 1028 l 404 1025 l 404 1017 l 423 1015 l 537 1015 q 578 977 563 1015 l 578 974 q 556 952 578 952 l 494 952 l 480 949 l 480 947 q 502 939 482 939 q 616 936 522 939 q 651 903 634 936 l 651 892 q 629 879 644 879 l 605 879 q 567 898 595 879 q 556 868 556 882 q 594 854 556 865 q 618 814 618 830 q 597 798 613 798 l 578 798 q 472 887 559 798 q 456 892 463 892 l 456 890 q 510 819 510 831 l 510 808 q 488 795 503 795 l 477 795 q 369 882 444 795 q 350 892 357 892 l 350 887 q 404 825 397 834 l 404 808 q 382 795 397 795 l 366 795 q 252 890 340 795 l 241 892 l 241 887 q 296 825 289 834 l 296 808 q 274 795 289 795 l 258 795 q 144 890 229 795 l 138 892 l 133 892 q 184 830 133 880 l 187 825 l 187 808 q 160 795 181 795 q 119 825 144 795 q 95 836 105 836 l 81 836 q 35 787 43 836 q 76 735 45 735 l 92 735 q 144 773 113 735 q 160 779 153 779 l 168 779 q 190 760 190 776 q 138 697 190 745 q 133 684 133 688 l 138 681 q 225 765 142 681 q 260 779 245 779 l 274 779 q 296 765 289 779 l 296 749 q 241 684 241 690 l 241 681 l 244 681 q 328 760 248 681 q 366 779 352 779 l 382 779 q 404 765 397 779 l 404 757 q 353 694 404 744 l 350 689 l 350 681 l 353 681 q 461 779 370 693 l 491 779 q 513 760 513 776 q 461 697 513 745 q 456 684 456 688 l 461 681 q 548 762 548 757 q 575 776 566 776 l 605 776 q 618 754 618 769 q 559 713 597 713 q 556 705 556 708 l 564 681 l 567 681 q 608 694 598 694 l 629 694 q 651 675 651 692 q 613 637 651 650 q 488 635 527 635 q 480 632 483 632 l 480 629 q 502 621 482 621 l 556 621 q 581 597 581 618 q 529 559 560 559 l 418 559 l 404 556 l 404 548 l 418 545 l 480 545 q 502 524 502 545 q 458 483 502 495 l 342 483 q 326 475 326 481 q 347 469 336 469 l 404 469 q 426 448 426 469 q 380 407 426 416 l 266 407 q 250 399 250 406 q 266 393 258 393 l 323 393 q 350 366 350 390 q 323 345 342 345 l 290 345 q 241 293 248 345 q 288 241 250 241 l 296 241 q 342 288 342 249 l 342 323 q 372 350 342 345 q 393 320 391 350 l 393 260 q 399 255 394 255 q 407 285 407 255 l 407 388 q 445 426 418 426 q 469 401 469 422 l 469 336 q 475 331 470 331 q 483 353 483 333 l 483 458 q 521 502 491 502 q 545 477 545 498 l 545 412 q 551 407 546 407 q 559 429 559 409 l 559 537 q 589 578 559 555 l 600 578 q 621 551 621 578 l 621 494 l 624 480 q 635 540 635 480 q 637 589 637 578 l 635 602 q 675 651 644 651 q 694 629 692 651 l 694 610 q 678 572 694 595 l 678 564 q 708 556 699 556 q 757 618 724 618 q 776 597 773 618 l 776 578 q 694 483 776 557 l 681 464 l 681 456 l 684 456 q 749 510 686 456 q 757 513 751 510 q 779 488 774 513 l 779 480 q 689 369 779 447 l 681 355 l 681 350 l 686 350 q 757 407 743 407 q 779 382 774 407 l 779 372 q 689 260 779 338 l 681 247 l 681 241 l 686 241 q 757 298 743 298 q 779 274 774 298 l 779 263 q 686 149 779 230 q 681 133 681 140 l 686 133 q 757 190 743 190 q 779 160 776 190 q 743 117 779 144 l 735 90 q 779 38 747 38 l 795 38 q 838 84 829 38 l 838 90 q 800 144 838 117 q 795 160 795 153 l 795 168 q 817 190 796 190 q 882 136 828 190 q 890 133 887 133 q 892 136 890 136 q 800 239 892 145 q 795 255 795 248 l 795 277 q 817 298 796 298 q 882 244 828 298 q 890 241 887 241 l 892 247 l 803 345 q 795 372 795 359 l 795 382 q 817 407 799 407 q 882 353 828 407 q 890 350 887 350 q 892 353 890 353 q 795 464 892 361 l 795 491 q 817 513 796 513 q 882 458 828 512 q 890 456 887 456 l 892 461 q 800 564 892 467 l 798 581 l 798 597 q 819 618 799 618 q 863 556 847 618 q 895 570 882 556 q 879 605 879 595 l 879 616 q 892 651 879 647 l 909 651 q 936 613 936 631 l 936 581 q 941 480 936 509 q 952 513 952 480 l 952 556 q 974 581 956 581 q 1015 534 1015 565 l 1015 418 l 1017 404 l 1020 404 q 1028 426 1028 406 l 1028 480 q 1050 502 1028 502 l 1053 502 q 1090 458 1090 488 l 1090 347 l 1093 328 l 1096 328 q 1104 350 1104 330 l 1104 401 q 1131 426 1104 422 q 1166 382 1166 410 l 1166 266 l 1169 252 l 1177 252 l 1180 271 l 1180 326 q 1204 350 1184 350 q 1232 320 1226 350 l 1232 312 q 1229 282 1232 300 q 1272 241 1243 241 l 1286 241 q 1332 285 1332 256 l 1332 290 q 1280 345 1332 334 l 1251 345 q 1223 369 1223 349 q 1248 393 1227 393 l 1308 393 l 1321 396 l 1321 401 q 1297 407 1303 407 l 1185 407 q 1147 445 1147 418 l 1147 448 q 1169 469 1147 469 l 1232 469 q 1248 477 1246 469 q 1218 483 1237 483 l 1112 483 q 1072 529 1079 483 q 1093 545 1077 545 l 1150 545 l 1169 548 l 1169 551 q 1147 559 1168 559 l 1036 559 q 996 605 1003 559 q 1017 621 1001 621 l 1074 621 l 1093 624 l 1093 632 l 1077 635 q 936 651 936 635 q 922 675 927 661 q 944 694 922 692 l 968 694 q 1006 681 971 694 l 1009 681 q 1017 711 1017 702 q 955 754 979 711 q 977 776 957 776 l 996 776 q 1096 689 1017 776 q 1115 681 1112 681 l 1118 686 q 1061 757 1061 748 q 1085 779 1061 774 l 1107 779 q 1207 692 1125 779 l 1218 684 l 1223 684 l 1223 686 q 1169 757 1169 749 q 1194 779 1169 774 l 1202 779 q 1313 689 1235 779 l 1326 681 l 1332 681 l 1332 686 q 1275 757 1275 748 q 1299 779 1275 774 l 1310 779 q 1424 686 1343 779 q 1440 681 1433 681 l 1440 686 q 1383 757 1383 748 q 1413 779 1383 776 q 1454 746 1426 779 q 1478 735 1468 735 l 1489 735 q 1535 781 1535 743 l 1535 789 q 1489 836 1528 836 l 1476 836 q 1427 798 1459 836 l 1413 795 l 1405 795 q 1383 814 1383 797 q 1440 887 1383 827 l 1440 890 l 1435 892 q 1329 798 1335 798 l 1310 795 l 1299 795 q 1275 819 1275 798 q 1332 887 1275 829 q 1329 892 1332 892 q 1218 795 1317 892 l 1191 795 q 1169 814 1169 797 q 1226 890 1169 831 l 1226 892 q 1109 795 1206 892 l 1082 795 q 1061 817 1061 796 q 1115 884 1061 829 q 1118 892 1118 890 l 1109 892 q 1012 800 1103 892 l 998 798 l 977 798 q 955 819 955 799 q 1017 863 974 863 l 1017 868 q 1004 895 1016 895 q 966 879 980 879 l 944 879 q 922 901 922 880 q 960 936 937 936 q 1080 939 1048 939 l 1093 941 l 1093 949 l 1074 952 l 1017 952 q 996 974 996 952 l 996 977 q 1042 1015 996 1004 l 1150 1015 l 1169 1017 l 1169 1025 l 1150 1028 l 1093 1028 q 1072 1050 1072 1028 l 1072 1053 q 1112 1090 1086 1090 l 1223 1090 q 1245 1099 1244 1090 l 1245 1101 l 1226 1104 l 1172 1104 q 1147 1128 1147 1108 q 1188 1166 1162 1166 l 1299 1166 q 1321 1175 1320 1166 l 1321 1177 l 1308 1180 l 1248 1180 q 1223 1204 1223 1183 q 1261 1234 1223 1227 q 1289 1232 1285 1232 q 1332 1275 1332 1244 l 1332 1289 q 1286 1332 1332 1323 l 1275 1332 q 1229 1283 1242 1332 l 1232 1267 l 1232 1261 q 1202 1223 1227 1223 q 1180 1248 1184 1223 l 1180 1305 l 1177 1324 l 1175 1324 q 1166 1302 1166 1322 l 1166 1188 q 1126 1147 1166 1161 q 1104 1172 1108 1147 l 1104 1229 l 1101 1248 l 1099 1248 q 1090 1232 1090 1245 l 1090 1112 q 1050 1072 1084 1078 q 1028 1093 1028 1072 l 1028 1150 q 1020 1172 1028 1171 q 1015 1156 1015 1163 l 1015 1036 q 974 996 1008 1002 q 952 1017 952 996 l 952 1080 l 949 1093 l 944 1093 q 939 1088 939 1093 l 939 1085 q 922 936 939 936 q 898 922 912 927 q 879 944 882 922 l 879 966 q 892 1006 879 975 q 865 1017 892 1014 q 852 982 861 1017 q 814 955 831 955 q 798 968 803 959 l 798 998 q 838 1050 798 1015 l 892 1112 l 892 1118 q 830 1066 880 1118 l 825 1063 l 808 1063 q 795 1085 795 1070 l 795 1101 q 892 1218 795 1124 l 892 1223 l 884 1223 q 811 1169 833 1169 q 795 1191 795 1175 l 795 1215 q 879 1310 795 1233 q 892 1329 892 1326 l 887 1332 l 825 1278 l 808 1278 q 795 1299 795 1284 l 795 1313 q 890 1432 795 1343 l 892 1438 l 887 1440 l 825 1386 l 808 1386 q 795 1413 795 1392 q 836 1468 795 1426 l 838 1487 l 838 1492 q 798 1535 830 1535 l 781 1535 q 735 1487 743 1535 m 787 1522 q 822 1492 822 1517 l 822 1484 q 789 1451 815 1451 l 784 1451 q 754 1481 754 1456 l 754 1495 q 787 1522 754 1519 m 288 1316 l 290 1316 q 326 1286 326 1311 l 326 1283 q 290 1245 319 1245 q 255 1278 255 1249 l 255 1283 q 288 1316 262 1316 m 1278 1316 l 1280 1316 q 1318 1283 1318 1311 q 1280 1245 1318 1245 l 1278 1245 q 1248 1280 1253 1245 l 1248 1286 q 1278 1316 1253 1316 m 673 1061 l 670 1055 l 670 1050 l 675 1050 q 681 1055 681 1050 l 673 1061 m 892 1053 l 892 1050 q 901 1047 895 1050 l 903 1053 l 903 1061 l 901 1061 q 892 1053 897 1061 m 515 903 l 515 895 l 524 895 l 524 903 l 515 903 m 1053 903 l 1050 898 l 1050 895 l 1053 895 q 1058 901 1058 895 l 1053 903 m 84 822 l 90 822 q 122 784 119 822 q 90 751 115 751 l 87 751 q 52 784 52 755 l 52 787 q 84 822 56 822 m 1484 822 l 1489 822 q 1522 784 1516 822 q 1489 751 1515 751 l 1481 751 q 1451 781 1451 756 l 1451 789 q 1484 822 1458 822 m 513 673 l 513 670 l 526 670 l 524 684 q 513 673 519 684 m 1047 675 q 1053 670 1048 670 l 1055 670 q 1061 675 1061 670 l 1053 681 q 1047 675 1047 680 m 673 526 l 670 521 q 675 515 671 515 l 678 521 q 673 526 678 526 m 895 526 l 892 521 l 898 518 l 901 518 l 901 521 q 895 526 901 526 m 288 326 l 290 326 q 328 293 328 321 q 288 255 328 255 q 258 288 265 255 l 258 296 q 288 326 262 326 m 1280 326 q 1316 288 1316 326 q 1280 255 1316 264 q 1245 288 1245 259 l 1245 290 q 1280 326 1248 326 m 784 122 l 792 122 q 822 92 822 117 l 822 84 q 787 52 822 56 l 784 52 q 751 84 751 58 l 751 87 q 784 122 755 122 z "},"M":{"ha":1605,"x_min":0,"x_max":1503,"o":"m 624 1595 l 865 1595 q 922 1549 922 1585 l 922 1541 q 876 1470 922 1514 q 920 1427 920 1457 l 920 1419 q 871 1370 911 1370 l 811 1370 q 806 1364 806 1369 l 806 1240 q 852 1275 824 1275 l 863 1275 q 898 1248 884 1275 l 901 1248 q 944 1313 927 1274 q 933 1411 933 1392 l 933 1416 q 977 1462 939 1462 l 985 1462 q 1036 1416 1014 1462 q 1072 1362 1072 1389 q 1120 1364 1109 1364 q 1191 1351 1148 1354 q 1213 1310 1213 1334 l 1213 1299 q 1112 1240 1213 1263 q 1061 1161 1061 1198 q 1055 1150 1055 1161 l 1074 1150 q 1115 1107 1107 1150 l 1115 1101 q 1012 1034 1115 1064 q 974 990 987 1023 l 974 987 l 977 987 l 1221 1128 l 1221 1134 q 1185 1210 1185 1186 l 1185 1223 q 1221 1259 1194 1259 l 1237 1259 q 1267 1240 1267 1252 l 1270 1240 q 1289 1297 1274 1240 q 1332 1324 1308 1324 l 1340 1324 q 1430 1218 1376 1324 q 1503 1069 1503 1095 l 1503 1063 q 1454 1020 1503 1029 l 1451 1020 q 1389 1034 1436 1020 q 1394 1009 1394 1016 l 1394 1006 q 1345 963 1381 963 q 1272 1042 1307 963 q 1025 903 1259 1040 l 1025 901 l 1055 901 q 1150 966 1070 901 l 1169 968 l 1180 968 q 1221 922 1213 968 q 1210 890 1221 912 l 1213 890 q 1242 887 1231 887 l 1280 887 q 1364 947 1301 887 q 1394 955 1385 955 l 1400 955 q 1443 909 1436 955 l 1443 906 q 1421 830 1426 871 q 1400 795 1400 808 q 1424 749 1423 772 q 1443 689 1424 733 l 1443 681 q 1400 643 1443 650 l 1394 643 q 1291 708 1371 643 q 1280 711 1286 711 q 1213 708 1270 711 q 1210 705 1213 705 q 1221 675 1221 689 l 1221 670 q 1177 627 1208 627 l 1172 627 q 1063 697 1143 627 l 1034 697 l 1034 694 q 1270 556 1051 680 q 1345 632 1310 632 l 1354 632 q 1394 591 1394 622 l 1394 586 q 1389 562 1394 579 l 1392 562 q 1446 575 1438 575 l 1462 575 q 1503 532 1495 575 l 1503 529 q 1367 282 1503 494 q 1340 271 1348 271 l 1332 271 q 1272 355 1288 271 l 1270 355 q 1237 336 1253 336 l 1226 336 q 1185 377 1185 341 l 1185 388 q 1221 467 1185 405 l 1221 469 q 974 608 979 608 l 974 605 q 1023 564 993 564 q 1115 491 1115 534 l 1115 488 q 1072 445 1109 445 l 1055 445 l 1055 442 q 1126 361 1087 361 q 1213 290 1213 334 l 1213 288 q 1147 239 1213 248 q 1109 233 1127 233 q 1074 236 1076 236 q 1023 165 1064 199 q 982 133 1005 133 l 977 133 q 933 176 933 138 l 933 187 l 944 290 q 901 353 914 344 l 898 353 q 857 320 888 320 l 852 320 q 808 363 808 326 l 808 377 l 819 475 q 806 502 806 499 l 800 502 l 800 233 q 806 228 801 228 l 863 228 q 920 179 920 216 l 920 174 q 879 127 909 127 l 879 125 q 922 54 922 81 l 922 52 q 827 0 922 0 l 648 0 q 581 46 591 0 l 581 62 q 627 127 581 83 l 627 130 q 583 174 583 139 l 583 182 q 635 228 583 220 l 692 228 q 697 233 697 228 l 697 355 q 692 361 697 361 q 648 320 692 328 l 643 320 q 600 347 620 320 q 559 282 562 304 q 570 187 570 201 l 570 184 q 524 133 562 133 l 518 133 q 458 184 499 133 q 429 236 447 184 q 388 233 401 233 q 309 252 331 245 q 288 285 288 268 l 288 290 q 399 366 288 337 q 442 445 410 366 l 431 445 q 388 488 388 451 l 388 494 q 499 567 388 540 q 524 608 524 593 q 282 467 368 526 l 282 464 q 317 388 317 406 l 317 382 q 277 336 317 346 l 266 336 q 228 358 251 336 q 168 271 213 271 q 73 377 123 271 q 0 526 0 499 l 0 532 q 43 575 5 575 l 46 575 q 114 564 58 575 q 109 586 109 574 l 109 589 q 146 632 116 632 l 163 632 q 228 556 191 632 l 233 556 q 469 692 460 688 q 464 697 469 697 l 448 697 q 374 646 426 697 q 328 627 343 627 l 326 627 q 282 667 282 633 l 282 678 q 290 705 282 692 l 285 708 q 209 711 238 711 q 106 643 133 643 l 100 643 q 60 684 60 648 l 60 697 q 81 765 76 735 l 100 795 l 100 800 q 71 873 76 826 q 60 906 60 895 l 60 917 q 98 955 71 955 l 103 955 q 212 887 127 955 q 220 884 214 887 q 263 887 248 887 l 290 887 q 296 892 296 887 q 282 922 282 902 l 282 930 q 326 968 282 961 l 334 968 q 423 909 352 968 q 445 901 437 901 l 469 901 l 469 903 q 228 1039 235 1038 q 163 963 185 964 l 146 963 q 109 1006 116 963 l 109 1015 l 111 1034 q 54 1020 60 1020 l 43 1020 q 0 1063 0 1026 l 0 1072 q 130 1313 9 1120 q 163 1324 151 1324 l 174 1324 q 228 1242 211 1324 l 231 1242 q 266 1259 249 1259 l 279 1259 q 317 1221 317 1250 l 317 1213 q 282 1131 311 1181 l 282 1128 q 529 985 391 1060 l 529 987 q 472 1039 518 1021 q 388 1104 388 1061 l 388 1109 q 429 1150 391 1150 l 445 1150 q 377 1237 413 1237 q 288 1305 288 1267 l 288 1308 q 361 1356 288 1356 q 391 1364 362 1362 q 426 1359 399 1364 q 480 1440 439 1396 q 513 1462 496 1462 l 529 1462 q 570 1416 562 1462 l 570 1408 l 559 1313 q 600 1248 568 1285 l 602 1248 q 643 1275 614 1275 l 654 1275 q 689 1253 667 1275 l 692 1253 q 689 1294 689 1280 l 689 1351 q 692 1362 689 1357 q 689 1370 689 1367 l 632 1370 q 583 1419 583 1379 l 583 1424 q 624 1470 583 1456 l 624 1473 q 581 1535 581 1516 l 581 1546 q 624 1595 589 1595 m 618 1549 l 618 1544 q 681 1465 618 1531 l 681 1449 q 624 1430 681 1438 l 621 1424 q 648 1405 621 1405 l 705 1405 q 727 1383 727 1405 q 732 1039 727 1288 q 722 1025 727 1027 l 713 1025 q 646 1118 686 1025 l 646 1126 l 656 1229 q 654 1237 654 1234 l 643 1237 q 618 1194 637 1237 l 613 1191 l 605 1191 q 521 1305 578 1191 l 521 1310 l 532 1413 l 532 1419 q 526 1424 532 1424 l 518 1424 q 458 1337 467 1372 q 429 1321 446 1321 q 388 1326 391 1326 q 328 1313 356 1316 l 326 1308 q 431 1256 332 1291 q 491 1134 491 1159 q 469 1109 487 1109 q 426 1112 441 1112 l 426 1104 q 529 1053 426 1095 q 583 952 564 1017 q 559 930 583 935 q 263 1096 536 930 q 241 1128 241 1113 q 279 1213 241 1136 l 279 1215 q 274 1221 279 1221 l 266 1221 q 228 1180 234 1180 l 214 1180 q 176 1283 203 1180 l 171 1286 l 160 1286 q 43 1088 118 1228 l 38 1069 l 38 1063 q 43 1058 39 1058 l 138 1077 q 160 1055 160 1071 q 146 1009 146 1017 l 146 1006 q 152 1001 147 1001 l 155 1001 q 201 1069 168 1009 q 228 1082 216 1082 q 543 901 256 1074 q 545 890 545 896 l 545 882 q 453 863 545 863 l 442 863 q 339 928 412 863 l 326 930 q 320 925 320 930 l 320 922 q 347 876 347 888 q 255 849 347 849 l 209 849 q 111 914 195 849 q 100 917 106 917 l 98 911 l 98 903 q 117 841 110 889 q 141 792 141 817 q 106 705 114 751 q 98 689 98 703 l 98 681 l 103 681 q 195 746 115 681 l 214 749 q 347 724 347 749 l 347 719 q 320 681 347 705 l 320 670 q 326 665 321 665 q 420 732 338 665 q 434 735 429 732 q 545 713 545 735 l 545 700 q 391 605 526 678 q 228 513 258 524 q 165 589 205 513 l 157 594 l 152 594 q 146 589 146 593 q 160 543 160 549 q 136 518 157 518 q 43 537 65 537 q 38 532 38 536 q 127 358 46 490 q 171 309 150 309 q 198 396 182 323 q 222 415 208 415 l 225 415 q 263 377 241 415 l 269 374 l 274 374 q 279 380 279 374 l 279 385 l 241 467 l 241 469 q 369 564 241 498 q 559 667 549 667 q 581 635 581 667 q 483 524 538 524 q 429 499 440 507 q 426 488 426 494 q 431 483 427 483 l 437 483 l 469 488 q 491 464 491 479 q 396 328 446 328 q 326 293 339 306 l 326 285 q 388 271 370 280 q 437 274 426 274 q 480 214 455 274 q 521 171 484 214 l 524 171 q 532 187 532 174 l 521 288 q 597 404 526 327 l 613 404 q 640 358 622 400 l 648 358 q 656 374 656 361 q 646 480 646 465 q 705 570 646 505 l 722 570 q 732 551 732 566 l 732 214 q 711 193 732 193 l 662 193 q 621 182 621 193 l 621 171 q 681 149 681 161 l 681 133 q 618 54 618 67 l 618 49 q 648 35 618 43 q 689 38 675 38 l 854 38 q 884 52 884 42 q 822 127 884 67 q 819 138 822 134 q 876 165 819 161 l 882 174 l 882 176 q 822 193 882 193 l 787 193 q 765 214 765 193 l 765 548 q 789 572 768 572 q 857 477 826 555 l 857 469 q 844 372 857 455 q 852 358 847 358 l 857 358 q 892 404 881 402 l 901 404 q 979 301 924 404 q 982 290 982 296 q 968 184 982 271 q 977 171 972 171 l 979 171 q 1044 263 1040 233 q 1066 274 1060 274 q 1118 271 1109 271 q 1175 285 1138 274 l 1175 293 q 1077 339 1168 306 q 1012 467 1016 404 q 1036 488 1012 484 q 1069 483 1055 483 l 1072 483 q 1077 491 1077 483 q 974 543 1077 505 q 920 646 933 583 l 920 648 q 939 667 920 657 q 1245 499 951 667 q 1261 467 1261 484 q 1226 396 1261 458 q 1223 382 1223 391 l 1223 374 l 1234 374 q 1272 415 1267 415 l 1289 415 q 1318 328 1300 415 q 1332 309 1327 309 l 1337 309 q 1462 515 1348 309 l 1465 534 l 1459 537 l 1457 537 l 1362 518 q 1340 543 1344 518 q 1356 591 1356 582 l 1351 594 q 1291 521 1333 594 q 1270 513 1280 513 q 958 697 989 671 l 958 713 q 1069 735 961 735 q 1161 667 1081 735 l 1175 665 q 1183 675 1183 665 q 1153 719 1153 710 q 1245 746 1153 746 q 1289 749 1245 749 q 1386 684 1306 749 q 1397 681 1391 681 l 1400 681 q 1405 686 1405 681 q 1383 757 1390 705 q 1359 806 1359 782 q 1392 884 1392 850 q 1405 909 1402 905 l 1405 911 q 1400 917 1405 917 l 1397 917 q 1326 865 1384 917 q 1275 849 1301 849 l 1267 849 q 1153 879 1153 849 q 1183 922 1159 895 l 1183 928 l 1177 930 l 1166 930 q 1063 863 1083 863 l 1050 863 q 955 884 955 863 l 955 890 q 1061 966 955 912 q 1278 1082 1251 1082 q 1335 1006 1294 1082 l 1345 1001 q 1356 1012 1356 1004 q 1340 1058 1340 1042 q 1362 1077 1349 1077 l 1457 1058 q 1465 1069 1465 1058 q 1351 1275 1432 1149 l 1340 1286 l 1332 1286 q 1299 1191 1320 1286 l 1286 1180 l 1278 1180 q 1234 1221 1263 1180 l 1223 1221 l 1223 1215 q 1261 1134 1223 1201 l 1261 1126 q 1134 1036 1261 1101 q 939 930 964 930 l 936 930 q 920 952 920 941 q 993 1063 956 1063 q 1074 1099 1008 1074 l 1077 1109 l 1072 1112 q 1025 1109 1040 1109 q 1012 1131 1012 1120 l 1012 1139 q 1090 1270 1041 1243 l 1175 1302 l 1175 1310 q 1120 1324 1175 1314 q 1115 1326 1120 1326 q 1066 1324 1082 1324 q 1028 1373 1042 1324 q 985 1424 1000 1398 l 977 1424 q 968 1408 973 1424 q 982 1310 982 1332 q 903 1191 982 1281 l 890 1191 q 863 1237 880 1191 l 852 1237 q 844 1223 848 1237 q 857 1120 857 1145 q 789 1025 814 1025 l 781 1025 q 770 1044 770 1030 l 770 1383 q 792 1405 770 1405 l 849 1405 q 882 1416 882 1405 l 882 1424 q 827 1438 882 1435 q 819 1457 819 1448 l 819 1459 q 884 1535 819 1472 l 884 1546 q 830 1560 884 1560 l 643 1560 q 618 1549 622 1560 m 722 1525 l 781 1525 q 800 1514 796 1525 l 800 1497 q 751 1459 770 1459 q 703 1497 730 1459 l 703 1514 q 722 1525 707 1525 m 488 1256 l 496 1256 q 548 1196 513 1256 q 562 1169 562 1182 l 562 1164 q 540 1142 562 1142 q 477 1242 509 1142 q 488 1256 483 1255 m 1006 1256 q 1025 1234 1025 1256 q 958 1142 988 1142 l 955 1142 q 941 1156 951 1142 l 941 1169 q 996 1256 941 1183 l 1006 1256 m 806 1202 l 806 1107 l 808 1107 q 819 1128 815 1107 q 808 1202 819 1143 l 806 1202 m 146 1202 l 163 1202 q 184 1139 177 1202 q 119 1107 184 1107 q 98 1128 98 1107 q 146 1202 98 1151 m 1340 1202 l 1348 1202 q 1405 1120 1376 1202 q 1383 1104 1400 1104 l 1381 1104 q 1318 1139 1326 1104 q 1340 1202 1318 1187 m 689 1177 q 684 1123 684 1139 q 689 1107 689 1109 l 694 1107 q 692 1177 692 1147 l 689 1177 m 589 1096 q 670 1012 623 1096 q 732 906 732 932 l 732 865 q 711 844 731 844 q 635 906 660 862 q 564 1063 635 912 l 564 1072 q 589 1096 568 1096 m 906 1096 l 914 1096 q 939 1072 939 1093 l 939 1069 q 838 865 939 1035 q 789 844 802 844 q 770 865 772 844 l 770 906 q 884 1085 782 958 q 906 1096 896 1096 m 806 895 l 811 892 q 871 1004 852 958 q 806 895 814 930 m 646 982 l 646 977 q 694 895 679 895 q 697 898 694 898 q 648 982 697 909 l 646 982 m 616 846 l 627 846 q 700 800 700 828 l 700 798 q 632 751 700 771 l 618 751 q 410 787 410 751 q 407 798 407 791 q 502 841 407 841 q 616 846 532 846 m 882 846 q 1088 817 1088 846 q 1096 792 1096 817 q 898 751 1096 751 l 865 751 q 803 789 834 758 l 803 798 q 876 846 803 827 l 882 846 m 1221 827 q 1302 803 1302 822 l 1302 789 q 1199 770 1302 770 l 1185 770 q 1150 798 1150 774 q 1221 827 1150 827 m 290 825 l 307 825 q 353 800 347 825 q 312 770 353 776 l 293 770 q 201 800 201 770 l 201 808 q 290 825 201 825 m 605 808 q 469 800 524 808 l 469 798 l 616 787 q 648 795 622 787 l 648 798 q 618 811 648 804 l 605 808 m 854 798 l 854 795 q 876 787 858 795 q 1036 798 962 789 l 1036 800 q 871 808 950 808 q 854 798 854 802 m 716 751 q 732 730 732 746 l 732 694 q 632 526 732 671 q 586 499 608 499 q 564 526 564 507 l 564 529 q 651 719 564 554 q 716 751 684 751 m 792 751 q 903 613 844 751 q 939 529 939 547 q 909 499 934 499 q 770 681 865 499 l 768 697 l 768 722 q 792 751 768 751 m 635 600 q 694 700 694 685 l 694 705 q 635 600 671 693 m 806 705 l 806 697 q 876 575 806 681 l 879 575 l 879 578 q 806 705 829 686 m 684 469 l 692 396 q 697 401 697 396 l 697 494 l 694 494 q 684 469 686 492 m 119 494 q 184 456 174 494 l 184 453 q 163 393 175 393 l 146 393 q 98 475 106 430 l 98 477 q 119 494 103 494 m 1381 494 l 1383 494 q 1405 475 1405 491 q 1348 391 1369 391 q 1318 456 1324 391 q 1381 494 1318 489 m 540 453 q 562 431 562 453 l 562 429 q 507 342 562 414 q 496 339 503 339 l 488 339 q 477 358 477 344 q 540 453 511 453 m 963 453 l 966 453 q 1025 355 991 453 l 1025 353 q 1015 339 1020 340 l 998 339 q 941 423 974 361 l 941 431 q 963 453 941 453 m 757 138 q 803 87 803 111 q 789 71 800 76 l 722 71 q 700 90 700 73 q 757 138 722 138 z "},"N":{"ha":1529,"x_min":0,"x_max":1427,"o":"m 711 1576 l 716 1576 q 768 1468 768 1576 l 768 1356 l 770 1356 q 863 1421 835 1421 l 868 1421 q 914 1375 914 1414 q 844 1275 914 1345 l 844 1272 l 852 1272 q 911 1232 902 1272 l 911 1221 q 865 1169 911 1184 l 770 1169 q 765 1164 765 1168 l 765 1036 l 768 1036 q 865 1109 838 1109 l 868 1109 q 949 1055 949 1109 l 928 955 q 1047 1028 1041 1019 l 1047 1031 q 998 1134 998 1111 l 998 1142 q 1036 1180 1009 1180 l 1044 1180 q 1101 1139 1072 1180 q 1164 1259 1120 1259 l 1175 1259 q 1218 1215 1218 1253 l 1218 1213 q 1196 1112 1218 1203 l 1199 1112 q 1375 1204 1345 1204 l 1386 1204 q 1427 1164 1427 1200 l 1427 1156 q 1359 1093 1427 1123 q 1251 1028 1270 1038 l 1251 1023 q 1370 958 1370 1003 l 1370 947 q 1324 906 1370 913 l 1321 906 q 1221 928 1313 906 l 1221 925 q 1240 876 1240 891 l 1240 873 q 1191 830 1226 830 l 1185 830 q 1101 936 1152 830 q 979 871 1066 923 l 979 865 q 1101 792 1101 850 l 1101 784 q 979 711 1101 728 l 977 705 q 1099 640 1090 640 q 1180 743 1159 743 l 1194 743 q 1240 703 1240 736 l 1240 700 q 1221 646 1240 689 l 1223 646 q 1326 670 1305 670 l 1332 670 q 1370 632 1370 661 l 1370 621 q 1326 572 1370 588 q 1251 551 1292 567 l 1251 548 q 1419 445 1374 484 q 1427 420 1427 425 l 1427 410 q 1381 369 1417 369 l 1378 369 q 1210 456 1336 378 q 1196 461 1201 461 l 1196 458 q 1218 363 1218 382 l 1218 361 q 1177 315 1211 315 l 1169 315 q 1120 358 1137 315 q 1101 437 1101 426 q 1042 393 1069 393 l 1036 393 q 998 437 1006 393 l 998 442 q 1050 551 998 461 q 930 618 1034 562 l 928 618 l 928 616 q 949 515 949 526 q 871 464 949 464 l 860 464 q 773 532 836 464 l 768 532 l 768 410 q 773 404 768 404 l 868 404 q 911 355 902 404 l 911 353 q 868 304 902 304 l 844 304 l 844 301 q 914 203 914 233 l 914 201 q 865 152 907 152 q 768 222 835 152 l 765 222 l 765 54 q 716 0 755 0 l 708 0 q 659 71 659 0 l 659 220 l 656 220 q 564 152 588 152 l 559 152 q 513 198 513 159 l 513 206 q 583 301 513 232 l 578 304 l 559 304 q 515 345 515 316 l 515 358 q 564 404 515 397 l 654 404 q 659 410 659 404 l 659 532 q 654 537 659 537 q 562 464 591 464 l 556 464 q 477 510 488 464 l 477 515 q 499 618 477 526 l 496 618 q 377 548 448 591 q 429 442 429 464 l 429 434 q 382 393 429 401 l 374 393 q 323 434 352 393 q 258 315 302 315 l 247 315 q 209 358 216 315 l 209 366 q 231 461 209 378 l 228 461 q 43 369 90 378 q 0 412 0 374 l 0 420 q 65 483 0 456 q 176 551 176 548 l 176 553 q 57 613 57 576 l 57 629 q 106 670 57 665 l 206 648 q 190 692 190 677 l 190 703 q 231 743 194 743 l 239 743 q 315 656 274 743 q 331 637 328 637 q 448 705 415 680 l 448 708 q 326 779 326 728 l 326 798 q 442 865 326 846 q 448 871 448 865 q 328 936 360 927 q 250 833 275 846 l 233 830 l 231 830 q 190 871 190 836 l 190 887 q 203 928 190 903 l 201 928 q 106 906 124 906 l 100 906 q 57 947 57 910 l 57 960 q 163 1020 57 1002 q 176 1028 176 1024 q 0 1156 0 1115 l 0 1164 q 41 1204 4 1204 l 49 1204 q 231 1115 72 1204 l 231 1118 q 209 1210 209 1189 l 209 1221 q 247 1259 220 1259 l 255 1259 q 323 1137 304 1259 l 328 1137 q 380 1180 347 1180 l 391 1180 q 429 1137 421 1180 l 429 1134 q 377 1025 429 1113 q 499 955 427 991 l 499 960 q 477 1061 477 1047 q 543 1109 477 1109 l 562 1109 q 659 1042 595 1109 l 662 1047 l 662 1156 l 659 1169 l 572 1169 q 515 1215 515 1179 l 515 1226 q 567 1272 515 1265 l 581 1275 q 513 1373 513 1343 l 513 1378 q 556 1421 519 1421 l 564 1421 q 656 1356 587 1421 l 659 1356 l 659 1465 q 692 1571 659 1571 q 711 1576 692 1575 m 697 1478 l 697 1370 q 684 1291 697 1291 l 667 1291 q 556 1383 577 1383 q 551 1378 551 1383 l 551 1375 q 640 1270 551 1357 q 643 1259 643 1265 l 643 1251 q 562 1234 643 1234 q 553 1226 553 1228 l 553 1218 q 600 1204 553 1206 l 675 1204 q 697 1183 697 1204 l 697 1006 q 675 985 697 985 l 673 985 q 578 1066 656 985 l 559 1072 l 540 1072 q 515 1058 515 1072 q 545 925 545 937 q 524 903 539 903 q 336 1023 336 988 q 391 1131 336 1032 l 391 1139 l 385 1142 q 339 1085 369 1142 q 323 1080 330 1080 l 320 1080 q 269 1204 292 1080 q 255 1221 258 1221 l 252 1221 q 247 1215 247 1220 l 247 1213 l 274 1088 l 274 1080 q 252 1058 273 1058 q 43 1166 66 1166 l 38 1166 l 38 1158 q 182 1069 50 1135 q 239 1023 239 1035 l 239 1012 q 103 966 239 999 q 95 958 95 960 l 95 944 l 103 944 q 222 971 117 944 l 236 971 q 258 949 258 971 l 258 947 q 228 890 258 941 l 228 873 q 233 868 229 868 l 236 868 q 307 974 245 874 l 326 979 q 488 887 391 956 q 496 865 496 871 q 385 814 496 831 q 363 795 363 800 l 363 787 q 464 743 363 758 q 496 708 496 730 q 347 605 496 675 q 320 594 334 594 q 258 684 304 594 q 239 705 241 705 l 228 705 l 228 694 q 258 621 258 631 q 233 602 250 602 q 98 632 109 632 l 95 627 l 95 621 q 206 583 95 611 q 239 562 234 572 l 239 548 q 52 434 224 528 q 38 420 38 423 l 38 412 q 43 407 39 407 q 247 513 104 433 q 255 515 252 515 q 274 494 271 515 l 274 486 l 247 361 l 247 358 q 252 353 248 353 l 255 353 q 298 483 266 353 q 323 496 313 496 q 369 437 338 496 l 377 431 l 385 431 q 391 437 391 431 q 336 545 391 452 l 336 551 q 423 618 336 576 q 526 670 500 670 q 545 646 545 662 q 515 513 515 526 q 556 502 531 502 l 564 502 q 654 581 646 581 q 678 589 654 587 q 694 567 694 583 l 694 391 q 673 369 694 369 l 586 369 q 553 358 553 369 l 553 350 q 578 339 557 339 l 616 339 q 643 317 643 339 l 643 315 q 575 239 643 302 q 551 198 551 213 q 553 190 553 193 l 556 190 q 659 277 575 190 l 667 282 l 684 282 q 697 212 697 282 l 697 62 q 708 38 697 41 l 716 38 q 730 90 730 38 l 730 263 q 749 285 732 285 q 852 195 764 285 q 868 190 861 190 q 876 198 872 190 l 876 206 q 784 307 876 214 q 781 315 784 309 q 811 339 781 337 l 849 339 q 873 350 870 339 l 873 358 q 849 369 870 369 l 754 369 q 732 391 732 369 l 732 567 q 754 589 734 589 q 849 510 772 588 q 868 502 859 502 l 871 502 q 911 518 911 502 q 882 648 882 640 q 903 673 882 664 q 1072 583 930 663 q 1090 548 1090 566 q 1036 439 1054 484 l 1036 437 q 1042 431 1037 431 l 1044 431 q 1093 494 1050 433 l 1107 496 q 1145 407 1134 496 q 1169 353 1161 353 l 1175 353 q 1180 358 1180 353 l 1180 361 l 1153 491 l 1153 494 q 1177 515 1153 515 q 1381 407 1367 407 l 1383 407 q 1389 412 1389 407 l 1389 418 q 1232 515 1371 441 q 1191 548 1202 534 l 1191 564 q 1332 616 1191 576 l 1332 627 q 1324 632 1332 632 q 1191 602 1202 602 q 1169 624 1169 608 q 1202 703 1202 697 l 1196 705 q 1137 627 1177 705 q 1101 597 1116 597 q 936 689 1084 597 l 930 708 q 1017 757 930 745 q 1063 781 1063 770 l 1063 795 q 958 833 1063 812 q 930 873 930 846 q 1055 958 930 889 q 1107 979 1095 979 q 1166 895 1124 978 q 1191 868 1183 868 q 1202 879 1199 870 q 1169 955 1169 943 q 1191 971 1175 971 l 1199 971 l 1326 944 q 1332 949 1332 944 l 1332 955 q 1210 996 1332 966 q 1191 1020 1191 1005 l 1191 1023 q 1253 1072 1191 1041 l 1389 1156 l 1389 1166 l 1375 1166 q 1191 1063 1338 1156 l 1172 1058 q 1153 1080 1156 1058 l 1153 1090 l 1180 1215 q 1175 1221 1180 1221 q 1147 1175 1156 1221 q 1109 1080 1128 1080 l 1101 1080 q 1055 1137 1085 1080 l 1047 1142 l 1042 1142 q 1036 1134 1036 1142 l 1090 1023 l 1090 1020 q 960 930 1090 1001 q 901 903 920 903 q 882 928 882 909 q 911 1063 911 1051 q 876 1072 899 1072 l 871 1072 q 789 1004 854 1072 q 754 985 768 985 l 751 985 q 730 1006 730 985 l 730 1183 q 751 1204 730 1204 l 822 1204 q 873 1218 873 1204 l 873 1226 q 792 1240 873 1236 q 781 1259 781 1255 q 865 1354 781 1271 q 876 1378 876 1370 l 868 1383 q 760 1291 849 1383 l 743 1291 q 730 1335 732 1291 l 730 1492 q 716 1538 728 1538 l 711 1538 q 697 1478 697 1538 m 581 1009 q 621 966 621 991 l 621 960 q 591 928 614 928 q 559 993 564 928 q 581 1009 564 1009 m 849 1009 q 868 987 865 1009 q 838 928 859 928 l 836 928 q 806 963 810 928 q 849 1009 806 991 m 637 890 l 678 890 q 692 876 682 890 l 692 838 q 673 817 689 817 q 610 865 610 840 q 637 890 610 885 m 754 890 l 800 890 q 817 865 817 880 q 749 817 817 838 q 732 838 732 822 l 732 868 q 754 890 732 890 m 594 819 l 597 819 q 637 789 637 808 q 591 754 637 763 q 567 779 567 758 l 567 792 q 594 819 570 819 m 827 819 l 833 819 q 860 787 857 819 l 860 784 q 827 754 860 757 q 789 787 789 766 q 827 819 802 819 m 494 811 l 496 811 q 521 789 514 811 q 494 762 515 762 q 461 779 471 762 l 461 787 q 494 811 461 811 m 930 811 l 933 811 q 966 795 956 811 l 966 787 q 928 762 966 762 q 909 795 911 762 q 930 811 914 811 m 675 757 q 694 735 692 757 l 694 705 q 673 684 694 684 l 637 684 q 610 711 610 687 q 675 757 610 735 m 754 757 q 817 711 817 732 q 789 684 811 684 l 754 684 q 732 705 732 684 l 732 735 q 754 757 734 757 m 594 646 q 621 613 621 634 q 578 564 621 585 q 559 586 562 564 q 594 646 568 646 m 836 646 q 868 578 861 646 q 846 564 861 564 q 806 616 806 586 q 836 646 810 646 z "},"O":{"ha":1507,"x_min":0,"x_max":1405,"o":"m 694 1568 l 700 1568 q 746 1525 746 1561 l 746 1259 l 749 1259 q 800 1326 800 1301 l 800 1394 q 827 1421 804 1421 q 863 1375 863 1421 q 952 1440 928 1440 l 958 1440 q 1001 1397 1001 1435 q 933 1305 1001 1369 l 933 1299 l 949 1299 q 982 1267 982 1293 l 993 1267 q 1034 1237 1010 1267 q 1088 1348 1058 1348 l 1107 1348 q 1150 1302 1150 1341 l 1128 1210 q 1161 1223 1153 1223 l 1166 1223 q 1194 1196 1194 1218 q 1112 1131 1194 1172 q 1085 1055 1104 1131 l 1090 1055 q 1337 1191 1306 1191 l 1343 1191 q 1386 1147 1386 1185 l 1386 1145 q 1280 1055 1386 1108 q 1139 974 1149 977 l 1139 968 q 1202 955 1190 955 q 1299 998 1282 998 q 1324 971 1320 998 l 1324 968 q 1294 933 1324 946 q 1367 911 1294 928 q 1405 863 1405 892 l 1405 857 q 1367 817 1394 817 l 1364 817 q 1267 836 1348 817 q 1278 803 1278 817 l 1278 800 q 1267 779 1278 791 q 1275 757 1275 765 q 1261 716 1275 746 l 1264 716 q 1356 738 1337 738 l 1364 738 q 1402 697 1396 738 l 1402 692 q 1337 640 1402 651 q 1294 627 1302 627 q 1324 586 1324 602 q 1299 559 1321 559 l 1289 559 l 1199 600 q 1139 581 1139 587 q 1378 437 1343 471 q 1386 412 1386 417 l 1386 404 q 1345 363 1376 363 l 1340 363 q 1090 496 1314 363 l 1088 496 l 1088 494 q 1128 420 1099 420 q 1194 361 1194 387 q 1166 331 1189 331 q 1128 342 1159 331 q 1150 247 1150 261 q 1101 203 1137 203 q 1036 317 1052 203 l 1031 317 q 996 288 1018 288 l 982 290 q 936 269 966 269 q 1004 179 1004 203 l 1004 174 q 963 127 994 127 l 958 127 q 865 195 928 127 q 830 146 865 146 q 803 187 803 146 l 803 244 q 754 309 803 269 l 751 304 l 751 54 q 705 0 745 0 l 697 0 q 654 92 654 0 l 654 301 q 648 307 654 307 q 602 247 602 260 l 602 174 q 575 146 599 146 l 572 146 q 540 193 540 146 l 534 193 q 450 127 479 127 l 445 127 q 401 171 401 133 l 401 174 q 469 266 401 201 q 420 296 420 272 q 377 328 401 296 q 328 220 354 220 q 309 214 328 214 l 301 214 q 266 250 266 223 l 266 263 q 285 353 266 277 l 282 353 q 247 339 263 339 q 220 366 220 345 l 220 372 q 298 431 220 395 q 326 510 311 431 q 73 372 104 372 l 65 372 q 27 415 35 372 l 27 418 q 149 518 27 458 q 274 589 150 522 l 274 594 q 212 608 223 608 q 119 564 126 564 l 117 564 q 90 591 90 568 l 90 594 q 117 629 90 615 l 117 632 q 41 656 117 636 q 8 697 8 677 l 8 711 q 49 749 8 739 q 146 730 124 730 q 136 757 136 749 l 136 765 l 138 779 q 127 800 132 779 l 127 803 q 141 838 127 819 q 138 841 138 838 q 43 819 62 819 l 41 819 q 0 857 9 819 l 0 868 q 106 930 0 918 l 109 936 q 81 968 81 949 l 81 974 q 109 1001 85 1001 q 201 958 119 1001 q 266 974 206 958 q 52 1099 206 1012 q 16 1150 16 1126 l 16 1153 q 57 1194 22 1194 l 62 1194 q 317 1061 85 1194 l 317 1063 q 277 1139 296 1139 q 209 1199 209 1176 l 209 1202 q 233 1226 212 1226 l 236 1226 q 274 1213 250 1226 l 274 1218 q 255 1305 255 1293 l 255 1310 q 296 1354 259 1354 l 298 1354 q 363 1245 347 1354 l 366 1245 q 407 1270 388 1270 l 418 1270 q 467 1299 418 1299 q 399 1394 399 1367 l 399 1397 q 439 1438 404 1438 l 445 1438 q 537 1375 475 1438 l 540 1375 l 540 1392 q 567 1419 545 1419 l 572 1419 q 600 1392 600 1413 l 600 1321 q 651 1256 600 1305 l 654 1261 l 654 1527 q 694 1568 661 1561 m 689 1511 l 689 1226 q 665 1199 684 1199 q 567 1294 645 1199 l 562 1313 l 556 1310 q 461 1394 544 1310 l 442 1400 q 437 1394 437 1399 l 437 1392 q 521 1299 437 1385 q 529 1272 526 1293 q 656 1164 562 1272 q 689 1120 689 1138 l 689 1047 q 662 1020 684 1020 l 589 1020 q 524 944 557 1020 q 486 917 509 917 q 391 1006 391 958 q 355 1153 355 1118 q 358 1180 358 1168 q 312 1299 338 1180 q 298 1316 302 1316 q 293 1310 293 1315 l 293 1302 q 320 1180 320 1194 q 312 1161 312 1166 q 361 1031 334 1161 q 339 1006 357 1006 q 103 1137 332 1006 q 60 1156 68 1156 q 54 1150 54 1155 q 247 1031 62 1131 q 326 971 326 989 l 326 968 q 195 920 326 941 q 174 928 189 920 q 52 882 174 901 q 38 868 38 871 l 38 863 q 46 857 38 857 q 171 884 160 884 l 190 879 q 385 941 190 907 l 388 941 q 480 876 480 908 q 437 792 480 863 l 437 787 q 486 711 437 777 q 491 689 491 701 q 391 624 491 656 l 388 624 q 212 673 345 624 q 193 686 199 686 q 179 681 184 681 q 49 708 59 708 l 46 708 q 119 675 46 685 q 184 637 184 657 q 212 646 199 646 q 334 602 334 623 l 334 594 q 255 537 334 574 q 65 420 88 443 l 65 412 l 71 410 l 73 410 q 307 543 108 419 q 345 559 334 559 l 347 559 q 372 534 372 555 q 326 407 344 407 l 323 401 q 331 382 331 388 q 304 260 304 274 l 304 252 l 309 252 q 350 374 322 252 q 374 391 368 391 q 366 418 366 405 q 418 605 366 497 q 505 646 464 646 q 564 564 526 646 q 597 548 579 548 l 662 548 q 686 491 686 548 q 692 448 692 456 q 545 296 685 415 l 529 290 l 532 285 q 448 187 532 271 q 439 168 439 177 q 448 165 445 165 q 548 255 458 165 q 570 271 570 255 q 662 366 570 286 l 678 366 q 692 260 692 366 l 692 57 l 697 38 l 705 38 q 716 81 714 38 l 716 347 q 735 369 719 369 q 833 279 766 361 q 841 252 838 269 l 854 255 q 944 171 862 255 q 955 165 948 171 l 958 165 q 966 176 966 165 q 879 271 966 188 l 873 285 q 876 293 876 290 q 787 361 844 293 q 716 448 716 427 l 716 464 q 719 513 716 487 q 716 532 716 524 q 738 548 722 548 l 827 548 q 887 627 847 548 q 914 640 903 640 q 1004 581 956 640 q 1050 404 1050 452 l 1042 377 q 1090 252 1065 377 q 1101 241 1099 241 l 1104 241 q 1112 255 1110 241 q 1082 377 1082 363 q 1093 393 1082 380 q 1058 456 1061 419 q 1042 524 1042 517 l 1042 529 q 1063 551 1042 551 q 1299 420 1072 551 q 1343 401 1335 401 q 1348 410 1348 401 q 1177 515 1335 433 q 1080 581 1095 561 l 1080 597 q 1204 637 1080 613 q 1229 629 1214 637 q 1332 675 1229 652 q 1364 692 1364 685 l 1364 700 l 1359 700 l 1232 673 l 1226 673 q 1210 681 1216 681 q 1015 616 1210 651 q 922 681 922 650 q 968 770 922 692 l 968 776 q 922 868 968 791 l 922 876 q 1020 939 922 910 q 1218 876 1186 914 l 1221 876 q 1237 882 1230 882 q 1364 854 1350 854 l 1367 860 l 1367 865 q 1253 903 1367 874 q 1234 925 1236 903 l 1232 925 l 1204 917 q 1080 960 1080 939 l 1080 968 q 1147 1020 1080 987 q 1348 1145 1312 1114 l 1348 1147 q 1343 1153 1348 1153 q 1085 1009 1319 1153 q 1061 1004 1076 1004 q 1042 1028 1042 1012 q 1077 1150 1058 1118 q 1088 1164 1088 1156 q 1082 1180 1082 1173 q 1112 1302 1082 1188 q 1109 1310 1109 1308 l 1099 1310 q 1063 1202 1089 1306 q 1042 1172 1063 1185 q 1047 1145 1047 1155 q 971 939 1021 967 q 906 917 928 917 q 841 1004 891 917 q 798 1020 827 1020 l 732 1020 q 711 1039 711 1022 q 708 1118 711 1048 q 860 1275 708 1151 q 876 1278 872 1275 l 873 1283 q 958 1386 873 1299 l 963 1394 l 963 1397 q 955 1402 963 1402 q 854 1313 943 1402 q 836 1302 836 1313 q 743 1202 836 1283 l 732 1199 q 711 1223 711 1206 l 711 1500 q 703 1530 711 1530 l 700 1530 q 689 1511 689 1526 m 746 1061 q 751 1055 747 1055 l 819 1055 q 911 958 867 1055 l 917 958 q 1001 1101 979 958 q 1009 1147 1009 1120 q 966 1234 1009 1153 l 966 1240 l 884 1240 q 746 1115 859 1240 l 746 1061 m 434 1237 q 393 1150 393 1156 q 450 979 425 979 q 488 960 477 960 q 570 1055 538 1055 l 648 1055 q 654 1061 654 1055 l 654 1099 q 602 1166 654 1120 q 515 1237 541 1237 l 434 1237 m 597 993 l 665 993 q 686 968 686 993 l 686 952 q 643 863 677 863 l 635 863 q 534 906 534 863 q 581 987 534 930 q 597 993 589 993 m 738 993 l 806 993 q 868 909 833 993 l 868 901 q 768 863 856 863 q 713 966 746 863 l 713 968 q 738 993 717 993 m 578 909 q 632 901 597 901 l 637 901 q 648 952 648 936 l 648 958 l 613 958 q 575 909 595 958 l 578 909 m 757 958 l 757 955 q 784 901 772 907 q 827 909 794 901 q 787 958 806 958 l 757 958 m 182 784 l 182 781 q 220 716 192 781 q 382 662 220 699 l 393 662 q 450 694 442 682 l 450 697 q 399 784 399 761 l 399 789 q 439 873 399 806 l 439 876 q 380 903 389 903 q 212 841 212 874 q 182 784 182 793 m 963 871 q 1006 781 1006 804 q 963 686 1006 748 l 963 681 q 1023 654 1015 654 q 1188 719 1188 684 q 1229 779 1216 766 q 1188 852 1220 787 q 1036 901 1160 876 l 1020 901 q 963 871 963 880 m 708 865 l 711 865 q 743 838 724 865 q 784 798 784 831 q 779 776 779 781 q 784 751 784 758 q 730 708 784 730 q 708 697 730 701 q 635 746 635 726 l 635 749 l 637 781 q 627 808 627 800 l 627 811 q 667 836 627 836 q 708 865 694 865 m 518 863 q 602 792 551 863 l 605 776 q 537 700 605 744 l 532 700 q 469 789 503 700 l 469 795 q 518 863 491 863 m 882 860 q 941 779 911 860 l 941 776 q 879 694 911 694 q 811 773 853 694 l 811 779 q 882 860 835 839 m 507 792 l 532 743 l 534 743 q 564 773 538 743 l 564 781 q 526 819 564 789 l 524 819 q 507 792 519 819 m 673 798 l 675 779 l 675 776 l 673 757 q 711 738 709 738 q 743 757 711 745 l 741 776 l 741 779 l 743 798 q 708 819 733 798 q 673 798 692 806 m 852 773 q 879 741 875 741 q 901 779 901 764 l 901 784 q 884 814 884 809 l 879 814 q 852 773 852 786 m 635 689 l 643 689 q 689 613 673 689 l 689 602 q 648 570 689 575 q 564 610 579 570 q 545 656 545 639 q 635 689 545 689 m 773 689 l 789 689 q 868 651 868 689 q 792 570 848 570 l 779 572 l 749 572 q 719 597 719 572 l 719 600 q 773 689 742 689 m 589 648 q 629 608 598 608 l 646 608 q 651 613 651 608 q 635 651 651 627 l 616 651 l 589 648 m 762 610 l 768 608 l 787 608 q 827 646 816 608 q 798 651 817 651 l 781 651 q 762 610 762 625 m 404 418 q 448 328 448 334 l 518 328 q 654 450 538 328 q 643 513 648 513 l 578 513 q 502 602 543 513 l 494 608 q 434 556 466 608 q 404 418 404 461 m 914 600 q 836 510 870 510 q 768 513 795 513 l 762 513 q 754 505 758 513 l 754 450 q 879 331 861 331 l 952 331 l 971 328 l 1012 410 q 917 600 982 600 l 914 600 z "},"P":{"ha":1640,"x_min":0,"x_max":1538,"o":"m 762 1581 l 770 1581 q 903 1476 807 1581 l 906 1476 q 949 1516 906 1509 l 955 1516 q 1034 1432 995 1516 q 1109 1468 1090 1468 l 1115 1468 q 1196 1370 1196 1468 l 1196 1340 l 1210 1337 l 1259 1337 q 1308 1294 1308 1323 l 1308 1286 q 1289 1251 1308 1272 q 1459 1180 1459 1213 l 1462 1166 q 1424 1015 1462 1148 l 1443 1017 l 1454 1017 q 1495 977 1495 1007 l 1495 966 q 1457 882 1495 949 q 1538 798 1538 844 l 1538 779 q 1457 700 1538 739 l 1457 694 q 1492 618 1492 627 l 1492 616 q 1451 570 1485 570 l 1446 570 l 1427 572 l 1462 429 l 1462 418 q 1356 355 1462 376 q 1294 336 1350 351 l 1294 334 q 1310 304 1310 316 l 1310 290 q 1264 244 1296 244 l 1204 244 q 1196 236 1200 244 l 1196 209 q 1156 125 1196 144 q 1115 114 1138 114 l 1109 114 q 1031 149 1093 114 l 1028 149 q 958 71 989 71 l 949 71 q 909 111 923 71 l 906 111 q 765 0 804 0 q 637 106 739 0 l 632 106 q 591 68 632 79 l 581 68 q 507 146 547 68 l 502 146 q 429 114 450 114 l 412 114 q 345 187 345 135 q 336 244 345 244 l 279 244 q 231 285 231 256 l 231 298 q 247 336 231 315 q 87 396 87 372 q 79 420 81 396 l 79 426 q 111 570 79 440 l 109 570 q 98 567 104 567 l 90 567 q 46 610 46 574 l 46 621 q 81 700 46 637 q 0 779 0 741 l 0 806 q 81 887 0 845 l 81 890 q 46 963 46 943 l 46 974 q 90 1017 52 1017 l 103 1017 l 109 1015 q 111 1017 109 1017 q 79 1161 79 1132 l 79 1172 q 212 1240 79 1215 q 247 1253 247 1249 q 231 1280 231 1264 l 231 1294 q 271 1340 231 1331 l 345 1340 q 350 1345 350 1340 l 350 1413 q 420 1473 374 1473 l 426 1473 q 502 1438 446 1473 l 505 1438 q 583 1516 546 1516 l 589 1516 q 637 1478 617 1516 q 762 1581 728 1581 m 640 1413 q 738 1305 640 1397 q 754 1270 754 1283 q 751 1194 751 1208 q 730 1177 746 1177 l 665 1177 q 643 1169 645 1177 l 643 1166 q 670 1153 649 1153 l 727 1153 q 749 1131 749 1153 l 749 1006 q 738 987 749 992 l 722 987 q 597 1137 613 1070 q 572 1251 572 1221 l 572 1253 q 632 1294 572 1276 l 635 1299 l 635 1302 q 629 1308 635 1308 l 624 1308 q 581 1302 620 1308 q 545 1351 553 1302 l 545 1354 q 597 1473 545 1364 l 589 1478 q 529 1400 566 1478 l 510 1394 l 423 1435 q 385 1394 385 1426 l 385 1332 q 358 1305 380 1305 l 290 1305 q 269 1289 269 1305 l 269 1280 q 293 1275 286 1275 l 372 1275 q 429 1226 429 1261 q 393 1172 429 1214 l 393 1166 q 399 1161 394 1161 l 401 1161 q 458 1196 444 1196 q 589 1066 503 1177 q 624 933 624 958 q 602 911 618 911 q 475 996 475 967 q 515 1085 475 1004 l 510 1088 l 507 1088 q 456 1020 486 1088 q 434 1009 444 1009 q 345 1080 345 1043 q 309 1207 340 1088 q 290 1218 302 1218 l 288 1218 q 117 1172 248 1217 l 117 1164 q 171 985 147 985 l 176 985 q 334 1020 323 1020 q 418 960 418 994 q 382 884 418 947 l 382 873 q 388 868 383 868 q 442 944 412 883 q 458 949 444 944 q 583 868 583 896 l 583 860 q 431 811 583 844 q 260 868 260 844 l 260 873 q 269 925 260 881 l 263 928 l 255 928 q 231 876 251 928 q 214 868 220 868 q 122 952 153 868 q 90 979 103 979 q 84 974 84 979 l 84 966 q 122 890 84 960 l 122 879 q 41 814 122 869 q 35 800 38 800 q 73 749 35 764 q 122 703 122 726 q 84 621 122 694 l 84 610 q 90 605 85 605 l 98 605 q 146 681 117 623 q 206 719 176 719 q 250 659 237 719 l 255 656 l 266 656 l 266 662 q 260 716 266 664 q 393 762 260 744 q 429 770 399 769 q 586 719 586 742 q 515 667 586 699 q 458 637 473 637 q 404 711 443 637 l 391 719 l 382 719 l 380 708 q 418 624 418 635 q 331 564 418 595 l 328 564 l 171 600 q 152 567 157 600 q 117 423 117 446 l 117 418 q 293 366 138 397 l 298 366 q 342 513 310 366 q 429 575 384 575 l 434 575 q 483 515 456 575 q 502 496 499 496 l 507 496 q 513 502 513 496 l 513 507 q 475 583 513 515 l 475 594 q 589 670 475 614 q 605 673 593 673 q 624 648 624 665 l 624 646 q 556 469 624 563 q 456 388 476 388 q 410 418 444 388 q 399 420 405 420 l 396 420 l 396 418 q 426 369 396 406 l 429 355 q 382 312 422 333 q 372 309 378 309 l 290 309 q 269 301 271 309 l 269 290 q 304 279 269 281 l 358 279 q 380 258 380 279 q 396 163 380 163 q 420 152 412 152 l 423 152 q 507 190 437 152 l 513 190 q 567 117 532 190 q 589 106 578 106 q 597 114 593 106 q 545 222 597 129 l 545 233 q 581 282 552 282 q 624 277 585 282 q 635 279 625 277 l 635 288 q 583 312 635 296 q 572 334 572 323 q 632 518 572 413 q 722 597 665 551 l 738 597 q 749 578 749 593 l 749 453 q 727 431 749 431 l 665 431 q 643 423 645 431 q 667 407 643 412 l 730 407 q 751 388 751 405 q 754 312 754 322 q 684 233 754 296 q 637 176 637 182 l 637 171 q 760 43 637 149 q 770 38 766 38 q 901 163 801 52 l 901 171 q 795 296 901 193 q 787 320 787 306 l 787 336 q 789 372 787 354 q 787 391 787 382 q 808 407 792 407 l 871 407 q 895 418 892 407 q 865 431 895 427 l 808 431 q 787 448 792 431 q 789 472 787 457 q 787 564 787 524 l 787 578 q 798 597 787 593 l 808 597 q 917 499 855 578 q 968 342 943 455 l 968 328 q 906 293 968 310 l 903 288 l 903 282 q 909 277 904 277 l 914 277 q 958 282 918 277 q 996 231 988 282 l 996 225 q 947 122 996 210 l 947 114 l 955 109 q 1006 182 968 117 q 1031 190 1017 190 l 1112 152 l 1120 152 q 1158 214 1158 152 q 1161 244 1158 220 q 1158 263 1158 255 q 1180 279 1164 279 l 1245 279 q 1272 298 1272 279 l 1272 304 q 1240 309 1253 309 l 1164 309 q 1112 358 1112 326 l 1112 361 q 1142 407 1112 373 q 1145 418 1145 412 l 1145 420 l 1139 420 q 1085 388 1131 420 l 1082 388 q 949 513 1061 388 q 917 648 917 629 l 917 651 q 939 673 920 673 q 1063 589 1063 623 q 1028 507 1063 582 l 1028 496 l 1036 496 q 1088 570 1053 506 l 1107 575 q 1191 521 1191 548 q 1232 374 1204 496 l 1242 366 l 1248 366 q 1424 418 1285 366 l 1424 423 q 1367 597 1388 597 l 1362 597 q 1207 562 1221 562 q 1120 624 1120 594 q 1161 705 1120 629 l 1161 711 q 1156 716 1161 716 l 1147 716 q 1096 640 1135 710 q 1082 635 1087 635 q 955 716 955 692 l 955 727 q 1109 773 955 744 q 1278 722 1278 741 q 1280 708 1280 717 q 1272 659 1272 669 q 1278 654 1273 654 l 1283 654 q 1310 708 1288 654 q 1329 716 1320 716 q 1416 637 1388 716 q 1443 608 1438 608 l 1449 608 q 1454 616 1454 608 q 1416 703 1416 686 q 1487 760 1416 727 q 1500 784 1500 774 q 1470 830 1500 819 q 1416 882 1416 858 q 1457 966 1416 889 l 1457 974 q 1451 979 1457 979 l 1449 979 q 1392 903 1428 979 q 1332 868 1362 868 l 1329 868 q 1289 928 1305 868 l 1283 930 l 1278 930 q 1272 922 1272 930 q 1280 873 1280 883 q 1196 833 1280 846 q 1107 811 1131 811 q 955 860 955 842 l 955 868 q 1023 920 955 887 q 1082 949 1053 941 q 1137 879 1100 948 q 1150 868 1149 868 l 1153 868 q 1158 873 1158 868 l 1158 879 q 1120 958 1158 888 l 1120 963 q 1210 1023 1120 995 l 1213 1023 l 1364 987 q 1408 1101 1384 987 q 1424 1164 1424 1149 q 1251 1218 1424 1183 l 1242 1218 q 1199 1077 1232 1218 q 1118 1012 1183 1035 l 1101 1009 q 1047 1082 1088 1009 l 1036 1090 l 1023 1088 l 1023 1080 q 1061 1004 1023 1072 l 1061 998 q 939 914 1061 971 q 920 936 922 914 l 920 941 q 977 1099 951 1099 q 1085 1196 1061 1196 l 1088 1196 q 1137 1161 1093 1196 l 1142 1161 q 1147 1166 1147 1161 l 1147 1175 q 1112 1226 1112 1213 q 1172 1278 1112 1261 l 1245 1278 q 1270 1289 1266 1278 q 1240 1302 1270 1298 l 1180 1302 q 1158 1318 1164 1302 q 1161 1337 1158 1326 q 1137 1424 1161 1424 q 1120 1430 1128 1430 l 1112 1430 l 1031 1392 q 971 1468 1006 1392 l 958 1478 l 949 1478 q 944 1473 944 1478 l 944 1468 q 996 1362 944 1460 l 996 1354 q 958 1302 996 1312 q 914 1308 918 1308 l 903 1308 l 903 1299 q 960 1272 909 1289 q 968 1251 968 1259 q 903 1072 929 1085 q 817 987 825 989 l 800 987 q 789 1006 789 992 l 789 1131 q 811 1153 789 1153 l 871 1153 q 895 1164 892 1153 l 895 1166 q 863 1177 895 1177 l 808 1177 q 787 1196 787 1179 q 789 1210 787 1205 q 787 1253 787 1238 l 787 1272 q 873 1378 787 1303 q 901 1419 901 1407 q 768 1544 806 1533 l 760 1544 q 640 1413 646 1449 m 770 1506 q 860 1424 807 1495 q 863 1413 863 1419 q 781 1324 850 1380 l 768 1321 q 681 1405 747 1321 q 678 1416 678 1410 q 760 1503 678 1440 q 770 1506 764 1506 m 722 1416 l 722 1413 q 768 1364 733 1395 l 770 1364 q 819 1413 819 1409 l 819 1416 q 773 1462 819 1419 l 768 1462 q 722 1416 722 1423 m 602 1394 q 583 1351 583 1359 l 583 1345 q 589 1340 584 1340 q 621 1345 608 1345 l 640 1345 l 640 1348 l 602 1394 m 895 1345 l 911 1345 q 952 1340 926 1345 q 958 1356 958 1349 q 939 1394 939 1390 l 936 1394 l 895 1345 m 1101 1394 l 1112 1394 q 1126 1381 1116 1394 l 1126 1316 q 1085 1270 1112 1270 l 1082 1270 q 1023 1318 1042 1270 l 1023 1326 q 1101 1394 1023 1366 m 434 1392 q 518 1324 518 1367 l 518 1318 q 450 1270 518 1284 q 412 1310 412 1283 l 412 1370 q 434 1392 412 1392 m 1061 1321 q 1077 1308 1077 1310 q 1090 1343 1090 1308 l 1085 1345 q 1061 1321 1061 1335 m 448 1343 l 448 1329 q 456 1308 448 1314 q 480 1324 479 1318 l 480 1326 q 448 1343 480 1335 m 825 1267 l 825 1215 l 838 1213 l 884 1213 q 917 1202 898 1213 q 928 1245 928 1237 q 865 1294 865 1262 l 865 1318 q 825 1267 825 1284 m 673 1316 q 637 1256 673 1256 q 610 1242 610 1246 q 618 1202 610 1235 q 648 1213 635 1213 l 708 1213 q 716 1248 716 1213 l 716 1270 q 673 1316 709 1283 m 518 1253 q 548 1210 548 1244 q 529 1194 542 1194 q 494 1232 503 1194 q 518 1253 503 1253 m 1020 1253 q 1047 1226 1047 1250 q 1012 1191 1047 1207 q 993 1213 996 1191 l 993 1215 q 1020 1253 998 1253 m 1153 1229 q 1183 1183 1183 1194 l 1188 1183 q 1207 1240 1190 1204 l 1202 1242 l 1185 1242 q 1153 1229 1170 1242 m 334 1234 q 355 1185 342 1233 l 358 1185 q 388 1226 362 1197 q 350 1240 380 1240 l 339 1240 q 334 1234 334 1239 m 269 1185 q 312 1072 292 1185 q 195 1023 312 1041 q 149 1137 168 1023 q 269 1185 149 1171 m 1275 1185 q 1392 1134 1392 1171 q 1343 1020 1368 1020 l 1340 1020 q 1226 1069 1226 1040 l 1226 1072 q 1275 1185 1244 1185 m 399 1123 l 393 1123 q 369 1134 383 1123 l 369 1131 q 426 1053 369 1076 l 429 1053 q 486 1123 460 1112 l 486 1126 q 458 1153 486 1129 l 453 1153 q 399 1123 420 1123 m 1055 1128 l 1055 1126 q 1107 1053 1095 1091 l 1112 1053 q 1164 1099 1164 1067 q 1175 1137 1168 1099 q 1139 1123 1154 1123 q 1085 1153 1117 1123 l 1080 1153 q 1055 1128 1076 1153 m 187 1126 q 209 1063 204 1063 q 271 1080 246 1071 l 271 1085 q 250 1145 260 1145 q 190 1126 190 1135 l 187 1126 m 1283 1145 l 1264 1080 q 1332 1061 1301 1066 q 1351 1128 1351 1118 q 1283 1145 1306 1145 m 648 1118 l 648 1112 q 711 1047 668 1080 l 713 1053 l 713 1104 l 711 1118 l 648 1118 m 825 1112 l 825 1050 l 830 1050 q 890 1115 857 1074 l 884 1118 l 830 1118 q 825 1112 825 1117 m 515 1001 q 578 968 559 968 q 548 1058 561 1042 q 515 1001 544 1057 m 987 1055 q 966 974 977 1034 l 971 971 l 1020 1004 q 987 1055 991 1052 m 1164 960 q 1196 884 1196 892 l 1196 871 l 1240 882 l 1240 887 q 1234 917 1240 890 l 1234 930 q 1270 968 1234 956 l 1270 971 q 1210 985 1218 985 q 1164 960 1190 981 m 269 968 l 269 966 q 307 925 296 966 l 307 920 q 298 884 307 908 q 342 871 309 879 q 377 952 342 901 l 377 958 q 328 982 377 966 l 269 968 m 665 979 l 681 979 q 751 895 751 924 l 751 860 q 727 838 751 838 q 659 925 659 862 q 654 952 654 925 l 654 960 q 665 979 654 975 m 868 979 q 887 960 882 979 q 852 860 867 860 q 806 838 828 838 q 789 852 795 842 l 789 901 q 860 977 789 924 q 868 979 863 977 m 1310 960 q 1335 909 1335 929 q 1373 949 1357 909 l 1367 949 q 1310 960 1355 949 m 174 947 l 168 947 l 168 944 q 203 909 182 909 l 206 909 q 225 955 206 930 l 220 955 q 174 947 186 947 m 464 906 q 429 852 450 879 l 429 849 q 521 876 521 867 q 464 906 497 893 m 703 906 l 703 903 q 713 887 709 887 l 713 895 q 703 906 713 899 m 1017 871 q 1112 849 1095 849 l 1074 906 q 1017 871 1017 877 m 827 892 l 827 890 l 830 890 l 833 901 q 827 892 827 901 m 157 844 l 171 844 q 206 803 201 844 l 206 781 q 171 741 201 741 l 160 741 q 84 789 84 762 l 84 800 q 157 844 127 844 m 1370 844 l 1383 844 q 1459 800 1442 828 l 1462 795 q 1381 741 1462 770 l 1373 741 q 1335 779 1335 741 l 1335 814 q 1370 844 1335 839 m 656 833 q 713 789 713 817 q 651 751 713 770 q 559 784 559 770 l 559 798 q 656 833 559 815 m 887 833 q 982 800 982 814 l 982 787 q 882 751 982 771 q 827 792 827 769 q 887 833 845 833 m 269 817 q 307 795 307 811 q 269 768 302 768 q 244 792 244 771 q 269 817 248 817 m 1272 817 q 1297 792 1297 813 q 1272 768 1293 768 l 1264 768 q 1237 784 1248 768 l 1237 792 q 1272 817 1237 817 m 133 792 l 133 789 q 165 779 154 779 l 168 779 l 168 806 l 160 806 q 133 792 135 800 m 1370 800 l 1370 784 q 1375 779 1371 779 q 1405 795 1390 779 l 1405 798 q 1381 806 1385 806 l 1375 806 q 1370 800 1370 805 m 646 795 l 646 789 l 651 789 q 656 795 656 789 l 646 795 m 882 795 l 882 789 l 895 789 q 890 795 895 795 l 882 795 m 735 746 q 751 724 751 741 l 751 689 q 681 608 751 665 q 673 605 678 608 q 654 627 656 605 q 735 746 665 746 m 811 746 q 887 624 866 746 l 887 618 q 865 605 880 605 q 789 686 789 657 l 789 724 q 811 746 789 746 m 1017 711 l 1017 708 l 1077 678 l 1077 681 q 1109 735 1096 715 l 1104 735 q 1017 711 1017 717 m 437 732 l 437 730 q 467 681 465 681 q 515 711 515 707 l 515 713 q 437 732 511 713 m 298 703 q 304 665 304 682 l 304 662 q 269 618 298 618 l 269 616 q 331 602 326 602 q 377 629 365 618 q 339 713 345 692 q 298 703 323 713 m 1199 713 l 1199 708 q 1164 627 1199 690 l 1164 624 q 1213 600 1177 614 q 1270 613 1217 600 l 1270 616 q 1234 659 1243 616 l 1234 662 q 1242 703 1234 681 q 1199 713 1238 705 m 705 686 l 711 686 l 713 697 q 705 686 709 697 m 168 637 l 171 637 q 225 627 187 637 l 225 629 q 206 678 206 653 l 203 678 q 168 637 181 678 m 1337 678 q 1310 624 1331 656 l 1313 624 q 1375 635 1349 635 q 1337 678 1357 678 m 515 586 q 551 526 547 526 q 583 624 566 543 l 578 624 l 515 586 m 960 621 l 960 618 q 990 524 979 540 l 993 524 q 1023 589 1023 585 q 960 621 967 621 m 1348 564 q 1392 448 1369 564 q 1272 399 1392 419 q 1226 521 1243 399 q 1348 564 1226 547 m 198 562 q 309 518 309 548 q 312 510 312 518 q 263 399 293 399 q 149 450 149 420 l 149 453 q 198 562 169 562 m 366 445 q 393 458 382 458 l 404 458 q 458 429 424 458 q 491 461 491 457 q 426 537 469 461 q 366 448 366 515 l 366 445 m 708 537 q 648 467 648 487 l 708 467 q 713 472 713 467 l 713 532 q 708 537 713 537 m 825 537 l 825 505 l 827 472 q 825 469 825 472 l 838 467 l 890 467 l 890 472 q 827 537 874 501 l 825 537 m 1109 534 q 1053 464 1073 464 l 1053 458 q 1082 431 1069 437 q 1131 458 1117 458 l 1145 458 q 1169 448 1155 458 l 1175 448 q 1115 532 1160 532 q 1109 534 1115 534 m 209 524 q 190 458 190 476 q 255 442 230 442 l 274 505 q 209 524 252 515 m 1264 507 q 1286 439 1276 453 q 1351 461 1351 453 q 1332 524 1337 517 q 1264 507 1322 524 m 336 345 l 353 345 q 385 361 374 345 q 358 407 358 396 q 336 345 354 404 m 1183 407 q 1153 361 1180 389 l 1153 358 q 1183 345 1153 349 l 1204 345 l 1204 350 q 1185 407 1192 368 l 1183 407 m 526 391 q 545 369 543 391 q 518 331 545 331 q 494 358 498 331 q 526 391 494 378 m 618 388 l 610 342 q 673 288 673 328 l 673 279 l 675 279 q 716 320 679 279 l 716 328 q 708 372 716 372 l 651 372 q 621 388 639 372 l 618 388 m 1015 391 q 1047 350 1040 391 q 1023 331 1039 331 q 993 374 993 331 q 1015 391 998 391 m 887 372 l 833 372 q 825 363 829 372 l 825 320 q 863 279 825 314 l 865 279 l 865 290 q 930 342 865 323 q 917 382 923 375 q 887 372 901 372 m 453 315 l 456 315 q 518 269 501 315 l 518 263 q 434 193 518 221 q 415 214 418 193 l 415 274 q 453 315 427 315 m 1082 315 q 1126 271 1126 309 l 1126 214 q 1104 193 1124 193 q 1023 260 1023 220 l 1023 266 q 1082 315 1023 299 m 450 255 l 450 247 l 453 241 q 480 266 480 252 q 461 277 461 275 q 450 255 450 275 m 1061 258 q 1088 241 1079 241 l 1090 247 q 1080 277 1090 277 q 1061 258 1061 269 m 760 258 l 779 258 q 860 168 860 190 q 776 79 860 144 l 765 79 q 684 157 732 94 l 681 174 q 760 258 692 201 m 586 244 l 583 239 l 583 233 q 600 195 583 228 l 602 195 q 635 236 604 195 l 635 239 l 621 239 q 586 244 610 239 m 917 239 l 903 239 q 936 187 936 199 q 958 228 956 210 q 949 244 958 242 q 917 239 930 239 m 724 171 l 724 165 q 770 122 763 122 q 817 168 780 122 l 817 171 q 770 214 791 200 l 768 214 q 724 171 764 214 z "},"Q":{"ha":1507,"x_min":0,"x_max":1405,"o":"m 689 1584 l 711 1584 q 808 1516 776 1584 l 841 1519 q 879 1473 871 1519 q 760 1329 879 1438 q 751 1313 753 1313 q 754 1272 754 1286 l 754 1194 l 757 1194 q 792 1245 792 1220 l 792 1332 q 833 1381 792 1368 l 838 1381 q 887 1340 887 1372 l 887 1264 l 890 1259 q 930 1275 911 1275 q 979 1251 937 1275 q 1017 1207 1017 1236 l 1017 1196 l 1015 1191 l 1020 1191 q 1104 1229 1088 1229 q 1150 1188 1150 1219 l 1150 1185 q 1044 1093 1150 1143 q 1017 1031 1029 1093 l 1020 1031 q 1147 1145 1147 1087 q 1215 1294 1173 1294 l 1232 1294 q 1272 1248 1262 1294 l 1297 1248 q 1402 1158 1369 1248 q 1405 1137 1405 1148 l 1405 1128 q 1383 1058 1405 1103 q 1402 1020 1402 1042 l 1402 1017 q 1362 971 1393 971 l 1356 971 q 1188 1012 1339 971 q 1072 944 1086 957 q 1120 933 1107 933 q 1226 990 1219 990 l 1242 990 q 1286 947 1286 985 l 1286 944 q 1199 865 1286 905 l 1199 863 q 1237 822 1227 863 l 1237 819 q 1234 787 1234 791 q 1240 765 1240 777 l 1240 760 q 1202 722 1229 722 q 1286 648 1286 677 l 1286 635 q 1240 594 1286 602 l 1234 594 q 1123 651 1213 594 l 1118 651 q 1074 640 1107 651 l 1074 637 q 1188 572 1173 572 q 1359 613 1343 613 l 1362 613 q 1405 570 1405 606 l 1405 567 q 1381 526 1405 543 q 1405 456 1405 484 l 1405 450 q 1316 342 1405 374 q 1289 339 1301 339 l 1278 339 q 1261 309 1274 339 q 1226 293 1244 293 l 1221 293 q 1142 472 1174 293 q 1017 553 1124 499 l 1017 551 q 1053 491 1028 491 q 1150 412 1150 437 l 1150 399 q 1107 355 1137 355 l 1104 355 q 1017 393 1090 355 l 1017 382 q 960 328 1017 345 q 925 309 943 311 l 922 309 q 892 320 907 309 l 887 320 l 887 252 q 838 203 878 203 l 836 203 q 792 244 792 216 l 792 342 q 757 391 792 364 l 754 391 l 754 307 q 751 277 754 295 q 863 155 751 260 q 879 114 879 130 l 879 111 q 836 65 871 65 q 808 68 832 65 q 708 0 774 0 l 694 0 q 591 71 633 0 q 570 65 581 65 l 562 65 q 524 109 531 65 l 524 117 q 651 269 524 146 l 651 393 l 648 393 q 613 347 613 364 l 613 252 q 564 203 598 203 l 562 203 q 518 244 518 216 l 518 323 l 513 323 q 480 309 498 309 l 477 309 q 426 336 463 309 q 391 382 399 336 l 391 396 l 388 396 q 304 355 314 355 l 296 355 q 255 396 255 367 l 255 407 q 369 499 255 442 q 382 553 382 526 q 258 453 258 492 q 179 293 232 293 q 133 336 133 300 l 111 336 q 3 426 36 336 q 0 448 0 437 l 0 469 q 22 524 0 490 q 0 564 0 545 l 0 570 q 43 613 5 613 l 46 613 q 214 572 62 613 q 334 640 313 624 q 285 651 306 651 l 176 594 l 160 594 q 119 635 119 598 l 119 643 q 203 719 119 684 l 203 722 q 165 757 165 732 q 190 857 165 857 q 203 863 199 863 l 203 865 q 130 911 158 892 q 119 944 119 932 l 119 955 q 155 990 128 990 l 168 990 q 277 936 188 990 q 288 933 281 933 l 334 944 l 334 947 q 214 1012 298 975 q 46 971 62 971 q 3 1012 3 981 l 3 1023 q 22 1061 3 1041 q 0 1123 0 1092 l 0 1139 q 100 1248 0 1219 l 130 1248 q 174 1294 136 1294 l 182 1294 q 233 1215 225 1294 q 277 1093 259 1093 q 385 1031 291 1069 l 385 1034 q 353 1093 374 1093 q 255 1183 255 1143 l 255 1191 q 298 1229 255 1221 l 304 1229 l 393 1188 l 391 1194 l 391 1204 q 437 1256 391 1241 q 475 1275 463 1275 q 513 1259 492 1275 l 518 1259 l 518 1332 q 564 1381 527 1381 l 570 1381 q 613 1340 613 1369 l 613 1245 q 648 1194 613 1222 l 651 1194 l 651 1316 q 524 1465 524 1448 l 524 1478 q 564 1519 528 1519 l 567 1519 l 594 1516 q 689 1584 632 1584 m 600 1470 q 570 1481 576 1481 l 562 1481 l 562 1478 q 684 1337 562 1462 l 689 1318 l 689 1210 q 675 1131 689 1131 l 659 1131 q 578 1226 578 1200 l 578 1313 q 564 1343 578 1343 l 562 1343 q 553 1318 553 1333 l 553 1248 q 524 1215 551 1215 q 477 1234 511 1215 l 472 1234 l 429 1207 l 431 1175 q 399 1145 420 1145 l 396 1145 l 296 1191 l 293 1185 l 293 1180 q 393 1112 296 1168 q 431 1006 412 1098 q 415 982 431 991 l 407 982 q 266 1050 371 989 q 203 1169 227 1075 q 182 1256 193 1243 l 174 1256 q 163 1215 168 1256 l 149 1207 q 103 1210 121 1210 q 41 1156 67 1210 q 35 1134 35 1139 q 65 1063 35 1103 l 65 1047 l 41 1023 l 41 1015 q 49 1009 41 1009 q 220 1050 211 1050 q 391 952 313 1014 q 393 941 393 947 l 393 933 q 282 895 393 916 q 176 949 248 905 q 165 952 172 952 l 157 952 l 157 941 q 241 887 174 925 q 250 865 250 873 q 209 825 250 835 l 206 819 l 206 803 q 203 762 206 789 q 250 724 250 751 q 174 662 250 692 q 157 646 157 648 l 157 632 l 165 632 q 274 689 196 644 l 288 689 q 393 643 393 673 l 393 635 q 241 545 389 621 q 214 534 241 538 l 49 575 l 43 575 q 38 570 38 574 l 38 564 q 65 529 65 542 l 65 526 q 38 475 65 520 q 35 453 38 464 q 103 374 35 398 l 106 374 q 149 377 110 374 q 174 331 167 377 l 179 331 q 222 467 201 352 q 372 589 222 519 q 407 602 389 602 q 431 578 431 599 q 388 469 407 469 q 293 404 302 418 l 293 399 q 301 393 293 393 q 401 439 385 439 q 431 407 424 439 q 429 377 429 383 q 480 347 454 365 q 521 369 510 369 l 524 369 q 553 339 553 364 l 553 260 q 562 241 553 252 q 578 279 576 241 l 578 363 q 659 453 578 385 l 675 453 q 689 388 689 453 l 689 263 q 624 190 689 245 q 562 109 562 125 q 570 103 562 103 q 602 114 572 103 q 637 68 617 114 q 692 38 664 38 l 705 38 q 789 109 760 38 q 806 114 800 114 q 836 103 829 103 q 841 109 841 103 l 841 111 q 732 231 840 130 q 716 269 716 254 l 716 410 q 730 453 718 453 l 746 453 q 827 363 827 385 l 827 260 q 838 241 827 246 q 852 269 852 245 l 852 342 q 884 369 852 366 q 922 347 892 369 q 977 377 948 365 l 979 382 q 974 407 974 400 l 974 410 q 1006 439 974 437 l 1107 393 l 1112 401 l 1112 407 q 1012 469 1109 416 q 974 570 990 486 l 974 581 q 996 602 974 602 l 1001 602 q 1180 467 1180 523 q 1226 331 1213 331 q 1242 369 1232 331 q 1261 377 1253 377 l 1297 377 q 1367 442 1346 377 l 1367 458 q 1337 532 1367 469 q 1367 567 1337 539 l 1367 570 q 1362 575 1367 575 q 1185 534 1353 575 l 1183 534 q 1015 632 1120 556 q 1012 643 1012 637 l 1012 651 q 1120 689 1012 669 q 1229 632 1139 689 l 1242 632 q 1248 637 1248 632 l 1248 646 q 1169 694 1239 659 q 1156 719 1156 709 l 1156 724 q 1202 762 1156 752 l 1202 768 q 1196 792 1196 785 q 1199 822 1199 816 q 1156 857 1156 833 l 1156 865 q 1232 925 1156 892 q 1248 949 1248 937 l 1242 952 l 1240 952 q 1131 895 1225 952 l 1118 895 q 1012 941 1012 913 l 1012 944 q 1085 996 1012 963 q 1188 1050 1168 1050 q 1359 1009 1346 1009 l 1362 1009 l 1364 1020 q 1340 1044 1364 1023 q 1337 1053 1340 1047 q 1367 1126 1367 1109 l 1367 1139 q 1299 1210 1349 1210 q 1253 1207 1291 1210 q 1232 1256 1234 1207 l 1221 1256 q 1177 1104 1208 1256 q 1050 1004 1160 1057 q 996 982 1011 982 q 974 1006 974 982 q 1017 1118 994 1118 q 1112 1180 1097 1167 l 1112 1183 q 1101 1191 1112 1190 q 1006 1145 1016 1145 l 1004 1145 q 974 1175 974 1149 l 974 1180 q 979 1204 974 1187 q 941 1226 979 1211 q 928 1237 941 1229 q 884 1215 895 1215 l 882 1215 q 852 1242 852 1221 l 852 1324 q 841 1343 852 1339 l 838 1343 q 827 1321 831 1343 l 827 1223 q 746 1131 827 1200 l 730 1131 q 716 1175 718 1131 l 716 1318 q 814 1435 716 1349 q 841 1470 841 1467 l 841 1476 q 836 1481 841 1481 q 800 1470 804 1470 q 760 1527 788 1472 q 700 1549 726 1548 q 618 1481 647 1549 q 600 1470 604 1470 m 697 1522 l 705 1522 q 754 1478 754 1513 l 754 1468 q 705 1419 747 1419 l 697 1419 q 651 1468 659 1419 l 651 1476 q 697 1522 659 1522 m 689 1476 l 689 1465 q 697 1457 689 1461 l 708 1457 q 716 1465 712 1457 l 716 1476 q 708 1484 716 1480 l 697 1484 q 689 1476 693 1484 m 499 1191 l 540 1191 q 684 1063 578 1191 l 686 1050 l 686 1006 q 643 982 686 982 q 562 939 616 939 q 534 911 553 911 l 529 911 q 456 1015 475 911 q 434 1107 434 1080 l 434 1112 q 499 1191 455 1191 m 865 1191 l 906 1191 q 971 1107 952 1191 q 892 920 934 920 q 865 909 891 914 q 833 941 856 909 q 762 985 787 941 l 741 985 q 719 1006 719 985 l 719 1050 q 844 1185 722 1078 q 865 1191 854 1191 m 111 1183 l 119 1183 q 168 1139 168 1174 l 168 1128 q 119 1080 161 1080 l 111 1080 q 65 1123 65 1089 l 65 1137 q 111 1183 73 1183 m 1283 1183 l 1297 1183 q 1340 1139 1340 1171 l 1340 1128 q 1291 1080 1333 1080 l 1283 1080 q 1237 1123 1237 1089 l 1237 1142 q 1283 1183 1237 1176 m 472 1109 q 524 955 500 955 l 529 955 q 597 985 529 972 q 651 1025 627 1025 l 651 1031 q 586 1112 651 1057 q 534 1153 551 1153 l 505 1153 q 472 1109 482 1153 m 754 1025 q 811 985 783 1025 q 876 952 849 985 q 933 1109 900 952 q 906 1153 933 1128 l 871 1153 q 754 1039 846 1153 l 754 1025 m 103 1137 l 103 1126 q 111 1118 103 1122 l 122 1118 q 130 1126 126 1118 l 130 1137 q 122 1145 130 1141 l 111 1145 q 103 1137 107 1145 m 1275 1139 l 1275 1126 q 1283 1118 1275 1122 l 1294 1118 q 1302 1126 1298 1118 l 1302 1137 q 1294 1145 1302 1141 l 1280 1145 q 1275 1139 1275 1144 m 648 914 l 673 914 q 686 901 676 914 l 686 857 q 665 836 686 836 l 662 836 q 613 876 613 851 q 648 914 621 914 m 743 914 l 751 914 q 792 876 792 903 q 743 836 792 851 l 741 836 q 719 857 719 836 l 719 890 q 743 914 722 914 m 458 909 q 521 868 494 909 q 507 838 521 864 q 521 792 521 802 q 507 746 521 786 l 507 743 l 518 727 l 518 716 q 456 675 518 690 l 450 675 q 274 746 274 713 q 250 792 250 777 l 250 795 q 293 868 250 830 q 458 909 393 909 m 944 909 q 1118 863 987 909 q 1153 792 1153 817 l 1153 789 q 1077 711 1129 711 q 944 675 974 675 q 884 719 884 692 q 898 751 884 724 q 884 792 884 779 q 898 836 884 805 q 884 868 884 860 q 944 909 884 892 m 288 795 q 358 741 309 741 q 458 713 437 713 q 475 724 475 720 q 469 741 469 733 l 469 749 q 483 792 469 759 q 469 838 469 828 l 469 846 q 475 863 469 854 q 453 871 465 871 q 288 795 288 851 m 928 863 q 936 833 936 850 q 922 789 922 794 q 936 751 936 760 l 936 743 q 928 722 936 735 q 949 713 941 713 q 1099 762 1099 749 q 1115 795 1115 784 q 1044 846 1097 846 q 944 871 968 871 q 928 863 938 871 m 597 830 l 602 830 q 651 792 651 815 q 597 754 651 769 q 567 792 572 754 l 567 798 q 597 830 574 830 m 803 830 l 806 830 q 838 789 832 830 q 800 754 838 760 q 757 789 757 768 l 757 800 q 803 830 783 830 m 662 749 l 673 749 q 686 735 676 749 l 686 692 q 665 670 686 670 l 648 670 q 613 708 623 670 q 662 749 613 736 m 741 749 q 792 708 792 737 q 746 670 792 677 l 743 670 q 719 694 719 673 l 719 727 q 741 749 719 749 m 868 675 q 958 537 933 675 q 971 469 971 502 q 898 396 942 396 q 873 393 884 396 q 741 499 835 393 q 719 534 719 519 l 719 578 q 760 602 719 602 q 833 646 785 646 q 868 675 852 675 m 532 673 l 534 673 q 572 643 547 673 q 635 610 620 643 q 678 597 646 597 q 686 578 686 587 l 686 537 q 572 410 686 514 q 529 393 562 398 q 450 437 465 393 q 434 477 434 460 q 518 670 465 670 q 532 673 523 673 m 873 635 q 808 602 849 602 q 754 559 777 559 l 754 553 q 803 488 754 532 q 879 431 855 431 q 922 456 913 431 q 933 480 933 475 q 873 635 901 635 m 472 477 q 518 431 486 431 l 526 431 q 616 505 552 431 q 651 559 651 538 q 589 605 630 559 q 532 632 532 610 l 529 632 q 488 545 503 632 q 472 477 472 496 m 111 505 l 119 505 q 168 461 168 495 l 168 450 q 119 401 161 401 l 111 401 q 65 450 73 401 l 65 458 q 111 505 73 505 m 1283 505 l 1291 505 q 1340 461 1340 496 l 1340 450 q 1291 401 1333 401 l 1283 401 q 1237 450 1244 401 l 1237 458 q 1283 505 1244 505 m 103 458 l 103 448 q 111 439 103 444 l 122 439 q 130 448 126 439 l 130 458 q 122 467 130 463 l 111 467 q 103 458 107 467 m 1275 458 l 1275 448 q 1283 439 1275 444 l 1294 439 q 1302 448 1298 439 l 1302 458 q 1294 467 1302 463 l 1283 467 q 1275 458 1279 467 m 692 165 l 711 165 q 754 122 754 153 l 754 111 q 705 62 747 62 l 697 62 q 651 111 659 62 l 651 125 q 692 165 661 165 m 689 122 l 689 109 q 697 100 689 104 l 708 100 q 716 109 712 100 l 716 119 q 708 127 716 123 l 694 127 q 689 122 689 127 z "},"R":{"ha":1485,"x_min":0,"x_max":1383,"o":"m 694 1579 l 697 1579 q 830 1465 743 1579 q 836 1443 836 1455 l 836 1440 q 808 1389 836 1417 l 808 1383 q 830 1351 822 1383 l 830 1345 q 808 1305 830 1325 l 808 1302 q 836 1248 836 1268 l 836 1242 q 773 1107 836 1223 q 830 1066 823 1107 l 830 1053 q 814 1020 830 1042 l 814 1017 l 833 1015 l 833 1023 q 876 1061 833 1053 l 879 1061 q 925 1034 901 1061 l 928 1034 q 1036 1161 998 1161 l 1044 1161 q 1080 1156 1067 1161 q 1120 1204 1090 1204 l 1131 1204 l 1150 1199 q 1204 1256 1166 1256 l 1213 1256 q 1367 1213 1257 1256 q 1383 1175 1383 1194 q 1308 1001 1356 1001 l 1299 1001 q 1261 1006 1282 1001 q 1218 958 1255 958 l 1215 958 q 1191 963 1208 958 q 1142 906 1177 906 q 1009 892 1103 892 q 1006 890 1009 890 q 1015 863 1015 876 l 1015 857 q 971 814 1002 814 l 963 814 q 941 819 960 814 q 933 787 933 795 l 933 779 l 936 779 q 960 784 954 784 l 966 784 q 1006 738 1006 774 q 1001 705 1001 711 q 1090 700 1034 700 l 1109 700 q 1175 654 1159 700 q 1180 632 1180 637 l 1185 632 q 1210 640 1196 640 l 1213 640 q 1253 591 1253 640 q 1289 597 1278 597 l 1291 597 q 1356 499 1339 597 q 1375 426 1375 453 q 1207 342 1375 366 l 1196 342 q 1142 401 1158 342 q 1120 393 1128 393 l 1115 393 q 1074 434 1074 397 l 1074 442 q 1034 437 1048 437 l 1025 437 q 920 564 992 437 l 917 564 q 876 537 890 537 l 863 537 q 825 578 836 537 l 822 578 q 806 562 818 578 q 833 524 833 548 l 833 521 q 776 472 833 484 q 838 331 838 349 q 808 277 838 309 q 833 236 833 260 l 833 228 q 808 193 833 212 q 836 144 836 170 l 836 138 q 711 0 836 93 l 694 0 q 564 111 654 0 q 556 138 556 125 l 556 144 q 583 195 556 167 q 562 231 562 214 l 562 239 q 583 277 562 260 l 583 279 q 556 326 556 309 l 556 339 q 616 475 560 373 q 562 515 562 486 l 562 529 q 583 559 569 559 l 583 562 q 562 581 577 572 l 559 581 q 515 537 547 537 l 510 537 q 467 562 489 537 l 461 562 q 345 437 395 437 q 312 439 317 439 q 269 393 302 393 l 260 393 l 241 399 q 184 342 222 342 l 179 342 q 19 391 110 342 q 8 418 8 408 q 76 594 37 594 q 90 597 81 597 l 92 597 q 127 591 115 597 q 168 640 137 640 l 179 640 q 201 635 191 640 q 263 697 214 697 q 382 705 334 705 l 385 711 q 380 735 380 728 l 380 746 q 418 784 391 784 l 426 784 q 448 779 437 784 l 450 784 q 439 822 450 795 q 418 814 426 814 l 410 814 q 372 857 379 814 l 372 865 l 374 892 q 214 920 214 899 q 193 963 205 920 q 171 958 190 963 l 160 958 q 119 1006 130 958 q 87 1001 100 1001 l 76 1001 q 14 1115 35 1001 q 0 1185 0 1150 q 174 1256 0 1235 l 176 1256 q 231 1196 218 1256 q 258 1204 245 1204 q 304 1158 304 1197 q 307 1156 307 1158 q 342 1161 319 1161 q 423 1080 381 1161 l 458 1034 q 499 1061 477 1061 l 507 1061 q 551 1017 551 1055 l 551 1012 q 575 1017 557 1012 l 575 1020 q 562 1047 562 1036 l 562 1066 q 616 1107 562 1099 q 556 1242 556 1219 l 556 1256 q 583 1305 556 1278 q 559 1343 559 1319 l 559 1351 q 583 1389 559 1365 q 556 1440 556 1421 l 556 1446 q 667 1571 569 1498 q 694 1579 685 1579 m 594 1438 q 632 1381 632 1395 q 597 1348 632 1362 l 597 1340 q 632 1305 632 1329 q 594 1256 632 1300 l 594 1248 q 659 1104 594 1226 l 659 1096 q 602 1066 659 1066 q 597 1058 600 1058 q 624 1039 597 1053 q 632 1020 632 1027 q 537 971 603 971 l 532 971 q 510 993 510 974 l 513 1020 l 507 1023 l 499 1023 q 458 985 473 985 l 456 985 q 399 1053 439 985 q 345 1123 353 1120 l 342 1123 q 279 1115 292 1115 q 263 1139 267 1115 q 266 1161 266 1154 l 258 1166 q 222 1150 233 1150 q 184 1215 205 1150 l 179 1218 l 176 1218 q 38 1180 38 1199 q 79 1039 52 1086 l 84 1039 q 138 1047 87 1039 q 163 1025 163 1042 q 160 1001 160 1010 q 168 996 160 996 l 190 1009 l 206 1009 q 239 947 218 1009 q 407 928 239 936 q 423 903 423 915 q 407 865 423 899 q 415 852 410 852 q 450 868 433 868 q 488 789 470 868 l 488 787 q 461 732 488 756 l 453 732 l 420 746 l 418 741 q 431 692 418 733 q 312 665 431 665 q 241 640 241 665 q 209 589 232 589 l 206 589 q 174 602 203 589 q 168 597 168 602 l 171 572 q 146 553 163 553 l 141 553 q 90 559 95 559 q 46 423 74 559 q 174 380 46 403 l 187 380 q 217 439 194 380 l 225 445 l 236 445 l 269 431 l 274 439 l 271 467 q 296 483 276 483 q 350 475 335 475 q 439 594 382 497 q 469 613 458 610 q 505 578 481 613 q 515 575 509 575 q 524 616 521 580 q 545 627 535 627 q 632 564 581 627 l 632 551 q 600 524 632 547 l 600 518 q 659 488 659 510 l 662 483 q 594 334 594 355 q 632 279 594 321 l 632 263 q 600 239 632 259 l 600 233 q 632 206 632 210 l 632 198 q 597 152 632 186 q 594 141 594 147 l 594 136 q 697 38 674 38 q 789 122 713 40 q 798 141 798 132 q 762 190 798 151 q 760 201 760 195 q 795 231 760 223 l 795 236 q 762 266 762 261 q 760 274 762 269 q 798 326 760 281 q 800 336 800 330 q 732 486 732 470 q 792 515 732 515 l 795 521 l 795 526 q 760 562 774 526 q 825 627 760 582 l 841 627 q 865 605 865 623 q 863 581 863 590 q 868 575 863 575 l 873 575 q 920 613 907 613 q 987 524 939 613 q 1028 475 1010 492 l 1034 475 q 1093 483 1084 483 q 1112 458 1112 475 l 1112 431 q 1150 448 1117 431 q 1188 382 1173 448 l 1202 380 l 1204 380 q 1337 431 1337 400 q 1294 559 1304 559 l 1291 559 q 1237 551 1240 551 q 1215 572 1215 551 l 1215 597 q 1210 602 1215 602 q 1175 586 1185 586 q 1134 654 1153 586 q 1115 662 1124 662 l 1085 662 q 952 689 952 662 l 952 697 q 968 738 968 732 l 968 741 q 960 746 968 746 q 928 730 931 730 q 895 781 895 743 l 895 789 q 936 865 909 865 l 939 865 l 971 852 l 977 860 l 960 906 q 1028 930 960 930 q 1153 966 1153 930 q 1188 1012 1162 1012 q 1221 996 1214 996 q 1248 1047 1221 1047 q 1302 1039 1287 1039 l 1308 1039 q 1345 1177 1345 1137 q 1210 1218 1345 1193 q 1183 1172 1190 1218 q 1156 1150 1176 1150 q 1123 1166 1129 1166 q 1099 1115 1120 1115 q 1042 1123 1055 1123 l 1036 1123 q 944 990 1023 1122 l 925 982 q 884 1020 913 982 q 873 1023 880 1023 l 871 1017 l 873 990 q 857 971 869 978 l 846 971 q 768 1006 777 984 q 760 1020 765 1006 q 792 1053 760 1038 l 792 1061 q 743 1074 792 1066 q 732 1096 732 1086 l 732 1099 q 792 1226 732 1118 q 798 1251 798 1236 q 760 1310 760 1301 q 792 1343 760 1321 l 792 1351 q 760 1378 760 1358 l 760 1381 q 795 1432 760 1394 q 798 1443 798 1437 q 694 1541 724 1541 q 597 1449 644 1513 q 594 1438 594 1444 m 700 1503 q 760 1440 760 1466 q 700 1375 760 1414 l 694 1375 q 635 1430 671 1375 q 632 1446 632 1434 q 700 1503 665 1503 m 673 1440 q 692 1419 682 1425 l 697 1419 q 716 1438 701 1419 l 716 1443 q 697 1462 716 1447 l 694 1462 q 673 1440 691 1462 m 697 1313 q 765 1245 723 1313 l 765 1240 q 711 1126 765 1221 l 703 1120 l 694 1120 q 643 1196 674 1120 q 624 1242 634 1196 q 689 1313 624 1265 l 697 1313 m 665 1237 q 692 1177 665 1232 l 694 1177 q 724 1237 701 1177 l 724 1240 q 697 1272 724 1243 q 665 1237 671 1255 m 146 1185 l 149 1185 q 187 1115 176 1185 l 187 1112 q 136 1074 187 1086 l 103 1072 q 71 1150 81 1072 q 146 1185 71 1179 m 1237 1185 q 1313 1145 1303 1185 q 1275 1069 1299 1069 q 1196 1112 1196 1082 l 1196 1115 q 1237 1185 1206 1185 m 109 1139 q 117 1112 117 1116 l 125 1112 q 146 1120 145 1112 q 136 1147 143 1147 q 109 1139 130 1147 m 1245 1147 q 1237 1120 1237 1134 q 1264 1109 1237 1114 q 1272 1139 1272 1128 l 1272 1142 q 1245 1147 1265 1142 m 326 1093 q 393 1017 349 1084 q 410 982 410 989 l 410 979 q 388 958 410 958 l 363 958 q 258 985 258 958 q 236 1053 236 1026 q 326 1093 236 1084 m 1061 1093 q 1147 1053 1147 1086 l 1147 1047 q 1085 963 1137 963 q 1031 958 1058 958 l 996 958 q 974 979 974 959 q 1061 1093 1033 1093 m 277 1039 q 301 1001 283 1001 l 358 993 q 361 996 358 996 q 315 1055 340 1035 q 277 1039 277 1049 m 1025 996 l 1031 996 q 1101 1017 1101 996 q 1109 1044 1101 1021 q 1069 1055 1102 1050 q 1025 996 1061 1055 m 697 1025 q 724 993 720 1025 q 703 977 719 977 l 694 977 q 665 1001 665 977 q 697 1025 665 1021 m 773 947 q 865 808 804 947 l 865 803 q 735 627 797 627 q 684 629 705 629 l 640 629 q 553 732 600 629 q 518 811 518 786 q 613 947 574 947 l 773 947 m 521 936 q 537 911 534 936 q 505 879 524 879 q 486 903 486 887 l 486 909 q 521 936 486 936 m 873 936 q 901 909 901 928 q 876 879 893 879 q 846 914 846 892 q 873 936 846 932 m 556 806 q 635 670 589 734 q 646 665 646 668 l 678 667 l 684 667 q 735 665 705 667 q 825 798 762 665 q 827 806 825 800 q 754 911 777 911 l 632 911 q 589 865 601 911 q 556 806 569 840 m 515 716 l 518 716 q 545 678 545 712 q 524 662 540 662 l 521 662 q 494 689 494 667 l 494 692 q 515 716 494 716 m 868 716 l 876 716 q 890 694 890 709 l 890 689 q 863 662 884 662 l 860 662 q 838 681 838 664 q 868 716 846 716 m 339 646 q 420 616 420 646 q 339 505 354 505 l 334 505 q 244 543 244 514 l 244 559 q 339 646 244 646 m 1066 643 q 1139 548 1139 643 q 1044 505 1139 513 q 966 608 1029 505 l 966 618 q 987 640 966 640 q 1066 643 1006 640 m 282 553 q 328 543 325 543 l 369 605 q 342 608 366 605 q 282 570 282 608 l 282 553 m 1015 602 l 1015 600 q 1058 543 1054 543 q 1101 559 1101 551 q 1063 605 1101 605 l 1034 605 l 1015 602 m 689 602 l 713 602 q 727 583 727 594 q 697 553 718 553 q 667 583 667 557 q 689 602 667 600 m 119 526 q 195 486 186 526 l 195 483 q 157 410 185 410 q 79 448 79 420 l 79 453 q 119 526 90 526 m 1272 526 q 1305 450 1293 526 q 1223 410 1305 422 q 1188 488 1202 410 q 1272 526 1188 520 m 125 486 q 117 458 125 477 q 149 453 121 453 q 155 480 155 465 q 133 486 144 486 l 125 486 m 1229 477 q 1237 450 1229 465 q 1264 461 1264 455 q 1259 486 1264 465 q 1229 477 1229 486 m 689 458 l 703 458 q 768 342 741 418 l 768 336 q 694 266 721 266 q 627 342 650 286 q 681 453 627 361 l 689 458 m 667 345 l 667 342 q 697 309 677 326 q 727 342 707 315 q 700 401 727 349 l 697 401 q 667 345 667 358 m 700 203 q 760 136 760 169 q 694 76 722 76 q 632 133 671 76 l 632 141 q 684 201 635 168 l 700 203 m 673 141 q 692 119 682 125 l 697 119 q 716 138 701 119 l 716 141 l 697 163 q 673 141 690 163 z "},"S":{"ha":1496,"x_min":0,"x_max":1394,"o":"m 686 1584 l 705 1584 q 784 1500 763 1584 l 784 1492 q 762 1421 784 1471 q 838 1253 838 1279 l 838 1251 q 779 1199 838 1209 q 838 1055 838 1087 q 811 1015 838 1035 q 833 1001 811 1008 l 833 1009 q 914 1058 833 1058 q 1009 1063 942 1061 l 1009 1066 q 1001 1093 1001 1080 l 1001 1112 q 1061 1153 1001 1148 q 1221 1177 1221 1153 q 1297 1229 1252 1229 l 1313 1229 q 1392 1172 1369 1229 l 1394 1156 l 1394 1145 q 1321 1055 1394 1081 q 1261 1028 1261 1055 q 1169 898 1183 909 q 1145 892 1152 892 l 1137 892 q 1090 920 1115 892 l 1015 817 q 974 795 993 795 l 971 795 q 944 800 966 795 l 944 784 l 947 779 q 968 787 960 787 l 977 787 q 1088 659 1014 787 l 1090 659 q 1137 689 1114 689 l 1145 689 q 1259 556 1179 689 q 1299 529 1271 529 q 1394 437 1394 515 l 1394 423 q 1318 353 1394 370 l 1299 353 q 1213 420 1253 353 q 1020 439 1020 425 q 1001 472 1010 439 l 1001 483 q 1009 518 1009 513 q 998 521 1004 521 q 846 545 859 521 q 833 581 833 562 l 830 581 q 814 572 814 579 q 838 529 838 550 q 776 388 838 510 q 838 342 838 378 l 838 331 q 760 160 838 308 q 781 98 781 128 l 781 92 q 705 0 781 18 l 686 0 q 610 84 629 0 l 610 95 q 632 165 610 120 q 556 334 556 302 l 556 342 q 613 388 556 377 l 613 391 q 556 521 561 485 l 556 532 q 581 570 563 570 l 581 575 l 562 581 q 486 526 562 526 l 385 518 l 385 515 q 393 483 393 491 l 393 475 q 317 426 393 431 l 301 423 l 285 426 q 174 407 174 426 q 95 353 140 353 l 79 353 q 0 415 20 353 l 0 445 q 79 529 0 500 q 130 548 122 529 q 252 689 205 689 l 260 689 q 304 659 279 689 l 307 659 q 415 787 376 787 l 420 787 q 448 779 434 787 l 450 784 l 450 798 q 445 803 450 803 q 423 795 444 795 l 415 795 q 342 868 379 795 q 301 925 304 925 q 260 892 281 892 l 250 892 q 165 982 214 892 q 114 1053 138 1026 l 95 1053 q 0 1131 25 1053 l 0 1156 q 68 1229 0 1206 l 92 1229 q 184 1164 139 1229 q 380 1134 380 1158 q 396 1096 396 1123 q 385 1063 396 1093 l 388 1063 q 540 1044 540 1061 q 562 1006 562 1031 l 562 1001 l 564 1001 q 581 1015 576 1005 l 581 1017 q 556 1055 563 1017 l 556 1063 q 616 1202 568 1114 q 556 1248 556 1202 l 556 1251 q 632 1421 556 1282 l 632 1424 q 610 1487 610 1472 l 610 1503 q 686 1584 630 1584 m 648 1497 l 648 1492 q 670 1419 670 1426 q 597 1267 664 1398 q 594 1253 594 1262 l 594 1248 q 651 1232 596 1242 q 662 1210 662 1219 q 594 1058 594 1079 l 594 1055 l 632 1028 l 632 1017 q 564 960 632 991 q 551 958 559 958 l 543 958 q 521 977 521 960 l 524 1009 q 486 1023 508 1023 q 342 1044 342 1023 l 339 1058 q 358 1101 358 1093 q 212 1123 358 1123 q 144 1156 144 1127 q 87 1191 117 1191 l 76 1191 q 35 1147 45 1191 q 90 1090 51 1090 l 119 1090 q 217 968 147 1090 q 255 930 242 930 l 258 930 q 296 971 291 971 l 307 971 q 363 898 327 971 q 412 833 409 833 l 418 833 q 453 852 423 833 l 456 852 q 488 792 488 852 q 464 730 488 751 l 456 730 q 420 749 450 730 l 415 749 q 328 627 388 725 q 304 610 317 610 l 301 610 q 260 651 285 610 l 255 651 q 168 537 229 651 q 114 494 142 494 q 38 442 38 488 l 35 437 q 73 391 43 391 l 90 391 q 157 450 127 391 q 236 461 180 461 l 263 461 q 274 464 269 461 q 285 461 279 461 l 296 461 q 355 477 355 463 q 339 532 355 484 q 513 564 339 564 l 524 575 q 521 608 521 594 q 543 624 526 624 l 551 624 q 632 564 632 602 q 594 534 632 549 l 594 526 q 662 374 594 506 q 602 347 662 351 q 594 339 594 341 l 594 328 q 670 171 594 319 l 670 160 q 648 98 648 108 l 648 90 q 689 38 657 38 l 703 38 q 743 90 734 38 l 743 100 q 722 157 743 111 l 722 165 l 798 323 q 800 336 800 328 l 800 339 q 741 355 800 347 q 732 374 732 366 q 800 526 732 385 l 800 529 q 765 548 800 539 q 760 564 760 557 q 852 624 760 608 q 876 602 876 620 q 871 575 871 582 q 1025 556 871 556 q 1055 526 1055 546 l 1039 480 l 1039 475 q 1069 464 1042 464 q 1245 439 1245 464 q 1299 391 1275 391 l 1318 391 q 1356 426 1356 399 l 1356 439 q 1267 494 1356 494 q 1161 635 1246 502 l 1142 651 l 1137 651 q 1090 610 1104 610 l 1088 610 q 1036 675 1069 610 q 974 749 1002 725 l 971 749 q 947 730 960 741 l 930 730 q 906 784 916 730 l 906 800 q 930 849 906 830 l 941 849 q 968 833 952 849 q 1066 955 990 833 q 1090 971 1077 971 l 1093 971 q 1131 933 1107 971 q 1142 930 1136 930 l 1147 930 q 1251 1080 1152 930 q 1318 1093 1272 1093 q 1356 1142 1356 1113 l 1356 1156 q 1308 1194 1345 1194 q 1242 1139 1266 1194 q 1042 1112 1242 1122 l 1036 1101 q 1055 1055 1055 1059 l 1055 1053 q 1004 1025 1055 1025 q 871 1009 871 1025 q 873 977 871 1005 q 846 955 873 958 q 760 1023 760 985 q 800 1055 764 1038 l 800 1058 q 732 1213 800 1072 l 732 1215 q 798 1242 743 1242 l 800 1248 l 800 1253 q 727 1408 800 1267 l 724 1424 l 724 1427 q 746 1489 746 1481 l 746 1495 q 700 1546 738 1546 l 689 1546 q 648 1497 657 1546 m 694 1516 q 719 1489 719 1511 q 694 1465 715 1465 q 675 1489 675 1473 l 675 1495 q 694 1516 678 1516 m 689 1378 l 697 1378 q 746 1308 718 1378 q 754 1286 754 1306 q 732 1264 754 1264 l 662 1264 q 640 1286 640 1264 q 689 1378 650 1333 m 694 1321 q 686 1299 686 1308 l 703 1299 l 708 1302 q 694 1321 701 1320 m 703 1185 q 754 1099 715 1185 l 754 1093 q 732 1072 754 1072 l 662 1072 q 640 1093 640 1072 q 686 1185 640 1117 l 703 1185 m 1305 1164 q 1326 1139 1322 1164 q 1297 1115 1326 1121 q 1278 1137 1278 1120 l 1278 1139 q 1305 1164 1278 1160 m 81 1161 l 100 1161 q 117 1137 117 1152 q 92 1115 117 1119 q 68 1142 68 1128 q 81 1161 73 1159 m 686 1107 l 703 1107 l 708 1109 q 700 1128 700 1123 l 697 1128 q 686 1107 690 1128 m 201 1096 l 233 1093 l 274 1093 l 290 1096 q 309 1074 307 1096 l 309 1066 q 250 985 276 985 q 184 1074 226 985 l 184 1080 q 201 1096 184 1086 m 1126 1093 l 1175 1093 q 1207 1077 1198 1093 l 1207 1066 q 1153 985 1207 1050 l 1142 985 q 1085 1074 1118 985 q 1126 1093 1085 1091 m 239 1055 l 239 1053 q 250 1036 245 1036 q 263 1055 256 1038 l 239 1055 m 1134 1055 l 1134 1053 q 1142 1036 1142 1042 l 1145 1036 q 1158 1055 1149 1036 l 1134 1055 m 703 1023 q 727 990 727 1015 q 705 974 722 974 l 689 974 q 667 996 667 974 q 703 1023 667 1021 m 968 998 l 1031 998 q 1044 977 1044 991 q 979 890 998 890 l 977 890 q 917 971 952 890 l 917 974 q 968 998 917 997 m 401 996 l 450 996 q 477 971 477 992 q 420 887 441 887 l 418 887 q 353 971 385 903 q 401 996 353 996 m 404 960 l 404 955 q 418 939 414 939 l 420 939 q 429 958 420 944 l 415 960 l 404 960 m 966 960 l 966 955 q 979 939 975 939 q 990 960 990 955 l 966 960 m 629 944 l 648 944 q 670 922 670 944 l 670 917 q 627 876 670 884 l 624 876 q 589 901 589 881 q 629 944 603 944 m 749 944 l 760 944 q 806 895 798 944 q 776 876 806 880 l 760 876 q 724 925 728 876 q 749 944 732 944 m 518 920 l 526 920 q 548 898 548 918 q 518 863 548 878 q 494 890 494 871 l 494 895 q 518 920 497 920 m 868 920 l 871 920 q 901 892 901 920 q 879 863 898 863 q 846 898 846 880 q 868 920 848 920 m 694 868 l 705 868 q 760 838 723 849 l 768 822 q 760 795 760 801 q 768 768 760 789 q 719 735 768 750 q 703 719 719 731 l 689 719 q 632 754 673 739 q 627 770 627 765 q 635 795 635 788 q 627 825 627 821 q 673 854 627 840 q 694 868 680 868 m 562 838 q 600 795 600 821 l 600 792 q 562 749 586 749 l 559 749 q 529 787 537 749 l 529 795 q 562 838 542 838 m 830 838 q 868 792 854 838 l 868 787 q 838 749 859 749 l 827 749 q 795 798 795 770 q 830 838 808 838 m 670 811 l 673 806 l 673 781 q 700 765 673 776 q 722 776 700 772 l 722 808 q 697 825 722 812 l 694 825 l 670 811 m 515 716 l 518 716 q 548 678 541 716 q 521 659 548 661 q 494 686 494 665 l 494 692 q 515 716 494 716 m 879 716 l 887 716 q 901 689 901 710 l 901 684 q 871 659 901 659 q 849 681 849 659 q 879 716 859 716 m 629 713 l 632 713 q 673 662 663 713 q 648 643 665 643 l 621 643 q 583 686 594 643 q 629 713 583 713 m 760 713 l 762 713 q 811 689 811 713 q 768 643 799 643 l 746 643 q 722 667 722 646 q 760 713 732 713 m 418 692 l 426 692 q 477 602 463 655 q 388 581 477 581 l 369 581 q 350 600 360 581 q 418 692 393 692 m 977 692 q 1044 600 1000 692 q 1025 581 1039 581 q 920 597 920 581 l 920 608 q 966 692 920 630 l 977 692 m 404 618 l 407 618 q 429 621 418 621 q 420 640 420 635 l 418 640 q 404 618 404 628 m 974 640 q 966 624 974 634 l 966 621 l 990 621 q 977 640 981 640 l 974 640 m 686 610 l 705 610 q 727 591 727 608 q 689 562 727 566 q 665 594 665 573 q 686 610 670 610 m 250 594 l 258 594 q 309 510 292 563 l 309 507 q 250 486 309 486 l 206 486 q 184 507 184 487 q 250 594 227 594 m 1145 594 q 1204 521 1164 594 q 1210 505 1210 521 q 1196 488 1206 494 l 1109 488 q 1088 510 1088 488 q 1134 594 1088 542 l 1145 594 m 1142 545 l 1131 526 l 1137 524 l 1156 524 l 1156 529 q 1142 545 1146 545 m 236 524 l 241 521 q 260 526 260 523 q 250 543 254 543 q 236 524 245 543 m 662 515 l 732 515 q 754 494 754 515 q 703 399 745 447 l 689 399 q 637 494 661 424 l 637 496 q 662 515 646 515 m 684 477 q 697 456 693 456 l 700 456 q 708 477 700 458 l 703 480 l 689 480 l 684 477 m 92 464 q 117 439 117 460 q 92 418 117 422 l 90 418 q 68 437 68 420 q 92 464 68 454 m 1299 464 q 1326 434 1326 456 q 1313 418 1323 423 l 1297 418 q 1278 445 1278 427 q 1299 464 1278 460 m 659 320 l 732 320 q 754 298 754 320 q 705 206 719 206 l 697 206 q 637 304 667 206 q 659 320 643 320 m 684 282 q 697 260 693 260 l 708 282 l 703 285 l 689 285 l 684 282 m 694 122 q 719 95 715 122 q 694 68 716 68 q 675 98 679 68 l 675 100 q 694 122 677 122 z "}}}
